<mxfile host="Electron" modified="2024-04-10T11:50:04.681Z" agent="Mozilla/5.0 (Windows NT 10.0; Win64; x64) AppleWebKit/537.36 (KHTML, like Gecko) draw.io/24.1.0 Chrome/120.0.6099.109 Electron/28.1.0 Safari/537.36" etag="2lz6-uWheoR6TuuTRc97" version="24.1.0" type="device">
  <diagram name="FLOWCHART" id="_SyIQTBnzG2JWo0JwZib">
    <mxGraphModel dx="1500" dy="1987" grid="0" gridSize="10" guides="1" tooltips="1" connect="1" arrows="1" fold="1" page="1" pageScale="1" pageWidth="850" pageHeight="1100" background="none" math="0" shadow="0">
      <root>
        <mxCell id="0" />
        <mxCell id="1" parent="0" />
        <mxCell id="jepS8LiPJiyBPYWLw1s4-120" value="" style="rounded=0;whiteSpace=wrap;html=1;fillColor=#6a00ff;opacity=15;strokeColor=#3700CC;fontColor=#ffffff;fontStyle=0" parent="1" vertex="1">
          <mxGeometry x="1144" y="296.75" width="506" height="553.25" as="geometry" />
        </mxCell>
        <mxCell id="jepS8LiPJiyBPYWLw1s4-115" value="" style="rounded=0;whiteSpace=wrap;html=1;fillColor=#99004D;fontColor=#ffffff;strokeColor=#3700CC;opacity=15;fontStyle=0" parent="1" vertex="1">
          <mxGeometry x="2030" y="-355" width="390" height="150" as="geometry" />
        </mxCell>
        <mxCell id="jepS8LiPJiyBPYWLw1s4-51" value="" style="rounded=0;whiteSpace=wrap;html=1;fillColor=#4D9900;opacity=15;strokeColor=#00FF80;fontColor=#000000;movable=0;fontStyle=0" parent="1" vertex="1">
          <mxGeometry x="6615" y="-1039.74" width="150" height="790" as="geometry" />
        </mxCell>
        <mxCell id="jepS8LiPJiyBPYWLw1s4-14" value="" style="rounded=0;whiteSpace=wrap;html=1;fillColor=#00FF80;opacity=15;strokeColor=#00FF80;fontColor=#000000;fontStyle=0" parent="1" vertex="1">
          <mxGeometry x="5330" y="722.62" width="545" height="150" as="geometry" />
        </mxCell>
        <mxCell id="_7ieRwts1pLUNNnIRrpb-142" value="" style="rounded=0;whiteSpace=wrap;html=1;opacity=15;fillColor=#66FFB3;strokeColor=#66FFB3;fontStyle=0" parent="1" vertex="1">
          <mxGeometry x="5330" y="548" width="545" height="150" as="geometry" />
        </mxCell>
        <mxCell id="_7ieRwts1pLUNNnIRrpb-119" value="" style="rounded=0;whiteSpace=wrap;html=1;opacity=15;fillColor=#4D9900;strokeColor=#4D9900;fontStyle=0" parent="1" vertex="1">
          <mxGeometry x="4543" y="578" width="460" height="150" as="geometry" />
        </mxCell>
        <mxCell id="_7ieRwts1pLUNNnIRrpb-107" value="" style="rounded=0;whiteSpace=wrap;html=1;opacity=15;fillColor=#66FFB3;strokeColor=#66FFB3;fontStyle=0" parent="1" vertex="1">
          <mxGeometry x="4543" y="783" width="460" height="150" as="geometry" />
        </mxCell>
        <mxCell id="_7ieRwts1pLUNNnIRrpb-30" value="" style="rounded=0;whiteSpace=wrap;html=1;fillColor=#66FFB3;opacity=15;strokeColor=#B09500;fontColor=#000000;movable=0;fontStyle=0" parent="1" vertex="1">
          <mxGeometry x="6145" y="-216.74" width="390" height="150" as="geometry" />
        </mxCell>
        <mxCell id="5m1O86NGaFOG43O_L-Pf-7" value="" style="rounded=0;whiteSpace=wrap;html=1;fillColor=#00FF80;opacity=15;strokeColor=#B09500;fontColor=#000000;movable=0;fontStyle=0" parent="1" vertex="1">
          <mxGeometry x="5985" y="-1039.74" width="630" height="790" as="geometry" />
        </mxCell>
        <mxCell id="fk4BfuyukFRPb7nqBHwW-318" value="" style="rounded=0;whiteSpace=wrap;html=1;fillColor=#66FFB3;opacity=15;strokeColor=#B09500;fontColor=#000000;fontStyle=0" parent="1" vertex="1">
          <mxGeometry x="4575" y="-693.5" width="390" height="150" as="geometry" />
        </mxCell>
        <mxCell id="fk4BfuyukFRPb7nqBHwW-147" value="" style="rounded=0;whiteSpace=wrap;html=1;fillColor=#e3c800;opacity=15;strokeColor=#B09500;fontColor=#000000;fontStyle=0" parent="1" vertex="1">
          <mxGeometry x="2027" y="-686" width="390" height="150" as="geometry" />
        </mxCell>
        <mxCell id="fk4BfuyukFRPb7nqBHwW-133" value="" style="rounded=0;whiteSpace=wrap;html=1;fillColor=#6a00ff;fontColor=#ffffff;strokeColor=#3700CC;opacity=15;fontStyle=0" parent="1" vertex="1">
          <mxGeometry x="2030" y="-520.5" width="390" height="150" as="geometry" />
        </mxCell>
        <mxCell id="Ll0FbNr0BLSHcaz0i3VG-2" value="" style="rounded=0;whiteSpace=wrap;html=1;opacity=15;fillColor=#a20025;fontColor=#ffffff;strokeColor=#6F0000;fontStyle=0" parent="1" vertex="1">
          <mxGeometry x="220" y="-447.49" width="150" height="430" as="geometry" />
        </mxCell>
        <mxCell id="4c7Zik1as252_9zJUMFA-1" value="" style="rounded=0;whiteSpace=wrap;html=1;fillColor=#60a917;fontColor=#ffffff;strokeColor=#2D7600;opacity=15;fontStyle=0" parent="1" vertex="1">
          <mxGeometry x="220" y="-447.49" width="310" height="150" as="geometry" />
        </mxCell>
        <mxCell id="iaxnD8F6SxANwpRCkQcq-3" style="edgeStyle=orthogonalEdgeStyle;rounded=0;orthogonalLoop=1;jettySize=auto;html=1;exitX=0.5;exitY=1;exitDx=0;exitDy=0;entryX=0.5;entryY=0;entryDx=0;entryDy=0;fontStyle=0" parent="1" source="Ll0FbNr0BLSHcaz0i3VG-1" target="Ll0FbNr0BLSHcaz0i3VG-3" edge="1">
          <mxGeometry relative="1" as="geometry" />
        </mxCell>
        <mxCell id="Ll0FbNr0BLSHcaz0i3VG-1" value="Start" style="ellipse;whiteSpace=wrap;html=1;fontStyle=0" parent="1" vertex="1">
          <mxGeometry x="350" y="-1080" width="150" height="80" as="geometry" />
        </mxCell>
        <mxCell id="iaxnD8F6SxANwpRCkQcq-7" value="" style="edgeStyle=orthogonalEdgeStyle;rounded=0;orthogonalLoop=1;jettySize=auto;html=1;fontStyle=0" parent="1" source="Ll0FbNr0BLSHcaz0i3VG-3" target="iaxnD8F6SxANwpRCkQcq-6" edge="1">
          <mxGeometry relative="1" as="geometry" />
        </mxCell>
        <mxCell id="Ll0FbNr0BLSHcaz0i3VG-3" value="&lt;div&gt;LET&lt;br&gt;&lt;br&gt;&lt;/div&gt;string GATE_ENTRANCE; GOODBYE_MSG; WELCOME_SCREEN;&amp;nbsp;&lt;span style=&quot;background-color: initial;&quot;&gt;MOVIE_SELECT;&amp;nbsp;&lt;/span&gt;MOVIE_CONFIRM; FLOOR_PLAN;&lt;br&gt;&lt;div&gt;&lt;span style=&quot;background-color: initial;&quot;&gt;SEAT_SELECT_CAT;&amp;nbsp;&lt;/span&gt;&lt;span style=&quot;background-color: initial;&quot;&gt;SEAT_EDIT;&amp;nbsp;&lt;/span&gt;&lt;span style=&quot;background-color: initial;&quot;&gt;&amp;nbsp;&lt;/span&gt;&lt;span style=&quot;background-color: initial;&quot;&gt;SEAT_MESSAGE;&amp;nbsp;&lt;/span&gt;&lt;span style=&quot;background-color: initial;&quot;&gt;ITEMS_CFMSG;&amp;nbsp;&lt;/span&gt;&lt;span style=&quot;background-color: initial;&quot;&gt;CASHIER;&amp;nbsp;&lt;/span&gt;&lt;span style=&quot;background-color: initial;&quot;&gt;MONEY_MESSAGE;&amp;nbsp;&lt;/span&gt;&lt;span style=&quot;background-color: initial;&quot;&gt;BUY_OR_GO;&amp;nbsp;&lt;/span&gt;&lt;span style=&quot;background-color: initial;&quot;&gt;GENRE_FILTER;&lt;/span&gt;&lt;/div&gt;&lt;div&gt;AGE_FILTER;&lt;span style=&quot;background-color: initial;&quot;&gt;&lt;br&gt;&lt;/span&gt;&lt;/div&gt;&lt;div&gt;&lt;div&gt;&lt;br&gt;&lt;/div&gt;&lt;div&gt;char AUTH_GATE_STATS; CMENU_CAT; MOVIE_CAT; MOVIE_ICONFIRM; SEAT_CAT;&amp;nbsp;&lt;span style=&quot;background-color: initial;&quot;&gt;SEAT_SELECT_CAT;&lt;/span&gt;&lt;span style=&quot;background-color: initial;&quot;&gt;&amp;nbsp;&lt;/span&gt;&lt;span style=&quot;background-color: initial;&quot;&gt;SEAT_SELECT_EDIT;&lt;/span&gt;&lt;/div&gt;&lt;div&gt;&lt;span style=&quot;background-color: initial;&quot;&gt;ITEMS_CFREPLY;&amp;nbsp;&lt;/span&gt;&lt;span style=&quot;background-color: initial;&quot;&gt;CASH_INPUT;&amp;nbsp;&lt;/span&gt;&lt;span style=&quot;background-color: initial;&quot;&gt;BG_CONFIRM;&amp;nbsp;&lt;/span&gt;&lt;span style=&quot;background-color: initial;&quot;&gt;GENRE_INPUT;&amp;nbsp;&lt;/span&gt;&lt;span style=&quot;background-color: initial;&quot;&gt;AGE_INPUT;&lt;/span&gt;&lt;/div&gt;&lt;div&gt;&lt;span style=&quot;background-color: initial;&quot;&gt;&lt;br&gt;&lt;/span&gt;&lt;/div&gt;&lt;div&gt;&lt;div&gt;&lt;br&gt;&lt;/div&gt;&lt;div&gt;string&amp;nbsp;&lt;span style=&quot;background-color: initial;&quot;&gt;MOVIE_POSTER_1;&amp;nbsp;&lt;/span&gt;&lt;span style=&quot;background-color: initial;&quot;&gt;MOVIE_POSTER_2;&amp;nbsp;&lt;/span&gt;&lt;span style=&quot;background-color: initial;&quot;&gt;MOVIE_POSTER_3;&lt;/span&gt;&lt;span style=&quot;background-color: initial;&quot;&gt;&amp;nbsp;&amp;nbsp;&lt;/span&gt;&lt;/div&gt;&lt;div&gt;&lt;div&gt;&lt;br&gt;&lt;/div&gt;&lt;div&gt;int MOVIE_ISELECT;&amp;nbsp;&lt;span style=&quot;background-color: initial;&quot;&gt;SEAT_STATUS;&lt;/span&gt;&lt;/div&gt;&lt;/div&gt;&lt;/div&gt;&lt;/div&gt;&lt;div&gt;&lt;span style=&quot;background-color: initial;&quot;&gt;&lt;br&gt;&lt;/span&gt;&lt;/div&gt;&lt;div&gt;&lt;span style=&quot;background-color: initial;&quot;&gt;float&amp;nbsp;&lt;/span&gt;&lt;span style=&quot;background-color: initial;&quot;&gt;AMOUNT_CASH;&amp;nbsp;&lt;/span&gt;&lt;span style=&quot;background-color: initial;&quot;&gt;CASH_OUTPUT;&lt;/span&gt;&lt;/div&gt;" style="shape=hexagon;perimeter=hexagonPerimeter2;whiteSpace=wrap;html=1;fixedSize=1;fontStyle=0" parent="1" vertex="1">
          <mxGeometry x="20" y="-969.86" width="810" height="270" as="geometry" />
        </mxCell>
        <mxCell id="0tWUjPhN8xBiFnFYTwJi-20" style="edgeStyle=orthogonalEdgeStyle;rounded=0;orthogonalLoop=1;jettySize=auto;html=1;exitX=0.5;exitY=1;exitDx=0;exitDy=0;entryX=0.5;entryY=0;entryDx=0;entryDy=0;fontStyle=0" parent="1" source="Ll0FbNr0BLSHcaz0i3VG-4" target="Ll0FbNr0BLSHcaz0i3VG-2" edge="1">
          <mxGeometry relative="1" as="geometry" />
        </mxCell>
        <mxCell id="Ll0FbNr0BLSHcaz0i3VG-4" value="INPUT&lt;div&gt;&lt;span style=&quot;background-color: initial;&quot;&gt;&lt;br&gt;&lt;/span&gt;&lt;/div&gt;&lt;div&gt;AUTH_GATE_STATS&lt;/div&gt;" style="shape=parallelogram;perimeter=parallelogramPerimeter;whiteSpace=wrap;html=1;fixedSize=1;fontStyle=0" parent="1" vertex="1">
          <mxGeometry x="350" y="-580" width="150" height="60" as="geometry" />
        </mxCell>
        <mxCell id="iaxnD8F6SxANwpRCkQcq-5" value="END" style="ellipse;whiteSpace=wrap;html=1;fontStyle=0" parent="1" vertex="1">
          <mxGeometry x="220" y="-107.49" width="150" height="80" as="geometry" />
        </mxCell>
        <mxCell id="iaxnD8F6SxANwpRCkQcq-8" value="" style="edgeStyle=orthogonalEdgeStyle;rounded=0;orthogonalLoop=1;jettySize=auto;html=1;fontStyle=0" parent="1" source="iaxnD8F6SxANwpRCkQcq-6" target="Ll0FbNr0BLSHcaz0i3VG-4" edge="1">
          <mxGeometry relative="1" as="geometry" />
        </mxCell>
        <mxCell id="iaxnD8F6SxANwpRCkQcq-6" value="OUTPUT&lt;div&gt;&lt;span style=&quot;background-color: initial;&quot;&gt;&lt;br&gt;&lt;/span&gt;&lt;/div&gt;&lt;div&gt;GATE_ENTRANCE&lt;/div&gt;" style="shape=parallelogram;perimeter=parallelogramPerimeter;whiteSpace=wrap;html=1;fixedSize=1;fontStyle=0" parent="1" vertex="1">
          <mxGeometry x="350" y="-669.74" width="150" height="60" as="geometry" />
        </mxCell>
        <mxCell id="0tWUjPhN8xBiFnFYTwJi-13" value="N" style="edgeStyle=orthogonalEdgeStyle;rounded=0;orthogonalLoop=1;jettySize=auto;html=1;exitX=0.5;exitY=1;exitDx=0;exitDy=0;entryX=0.5;entryY=0;entryDx=0;entryDy=0;fontStyle=0" parent="1" source="iaxnD8F6SxANwpRCkQcq-9" target="iaxnD8F6SxANwpRCkQcq-5" edge="1">
          <mxGeometry relative="1" as="geometry">
            <mxPoint x="470.00000000000045" y="532.51" as="targetPoint" />
          </mxGeometry>
        </mxCell>
        <mxCell id="0tWUjPhN8xBiFnFYTwJi-19" value="ERROR" style="edgeStyle=orthogonalEdgeStyle;rounded=0;orthogonalLoop=1;jettySize=auto;html=1;exitX=0;exitY=0.5;exitDx=0;exitDy=0;entryX=0;entryY=0.5;entryDx=0;entryDy=0;fontStyle=0" parent="1" source="iaxnD8F6SxANwpRCkQcq-9" target="Ll0FbNr0BLSHcaz0i3VG-4" edge="1">
          <mxGeometry x="-0.0003" relative="1" as="geometry">
            <Array as="points">
              <mxPoint x="150" y="-372" />
              <mxPoint x="150" y="-550" />
            </Array>
            <mxPoint as="offset" />
          </mxGeometry>
        </mxCell>
        <mxCell id="iaxnD8F6SxANwpRCkQcq-9" value="AUTH_GATE_STATS" style="rhombus;whiteSpace=wrap;html=1;fontStyle=0" parent="1" vertex="1">
          <mxGeometry x="220" y="-447.49" width="150" height="150" as="geometry" />
        </mxCell>
        <mxCell id="0tWUjPhN8xBiFnFYTwJi-15" value="" style="shape=waypoint;sketch=0;size=6;pointerEvents=1;points=[];fillColor=#60a917;resizable=0;rotatable=0;perimeter=centerPerimeter;snapToPoint=1;fontColor=#ffffff;strokeColor=#2D7600;fontStyle=0" parent="1" vertex="1">
          <mxGeometry x="480" y="-382.49" width="20" height="20" as="geometry" />
        </mxCell>
        <mxCell id="fk4BfuyukFRPb7nqBHwW-46" value="MAIN GATE" style="text;html=1;align=center;verticalAlign=middle;resizable=0;points=[];autosize=1;strokeColor=none;fillColor=none;fontStyle=0" parent="1" vertex="1">
          <mxGeometry x="735" y="-1070" width="90" height="30" as="geometry" />
        </mxCell>
        <mxCell id="fk4BfuyukFRPb7nqBHwW-47" value="CINEMA MENU" style="text;html=1;align=center;verticalAlign=middle;resizable=0;points=[];autosize=1;strokeColor=none;fillColor=none;fontStyle=0" parent="1" vertex="1">
          <mxGeometry x="1560" y="-1070" width="110" height="30" as="geometry" />
        </mxCell>
        <mxCell id="fk4BfuyukFRPb7nqBHwW-68" value="E" style="edgeStyle=orthogonalEdgeStyle;rounded=0;orthogonalLoop=1;jettySize=auto;html=1;fillColor=#e51400;strokeColor=#B20000;fontStyle=0;entryX=0.25;entryY=0;entryDx=0;entryDy=0;" parent="1" source="fk4BfuyukFRPb7nqBHwW-65" target="fk4BfuyukFRPb7nqBHwW-66" edge="1">
          <mxGeometry relative="1" as="geometry">
            <Array as="points">
              <mxPoint x="453" y="-185" />
            </Array>
          </mxGeometry>
        </mxCell>
        <mxCell id="fk4BfuyukFRPb7nqBHwW-65" value="" style="shape=waypoint;sketch=0;size=6;pointerEvents=1;points=[];fillColor=#e51400;resizable=0;rotatable=0;perimeter=centerPerimeter;snapToPoint=1;fontColor=#ffffff;strokeColor=#B20000;fontStyle=0" parent="1" vertex="1">
          <mxGeometry x="573" y="-195" width="20" height="20" as="geometry" />
        </mxCell>
        <mxCell id="sRZMo3yO5PueX6pyic4d-1" style="edgeStyle=orthogonalEdgeStyle;rounded=0;orthogonalLoop=1;jettySize=auto;html=1;exitX=0;exitY=0.5;exitDx=0;exitDy=0;entryX=1;entryY=0.5;entryDx=0;entryDy=0;" parent="1" source="fk4BfuyukFRPb7nqBHwW-66" target="iaxnD8F6SxANwpRCkQcq-5" edge="1">
          <mxGeometry relative="1" as="geometry" />
        </mxCell>
        <mxCell id="fk4BfuyukFRPb7nqBHwW-66" value="OUTPUT&lt;div&gt;&lt;span style=&quot;background-color: initial;&quot;&gt;&lt;br&gt;&lt;/span&gt;&lt;/div&gt;&lt;div&gt;GOODBYE_MSG&lt;/div&gt;" style="shape=parallelogram;perimeter=parallelogramPerimeter;whiteSpace=wrap;html=1;fixedSize=1;fontStyle=0" parent="1" vertex="1">
          <mxGeometry x="415" y="-97.49000000000001" width="150" height="60" as="geometry" />
        </mxCell>
        <mxCell id="fk4BfuyukFRPb7nqBHwW-89" value="MOVIE_HUB" style="text;html=1;align=center;verticalAlign=middle;resizable=0;points=[];autosize=1;strokeColor=none;fillColor=none;fontStyle=0" parent="1" vertex="1">
          <mxGeometry x="2410" y="-1070" width="90" height="30" as="geometry" />
        </mxCell>
        <mxCell id="fk4BfuyukFRPb7nqBHwW-123" value="" style="rounded=0;whiteSpace=wrap;html=1;fillColor=#60a917;fontColor=#ffffff;strokeColor=#2D7600;opacity=15;fontStyle=0" parent="1" vertex="1">
          <mxGeometry x="2030" y="-188" width="390" height="150" as="geometry" />
        </mxCell>
        <mxCell id="fk4BfuyukFRPb7nqBHwW-53" value="" style="edgeStyle=orthogonalEdgeStyle;rounded=0;orthogonalLoop=1;jettySize=auto;html=1;fillColor=#0050ef;strokeColor=#001DBC;fontStyle=0;entryX=0.5;entryY=0;entryDx=0;entryDy=0;" parent="1" source="fk4BfuyukFRPb7nqBHwW-48" target="jepS8LiPJiyBPYWLw1s4-186" edge="1">
          <mxGeometry relative="1" as="geometry">
            <mxPoint x="2105" y="-1016.25" as="targetPoint" />
          </mxGeometry>
        </mxCell>
        <mxCell id="jepS8LiPJiyBPYWLw1s4-447" style="edgeStyle=orthogonalEdgeStyle;rounded=0;orthogonalLoop=1;jettySize=auto;html=1;entryX=0.5;entryY=0;entryDx=0;entryDy=0;fillColor=#0050ef;strokeColor=#001DBC;" parent="1" source="fk4BfuyukFRPb7nqBHwW-48" target="jepS8LiPJiyBPYWLw1s4-187" edge="1">
          <mxGeometry relative="1" as="geometry" />
        </mxCell>
        <mxCell id="jepS8LiPJiyBPYWLw1s4-448" style="edgeStyle=orthogonalEdgeStyle;rounded=0;orthogonalLoop=1;jettySize=auto;html=1;entryX=0.5;entryY=0;entryDx=0;entryDy=0;fillColor=#0050ef;strokeColor=#001DBC;" parent="1" source="fk4BfuyukFRPb7nqBHwW-48" target="jepS8LiPJiyBPYWLw1s4-188" edge="1">
          <mxGeometry relative="1" as="geometry" />
        </mxCell>
        <mxCell id="fk4BfuyukFRPb7nqBHwW-48" value="" style="shape=waypoint;sketch=0;size=6;pointerEvents=1;points=[];fillColor=#0050ef;resizable=0;rotatable=0;perimeter=centerPerimeter;snapToPoint=1;fontColor=#ffffff;strokeColor=#001DBC;fontStyle=0" parent="1" vertex="1">
          <mxGeometry x="2190" y="-1036" width="20" height="20" as="geometry" />
        </mxCell>
        <mxCell id="fk4BfuyukFRPb7nqBHwW-79" style="edgeStyle=orthogonalEdgeStyle;rounded=0;orthogonalLoop=1;jettySize=auto;html=1;exitX=0.5;exitY=1;exitDx=0;exitDy=0;entryX=0.5;entryY=0;entryDx=0;entryDy=0;fontStyle=0" parent="1" source="fk4BfuyukFRPb7nqBHwW-73" target="fk4BfuyukFRPb7nqBHwW-76" edge="1">
          <mxGeometry relative="1" as="geometry" />
        </mxCell>
        <mxCell id="fk4BfuyukFRPb7nqBHwW-73" value="INPUT&lt;div&gt;&lt;br&gt;&lt;/div&gt;&lt;div&gt;MOVIE_CAT&lt;/div&gt;" style="shape=parallelogram;perimeter=parallelogramPerimeter;whiteSpace=wrap;html=1;fixedSize=1;strokeColor=#FFFFFF;fontStyle=0" parent="1" vertex="1">
          <mxGeometry x="2030" y="-769.74" width="150" height="60" as="geometry" />
        </mxCell>
        <mxCell id="fk4BfuyukFRPb7nqBHwW-80" style="edgeStyle=orthogonalEdgeStyle;rounded=0;orthogonalLoop=1;jettySize=auto;html=1;exitX=0.5;exitY=1;exitDx=0;exitDy=0;entryX=0.5;entryY=0;entryDx=0;entryDy=0;fontStyle=0" parent="1" source="fk4BfuyukFRPb7nqBHwW-76" target="fk4BfuyukFRPb7nqBHwW-77" edge="1">
          <mxGeometry relative="1" as="geometry" />
        </mxCell>
        <mxCell id="fk4BfuyukFRPb7nqBHwW-86" value="S" style="edgeStyle=orthogonalEdgeStyle;rounded=0;orthogonalLoop=1;jettySize=auto;html=1;fillColor=#e3c800;strokeColor=#B09500;fontStyle=0" parent="1" source="fk4BfuyukFRPb7nqBHwW-76" target="fk4BfuyukFRPb7nqBHwW-137" edge="1">
          <mxGeometry relative="1" as="geometry">
            <mxPoint x="2280" y="-611" as="targetPoint" />
          </mxGeometry>
        </mxCell>
        <mxCell id="fk4BfuyukFRPb7nqBHwW-76" value="MOVIE_CAT" style="rhombus;whiteSpace=wrap;html=1;fontStyle=0" parent="1" vertex="1">
          <mxGeometry x="2030" y="-686" width="150" height="150" as="geometry" />
        </mxCell>
        <mxCell id="fk4BfuyukFRPb7nqBHwW-81" style="edgeStyle=orthogonalEdgeStyle;rounded=0;orthogonalLoop=1;jettySize=auto;html=1;exitX=0.5;exitY=1;exitDx=0;exitDy=0;entryX=0.5;entryY=0;entryDx=0;entryDy=0;fontStyle=0" parent="1" target="fk4BfuyukFRPb7nqBHwW-78" edge="1">
          <mxGeometry relative="1" as="geometry">
            <mxPoint x="2105" y="-374.2399999999999" as="sourcePoint" />
          </mxGeometry>
        </mxCell>
        <mxCell id="fk4BfuyukFRPb7nqBHwW-87" value="G" style="edgeStyle=orthogonalEdgeStyle;rounded=0;orthogonalLoop=1;jettySize=auto;html=1;exitX=1;exitY=0.5;exitDx=0;exitDy=0;fillColor=#6a00ff;strokeColor=#3700CC;fontStyle=0" parent="1" source="fk4BfuyukFRPb7nqBHwW-77" target="jepS8LiPJiyBPYWLw1s4-113" edge="1">
          <mxGeometry relative="1" as="geometry">
            <mxPoint x="2270" y="-445.25" as="targetPoint" />
          </mxGeometry>
        </mxCell>
        <mxCell id="fk4BfuyukFRPb7nqBHwW-77" value="MOVIE_CAT" style="rhombus;whiteSpace=wrap;html=1;fontStyle=0" parent="1" vertex="1">
          <mxGeometry x="2030" y="-520.5" width="150" height="150" as="geometry" />
        </mxCell>
        <mxCell id="fk4BfuyukFRPb7nqBHwW-88" value="A" style="edgeStyle=orthogonalEdgeStyle;rounded=0;orthogonalLoop=1;jettySize=auto;html=1;exitX=1;exitY=0.5;exitDx=0;exitDy=0;entryX=1.24;entryY=0.783;entryDx=0;entryDy=0;entryPerimeter=0;strokeColor=#99004D;fontStyle=0" parent="1" source="fk4BfuyukFRPb7nqBHwW-78" target="jepS8LiPJiyBPYWLw1s4-114" edge="1">
          <mxGeometry relative="1" as="geometry">
            <mxPoint x="2280" y="-280" as="targetPoint" />
          </mxGeometry>
        </mxCell>
        <mxCell id="fk4BfuyukFRPb7nqBHwW-112" style="edgeStyle=orthogonalEdgeStyle;rounded=0;orthogonalLoop=1;jettySize=auto;html=1;exitX=0.5;exitY=1;exitDx=0;exitDy=0;entryX=0.5;entryY=0;entryDx=0;entryDy=0;fontStyle=0" parent="1" source="fk4BfuyukFRPb7nqBHwW-78" target="fk4BfuyukFRPb7nqBHwW-111" edge="1">
          <mxGeometry relative="1" as="geometry">
            <mxPoint x="2105" y="-193.87" as="targetPoint" />
          </mxGeometry>
        </mxCell>
        <mxCell id="fk4BfuyukFRPb7nqBHwW-78" value="MOVIE_CAT" style="rhombus;whiteSpace=wrap;html=1;fontStyle=0" parent="1" vertex="1">
          <mxGeometry x="2030" y="-355" width="150" height="150" as="geometry" />
        </mxCell>
        <mxCell id="fk4BfuyukFRPb7nqBHwW-113" value="DEFAULT" style="edgeStyle=orthogonalEdgeStyle;rounded=0;orthogonalLoop=1;jettySize=auto;html=1;exitX=0.5;exitY=1;exitDx=0;exitDy=0;entryX=0.75;entryY=1;entryDx=0;entryDy=0;fontStyle=0" parent="1" source="fk4BfuyukFRPb7nqBHwW-111" target="fk4BfuyukFRPb7nqBHwW-114" edge="1">
          <mxGeometry relative="1" as="geometry">
            <mxPoint x="1890" y="-377" as="targetPoint" />
            <Array as="points">
              <mxPoint x="2105" y="-30" />
              <mxPoint x="1933" y="-30" />
            </Array>
          </mxGeometry>
        </mxCell>
        <mxCell id="fk4BfuyukFRPb7nqBHwW-111" value="MOVIE_CAT" style="rhombus;whiteSpace=wrap;html=1;fontStyle=0" parent="1" vertex="1">
          <mxGeometry x="2030" y="-188" width="150" height="150" as="geometry" />
        </mxCell>
        <mxCell id="fk4BfuyukFRPb7nqBHwW-115" style="edgeStyle=orthogonalEdgeStyle;rounded=0;orthogonalLoop=1;jettySize=auto;html=1;exitX=0.5;exitY=0;exitDx=0;exitDy=0;fontStyle=0;entryX=0;entryY=0.5;entryDx=0;entryDy=0;" parent="1" source="fk4BfuyukFRPb7nqBHwW-114" target="jepS8LiPJiyBPYWLw1s4-441" edge="1">
          <mxGeometry relative="1" as="geometry">
            <Array as="points">
              <mxPoint x="1895" y="-825" />
              <mxPoint x="2040" y="-825" />
            </Array>
            <mxPoint x="1940" y="-940" as="targetPoint" />
          </mxGeometry>
        </mxCell>
        <mxCell id="sRZMo3yO5PueX6pyic4d-5" style="edgeStyle=orthogonalEdgeStyle;rounded=0;orthogonalLoop=1;jettySize=auto;html=1;exitX=0.25;exitY=0;exitDx=0;exitDy=0;entryX=0.25;entryY=0;entryDx=0;entryDy=0;fillColor=#0050ef;strokeColor=#001DBC;" parent="1" source="fk4BfuyukFRPb7nqBHwW-114" target="jepS8LiPJiyBPYWLw1s4-186" edge="1">
          <mxGeometry relative="1" as="geometry">
            <mxPoint x="1858" y="-1080" as="targetPoint" />
          </mxGeometry>
        </mxCell>
        <mxCell id="sRZMo3yO5PueX6pyic4d-8" style="edgeStyle=orthogonalEdgeStyle;rounded=0;orthogonalLoop=1;jettySize=auto;html=1;exitX=0.25;exitY=0;exitDx=0;exitDy=0;entryX=0.25;entryY=0;entryDx=0;entryDy=0;fillColor=#0050ef;strokeColor=#001DBC;" parent="1" source="fk4BfuyukFRPb7nqBHwW-114" target="jepS8LiPJiyBPYWLw1s4-187" edge="1">
          <mxGeometry relative="1" as="geometry" />
        </mxCell>
        <mxCell id="sRZMo3yO5PueX6pyic4d-9" style="edgeStyle=orthogonalEdgeStyle;rounded=0;orthogonalLoop=1;jettySize=auto;html=1;exitX=0.25;exitY=0;exitDx=0;exitDy=0;entryX=0.25;entryY=0;entryDx=0;entryDy=0;fillColor=#0050ef;strokeColor=#001DBC;" parent="1" source="fk4BfuyukFRPb7nqBHwW-114" target="jepS8LiPJiyBPYWLw1s4-188" edge="1">
          <mxGeometry relative="1" as="geometry" />
        </mxCell>
        <mxCell id="fk4BfuyukFRPb7nqBHwW-114" value="&lt;span style=&quot;font-weight: normal;&quot;&gt;CLEAR_SCREEN&lt;/span&gt;" style="rounded=0;whiteSpace=wrap;html=1;fontStyle=1" parent="1" vertex="1">
          <mxGeometry x="1820" y="-557.75" width="150" height="60" as="geometry" />
        </mxCell>
        <mxCell id="fk4BfuyukFRPb7nqBHwW-121" value="" style="shape=waypoint;sketch=0;size=6;pointerEvents=1;points=[];fillColor=#60a917;resizable=0;rotatable=0;perimeter=centerPerimeter;snapToPoint=1;fontColor=#ffffff;strokeColor=#2D7600;fontStyle=0" parent="1" vertex="1">
          <mxGeometry x="2335" y="-123" width="20" height="20" as="geometry" />
        </mxCell>
        <mxCell id="fk4BfuyukFRPb7nqBHwW-122" value="B" style="edgeStyle=orthogonalEdgeStyle;rounded=0;orthogonalLoop=1;jettySize=auto;html=1;exitX=1;exitY=0.5;exitDx=0;exitDy=0;entryX=0.479;entryY=0.886;entryDx=0;entryDy=0;entryPerimeter=0;fillColor=#60a917;strokeColor=#2D7600;fontStyle=0" parent="1" source="fk4BfuyukFRPb7nqBHwW-111" target="fk4BfuyukFRPb7nqBHwW-121" edge="1">
          <mxGeometry relative="1" as="geometry" />
        </mxCell>
        <mxCell id="fk4BfuyukFRPb7nqBHwW-128" value="BACK / UNDO" style="text;html=1;align=center;verticalAlign=middle;whiteSpace=wrap;rounded=0;fontStyle=0" parent="1" vertex="1">
          <mxGeometry x="2180" y="-166" width="237" height="30" as="geometry" />
        </mxCell>
        <mxCell id="fk4BfuyukFRPb7nqBHwW-135" value="Y" style="edgeStyle=orthogonalEdgeStyle;rounded=0;orthogonalLoop=1;jettySize=auto;html=1;exitX=1;exitY=0.5;exitDx=0;exitDy=0;entryX=0.763;entryY=0.586;entryDx=0;entryDy=0;entryPerimeter=0;fillColor=#60a917;strokeColor=#2D7600;fontStyle=0" parent="1" source="iaxnD8F6SxANwpRCkQcq-9" target="0tWUjPhN8xBiFnFYTwJi-15" edge="1">
          <mxGeometry relative="1" as="geometry" />
        </mxCell>
        <mxCell id="fk4BfuyukFRPb7nqBHwW-137" value="" style="shape=waypoint;sketch=0;size=6;pointerEvents=1;points=[];fillColor=#e3c800;resizable=0;rotatable=0;perimeter=centerPerimeter;snapToPoint=1;strokeColor=#B09500;fontColor=#000000;fontStyle=0" parent="1" vertex="1">
          <mxGeometry x="2350" y="-621" width="20" height="20" as="geometry" />
        </mxCell>
        <mxCell id="fk4BfuyukFRPb7nqBHwW-139" value="GENRE FILTER" style="text;html=1;align=center;verticalAlign=middle;resizable=0;points=[];autosize=1;strokeColor=none;fillColor=none;fontStyle=0" parent="1" vertex="1">
          <mxGeometry x="2210" y="-502" width="110" height="30" as="geometry" />
        </mxCell>
        <mxCell id="fk4BfuyukFRPb7nqBHwW-140" value="AGE FILTER" style="text;html=1;align=center;verticalAlign=middle;resizable=0;points=[];autosize=1;strokeColor=none;fillColor=none;fontStyle=0" parent="1" vertex="1">
          <mxGeometry x="2220" y="-343.75" width="90" height="30" as="geometry" />
        </mxCell>
        <mxCell id="fk4BfuyukFRPb7nqBHwW-141" value="MOVIE SELECT" style="text;html=1;align=center;verticalAlign=middle;resizable=0;points=[];autosize=1;strokeColor=none;fillColor=none;fontStyle=0" parent="1" vertex="1">
          <mxGeometry x="2205" y="-671.75" width="110" height="30" as="geometry" />
        </mxCell>
        <mxCell id="fk4BfuyukFRPb7nqBHwW-153" value="MOVIE SELECTION" style="text;html=1;align=center;verticalAlign=middle;resizable=0;points=[];autosize=1;strokeColor=none;fillColor=none;fontStyle=0" parent="1" vertex="1">
          <mxGeometry x="3240" y="-1070" width="130" height="30" as="geometry" />
        </mxCell>
        <mxCell id="fk4BfuyukFRPb7nqBHwW-198" value="MOVIE CONFIRM" style="text;html=1;align=center;verticalAlign=middle;resizable=0;points=[];autosize=1;strokeColor=none;fillColor=none;fontStyle=0" parent="1" vertex="1">
          <mxGeometry x="4085" y="-1070" width="120" height="30" as="geometry" />
        </mxCell>
        <mxCell id="fk4BfuyukFRPb7nqBHwW-50" value="" style="rounded=0;whiteSpace=wrap;html=1;fillColor=#a20025;fontColor=#ffffff;strokeColor=#6F0000;opacity=15;glass=0;fontStyle=0" parent="1" vertex="1">
          <mxGeometry x="1129" y="-439.5" width="390" height="150" as="geometry" />
        </mxCell>
        <mxCell id="fk4BfuyukFRPb7nqBHwW-49" value="" style="rounded=0;whiteSpace=wrap;html=1;fillColor=#0050ef;fontColor=#ffffff;strokeColor=#001DBC;opacity=15;fontStyle=0" parent="1" vertex="1">
          <mxGeometry x="1129" y="-639.5" width="390" height="150" as="geometry" />
        </mxCell>
        <mxCell id="fk4BfuyukFRPb7nqBHwW-31" style="edgeStyle=orthogonalEdgeStyle;rounded=0;orthogonalLoop=1;jettySize=auto;html=1;entryX=0.5;entryY=0;entryDx=0;entryDy=0;fillColor=#60a917;strokeColor=#2D7600;fontStyle=0" parent="1" source="crYka2N7SXxKaLOjOpeC-2" target="crYka2N7SXxKaLOjOpeC-4" edge="1">
          <mxGeometry relative="1" as="geometry" />
        </mxCell>
        <mxCell id="crYka2N7SXxKaLOjOpeC-2" value="" style="shape=waypoint;sketch=0;size=6;pointerEvents=1;points=[];fillColor=#60a917;resizable=0;rotatable=0;perimeter=centerPerimeter;snapToPoint=1;fontColor=#ffffff;strokeColor=#2D7600;fontStyle=0" parent="1" vertex="1">
          <mxGeometry x="1202" y="-947" width="20" height="20" as="geometry" />
        </mxCell>
        <mxCell id="fk4BfuyukFRPb7nqBHwW-21" style="edgeStyle=orthogonalEdgeStyle;rounded=0;orthogonalLoop=1;jettySize=auto;html=1;exitX=0.5;exitY=1;exitDx=0;exitDy=0;entryX=0.5;entryY=0;entryDx=0;entryDy=0;fontStyle=0" parent="1" source="crYka2N7SXxKaLOjOpeC-4" target="crYka2N7SXxKaLOjOpeC-6" edge="1">
          <mxGeometry relative="1" as="geometry" />
        </mxCell>
        <mxCell id="crYka2N7SXxKaLOjOpeC-4" value="OUTPUT&lt;div&gt;&lt;br&gt;&lt;/div&gt;&lt;div&gt;WELCOME_SCREEN&lt;/div&gt;" style="shape=parallelogram;perimeter=parallelogramPerimeter;whiteSpace=wrap;html=1;fixedSize=1;fontStyle=0" parent="1" vertex="1">
          <mxGeometry x="1137" y="-879.5" width="150" height="60" as="geometry" />
        </mxCell>
        <mxCell id="fk4BfuyukFRPb7nqBHwW-4" value="" style="edgeStyle=orthogonalEdgeStyle;rounded=0;orthogonalLoop=1;jettySize=auto;html=1;fontStyle=0" parent="1" source="crYka2N7SXxKaLOjOpeC-6" target="crYka2N7SXxKaLOjOpeC-7" edge="1">
          <mxGeometry relative="1" as="geometry" />
        </mxCell>
        <mxCell id="crYka2N7SXxKaLOjOpeC-6" value="INPUT&lt;div&gt;&lt;br&gt;&lt;/div&gt;&lt;div&gt;CMENU_CAT&lt;/div&gt;" style="shape=parallelogram;perimeter=parallelogramPerimeter;whiteSpace=wrap;html=1;fixedSize=1;strokeColor=#FFFFFF;fontStyle=0" parent="1" vertex="1">
          <mxGeometry x="1137" y="-759.5" width="150" height="60" as="geometry" />
        </mxCell>
        <mxCell id="fk4BfuyukFRPb7nqBHwW-5" value="" style="edgeStyle=orthogonalEdgeStyle;rounded=0;orthogonalLoop=1;jettySize=auto;html=1;fontStyle=0" parent="1" source="crYka2N7SXxKaLOjOpeC-7" target="crYka2N7SXxKaLOjOpeC-8" edge="1">
          <mxGeometry relative="1" as="geometry" />
        </mxCell>
        <mxCell id="fk4BfuyukFRPb7nqBHwW-42" value="S" style="edgeStyle=orthogonalEdgeStyle;rounded=0;orthogonalLoop=1;jettySize=auto;html=1;fillColor=#0050ef;strokeColor=#001DBC;fontStyle=0" parent="1" source="crYka2N7SXxKaLOjOpeC-7" target="fk4BfuyukFRPb7nqBHwW-41" edge="1">
          <mxGeometry relative="1" as="geometry" />
        </mxCell>
        <mxCell id="crYka2N7SXxKaLOjOpeC-7" value="CMENU_CAT" style="rhombus;whiteSpace=wrap;html=1;fontStyle=0" parent="1" vertex="1">
          <mxGeometry x="1137" y="-639.5" width="150" height="150" as="geometry" />
        </mxCell>
        <mxCell id="fk4BfuyukFRPb7nqBHwW-6" value="" style="edgeStyle=orthogonalEdgeStyle;rounded=0;orthogonalLoop=1;jettySize=auto;html=1;entryX=0.5;entryY=0;entryDx=0;entryDy=0;fontStyle=0" parent="1" source="crYka2N7SXxKaLOjOpeC-8" target="fk4BfuyukFRPb7nqBHwW-237" edge="1">
          <mxGeometry relative="1" as="geometry">
            <mxPoint x="1212" y="-182" as="targetPoint" />
          </mxGeometry>
        </mxCell>
        <mxCell id="fk4BfuyukFRPb7nqBHwW-107" value="DEFAULT" style="edgeLabel;html=1;align=center;verticalAlign=middle;resizable=0;points=[];fontStyle=0" parent="fk4BfuyukFRPb7nqBHwW-6" vertex="1" connectable="0">
          <mxGeometry x="-0.1279" y="5" relative="1" as="geometry">
            <mxPoint as="offset" />
          </mxGeometry>
        </mxCell>
        <mxCell id="fk4BfuyukFRPb7nqBHwW-45" value="E" style="edgeStyle=orthogonalEdgeStyle;rounded=0;orthogonalLoop=1;jettySize=auto;html=1;fillColor=#e51400;strokeColor=#B20000;fontStyle=0" parent="1" source="crYka2N7SXxKaLOjOpeC-8" target="fk4BfuyukFRPb7nqBHwW-43" edge="1">
          <mxGeometry relative="1" as="geometry" />
        </mxCell>
        <mxCell id="crYka2N7SXxKaLOjOpeC-8" value="CMENU_CAT" style="rhombus;whiteSpace=wrap;html=1;fontStyle=0" parent="1" vertex="1">
          <mxGeometry x="1137" y="-439.5" width="150" height="150" as="geometry" />
        </mxCell>
        <mxCell id="fk4BfuyukFRPb7nqBHwW-27" value="MOVIE POSTER" style="text;html=1;align=center;verticalAlign=middle;whiteSpace=wrap;rounded=0;fontStyle=0" parent="1" vertex="1">
          <mxGeometry x="1292" y="-618" width="217" height="30" as="geometry" />
        </mxCell>
        <mxCell id="fk4BfuyukFRPb7nqBHwW-29" value="EXIT" style="text;html=1;align=center;verticalAlign=middle;whiteSpace=wrap;rounded=0;fontStyle=0" parent="1" vertex="1">
          <mxGeometry x="1282" y="-428" width="237" height="30" as="geometry" />
        </mxCell>
        <mxCell id="fk4BfuyukFRPb7nqBHwW-41" value="" style="shape=waypoint;sketch=0;size=6;pointerEvents=1;points=[];fillColor=#0050ef;resizable=0;rotatable=0;perimeter=centerPerimeter;snapToPoint=1;fontColor=#ffffff;strokeColor=#001DBC;fontStyle=0" parent="1" vertex="1">
          <mxGeometry x="1459" y="-574.5" width="20" height="20" as="geometry" />
        </mxCell>
        <mxCell id="fk4BfuyukFRPb7nqBHwW-43" value="" style="shape=waypoint;sketch=0;size=6;pointerEvents=1;points=[];fillColor=#e51400;resizable=0;rotatable=0;perimeter=centerPerimeter;snapToPoint=1;fontColor=#ffffff;strokeColor=#B20000;fontStyle=0" parent="1" vertex="1">
          <mxGeometry x="1459" y="-374.5" width="20" height="20" as="geometry" />
        </mxCell>
        <mxCell id="fk4BfuyukFRPb7nqBHwW-238" value="" style="edgeStyle=orthogonalEdgeStyle;rounded=0;orthogonalLoop=1;jettySize=auto;html=1;entryX=0;entryY=0.5;entryDx=0;entryDy=0;exitX=0;exitY=0.5;exitDx=0;exitDy=0;fontStyle=0" parent="1" source="fk4BfuyukFRPb7nqBHwW-237" target="crYka2N7SXxKaLOjOpeC-4" edge="1">
          <mxGeometry relative="1" as="geometry">
            <Array as="points">
              <mxPoint x="1031" y="-182" />
              <mxPoint x="1031" y="-849" />
            </Array>
          </mxGeometry>
        </mxCell>
        <mxCell id="fk4BfuyukFRPb7nqBHwW-237" value="&lt;span style=&quot;font-weight: normal;&quot;&gt;CLEAR_SCREEN&lt;/span&gt;" style="rounded=0;whiteSpace=wrap;html=1;fontStyle=1" parent="1" vertex="1">
          <mxGeometry x="1137" y="-212" width="150" height="60" as="geometry" />
        </mxCell>
        <mxCell id="fk4BfuyukFRPb7nqBHwW-242" value="B" style="edgeStyle=orthogonalEdgeStyle;rounded=0;orthogonalLoop=1;jettySize=auto;html=1;entryX=1;entryY=0.5;entryDx=0;entryDy=0;fillColor=#60a917;strokeColor=#2D7600;fontStyle=0" parent="1" source="fk4BfuyukFRPb7nqBHwW-241" target="fk4BfuyukFRPb7nqBHwW-237" edge="1">
          <mxGeometry relative="1" as="geometry">
            <mxPoint x="1287" y="-91.99999999999977" as="targetPoint" />
          </mxGeometry>
        </mxCell>
        <mxCell id="fk4BfuyukFRPb7nqBHwW-241" value="" style="shape=waypoint;sketch=0;size=6;pointerEvents=1;points=[];fillColor=#60a917;resizable=0;rotatable=0;perimeter=centerPerimeter;snapToPoint=1;fontColor=#ffffff;strokeColor=#2D7600;fontStyle=0" parent="1" vertex="1">
          <mxGeometry x="1459" y="-192" width="20" height="20" as="geometry" />
        </mxCell>
        <mxCell id="fk4BfuyukFRPb7nqBHwW-263" value="Y" style="edgeStyle=orthogonalEdgeStyle;rounded=0;orthogonalLoop=1;jettySize=auto;html=1;entryX=0.25;entryY=1;entryDx=0;entryDy=0;exitX=0.633;exitY=0.933;exitDx=0;exitDy=0;exitPerimeter=0;fillColor=#0050ef;strokeColor=#001DBC;fontStyle=0" parent="1" source="fk4BfuyukFRPb7nqBHwW-262" target="fk4BfuyukFRPb7nqBHwW-114" edge="1">
          <mxGeometry relative="1" as="geometry" />
        </mxCell>
        <mxCell id="fk4BfuyukFRPb7nqBHwW-262" value="" style="shape=waypoint;sketch=0;size=6;pointerEvents=1;points=[];fillColor=#0050ef;resizable=0;rotatable=0;perimeter=centerPerimeter;snapToPoint=1;fontColor=#ffffff;strokeColor=#001DBC;fontStyle=0" parent="1" vertex="1">
          <mxGeometry x="1760" y="-192" width="20" height="20" as="geometry" />
        </mxCell>
        <mxCell id="fk4BfuyukFRPb7nqBHwW-283" value="FLOOR PLAN" style="text;html=1;align=center;verticalAlign=middle;resizable=0;points=[];autosize=1;strokeColor=none;fillColor=none;fontStyle=0" parent="1" vertex="1">
          <mxGeometry x="4950" y="-1070" width="100" height="30" as="geometry" />
        </mxCell>
        <mxCell id="fk4BfuyukFRPb7nqBHwW-303" value="" style="rounded=0;whiteSpace=wrap;html=1;fillColor=#e3c800;opacity=15;strokeColor=#B09500;fontColor=#000000;fontStyle=0" parent="1" vertex="1">
          <mxGeometry x="4575" y="-493.5" width="390" height="150" as="geometry" />
        </mxCell>
        <mxCell id="fk4BfuyukFRPb7nqBHwW-287" style="edgeStyle=orthogonalEdgeStyle;rounded=0;orthogonalLoop=1;jettySize=auto;html=1;entryX=0.5;entryY=0;entryDx=0;entryDy=0;fillColor=#d80073;strokeColor=#A50040;fontStyle=0" parent="1" source="fk4BfuyukFRPb7nqBHwW-281" target="fk4BfuyukFRPb7nqBHwW-282" edge="1">
          <mxGeometry relative="1" as="geometry" />
        </mxCell>
        <mxCell id="fk4BfuyukFRPb7nqBHwW-281" value="" style="shape=waypoint;sketch=0;size=6;pointerEvents=1;points=[];fillColor=#d80073;resizable=0;rotatable=0;perimeter=centerPerimeter;snapToPoint=1;fontColor=#ffffff;strokeColor=#A50040;fontStyle=0" parent="1" vertex="1">
          <mxGeometry x="4640" y="-943" width="20" height="20" as="geometry" />
        </mxCell>
        <mxCell id="fk4BfuyukFRPb7nqBHwW-290" style="edgeStyle=orthogonalEdgeStyle;rounded=0;orthogonalLoop=1;jettySize=auto;html=1;exitX=0.5;exitY=1;exitDx=0;exitDy=0;entryX=0.5;entryY=0;entryDx=0;entryDy=0;fontStyle=0" parent="1" source="fk4BfuyukFRPb7nqBHwW-282" target="fk4BfuyukFRPb7nqBHwW-289" edge="1">
          <mxGeometry relative="1" as="geometry" />
        </mxCell>
        <mxCell id="fk4BfuyukFRPb7nqBHwW-282" value="OUTPUT&lt;div&gt;&lt;br&gt;&lt;/div&gt;&lt;div&gt;FLOOR_PLAN&lt;/div&gt;" style="shape=parallelogram;perimeter=parallelogramPerimeter;whiteSpace=wrap;html=1;fixedSize=1;fontStyle=0" parent="1" vertex="1">
          <mxGeometry x="4575" y="-890" width="150" height="59.25" as="geometry" />
        </mxCell>
        <mxCell id="fk4BfuyukFRPb7nqBHwW-299" style="edgeStyle=orthogonalEdgeStyle;rounded=0;orthogonalLoop=1;jettySize=auto;html=1;exitX=0.5;exitY=1;exitDx=0;exitDy=0;entryX=0.5;entryY=0;entryDx=0;entryDy=0;fontStyle=0" parent="1" source="fk4BfuyukFRPb7nqBHwW-289" target="fk4BfuyukFRPb7nqBHwW-292" edge="1">
          <mxGeometry relative="1" as="geometry" />
        </mxCell>
        <mxCell id="fk4BfuyukFRPb7nqBHwW-289" value="INPUT&lt;div&gt;&lt;br&gt;&lt;/div&gt;&lt;div&gt;SEAT_CAT&lt;/div&gt;" style="shape=parallelogram;perimeter=parallelogramPerimeter;whiteSpace=wrap;html=1;fixedSize=1;strokeColor=#FFFFFF;fontStyle=0" parent="1" vertex="1">
          <mxGeometry x="4575" y="-799.25" width="150" height="60" as="geometry" />
        </mxCell>
        <mxCell id="fk4BfuyukFRPb7nqBHwW-300" style="edgeStyle=orthogonalEdgeStyle;rounded=0;orthogonalLoop=1;jettySize=auto;html=1;exitX=0.5;exitY=1;exitDx=0;exitDy=0;fontStyle=0" parent="1" source="fk4BfuyukFRPb7nqBHwW-292" target="fk4BfuyukFRPb7nqBHwW-295" edge="1">
          <mxGeometry relative="1" as="geometry" />
        </mxCell>
        <mxCell id="fk4BfuyukFRPb7nqBHwW-292" value="SEAT_CAT" style="rhombus;whiteSpace=wrap;html=1;fontStyle=0" parent="1" vertex="1">
          <mxGeometry x="4575" y="-693.5" width="150" height="150" as="geometry" />
        </mxCell>
        <mxCell id="fk4BfuyukFRPb7nqBHwW-298" value="DEFAULT" style="edgeStyle=orthogonalEdgeStyle;rounded=0;orthogonalLoop=1;jettySize=auto;html=1;exitX=0.5;exitY=1;exitDx=0;exitDy=0;entryX=0.5;entryY=1;entryDx=0;entryDy=0;fontStyle=0" parent="1" source="fk4BfuyukFRPb7nqBHwW-295" target="fk4BfuyukFRPb7nqBHwW-296" edge="1">
          <mxGeometry relative="1" as="geometry">
            <Array as="points">
              <mxPoint x="4650" y="-157.25" />
              <mxPoint x="4460" y="-157.25" />
            </Array>
          </mxGeometry>
        </mxCell>
        <mxCell id="fk4BfuyukFRPb7nqBHwW-295" value="SEAT_CAT" style="rhombus;whiteSpace=wrap;html=1;fontStyle=0" parent="1" vertex="1">
          <mxGeometry x="4575" y="-495" width="150" height="150" as="geometry" />
        </mxCell>
        <mxCell id="fk4BfuyukFRPb7nqBHwW-306" style="edgeStyle=orthogonalEdgeStyle;rounded=0;orthogonalLoop=1;jettySize=auto;html=1;exitX=0.5;exitY=0;exitDx=0;exitDy=0;entryX=0;entryY=0.5;entryDx=0;entryDy=0;fontStyle=0" parent="1" source="fk4BfuyukFRPb7nqBHwW-296" target="fk4BfuyukFRPb7nqBHwW-282" edge="1">
          <mxGeometry relative="1" as="geometry">
            <Array as="points">
              <mxPoint x="4460" y="-860.25" />
            </Array>
          </mxGeometry>
        </mxCell>
        <mxCell id="fk4BfuyukFRPb7nqBHwW-296" value="&lt;span style=&quot;font-weight: normal;&quot;&gt;CLEAR_SCREEN&lt;/span&gt;" style="rounded=0;whiteSpace=wrap;html=1;fontStyle=1" parent="1" vertex="1">
          <mxGeometry x="4385" y="-648.5" width="150" height="60" as="geometry" />
        </mxCell>
        <mxCell id="fk4BfuyukFRPb7nqBHwW-304" value="" style="shape=waypoint;sketch=0;size=6;pointerEvents=1;points=[];fillColor=#e3c800;resizable=0;rotatable=0;perimeter=centerPerimeter;snapToPoint=1;fontColor=#000000;strokeColor=#B09500;fontStyle=0" parent="1" vertex="1">
          <mxGeometry x="4875" y="-430" width="20" height="20" as="geometry" />
        </mxCell>
        <mxCell id="fk4BfuyukFRPb7nqBHwW-305" value="B" style="edgeStyle=orthogonalEdgeStyle;rounded=0;orthogonalLoop=1;jettySize=auto;html=1;exitX=1;exitY=0.5;exitDx=0;exitDy=0;entryX=0.816;entryY=0.763;entryDx=0;entryDy=0;entryPerimeter=0;fillColor=#e3c800;strokeColor=#B09500;fontStyle=0" parent="1" source="fk4BfuyukFRPb7nqBHwW-295" target="fk4BfuyukFRPb7nqBHwW-304" edge="1">
          <mxGeometry relative="1" as="geometry" />
        </mxCell>
        <mxCell id="fk4BfuyukFRPb7nqBHwW-308" value="" style="shape=waypoint;sketch=0;size=6;pointerEvents=1;points=[];fillColor=none;resizable=0;rotatable=0;perimeter=centerPerimeter;snapToPoint=1;strokeColor=#66FFB3;fontStyle=0" parent="1" vertex="1">
          <mxGeometry x="4875" y="-628.5" width="20" height="20" as="geometry" />
        </mxCell>
        <mxCell id="fk4BfuyukFRPb7nqBHwW-309" value="S" style="edgeStyle=orthogonalEdgeStyle;rounded=0;orthogonalLoop=1;jettySize=auto;html=1;exitX=1;exitY=0.5;exitDx=0;exitDy=0;entryX=0.247;entryY=0.656;entryDx=0;entryDy=0;entryPerimeter=0;strokeColor=#66FFB3;fontStyle=0" parent="1" source="fk4BfuyukFRPb7nqBHwW-292" target="fk4BfuyukFRPb7nqBHwW-308" edge="1">
          <mxGeometry relative="1" as="geometry" />
        </mxCell>
        <mxCell id="fk4BfuyukFRPb7nqBHwW-331" value="SEAT SELECTION" style="text;html=1;align=center;verticalAlign=middle;resizable=0;points=[];autosize=1;strokeColor=none;fillColor=none;fontStyle=0" parent="1" vertex="1">
          <mxGeometry x="5795" y="-1070" width="130" height="30" as="geometry" />
        </mxCell>
        <mxCell id="fk4BfuyukFRPb7nqBHwW-366" value="BACK / UNDO" style="text;html=1;align=center;verticalAlign=middle;whiteSpace=wrap;rounded=0;fontStyle=0" parent="1" vertex="1">
          <mxGeometry x="4728" y="-469.5" width="237" height="30" as="geometry" />
        </mxCell>
        <mxCell id="_7ieRwts1pLUNNnIRrpb-20" value="S" style="edgeStyle=orthogonalEdgeStyle;rounded=0;orthogonalLoop=1;jettySize=auto;html=1;strokeColor=#00FF80;entryX=0.25;entryY=0;entryDx=0;entryDy=0;movable=0;fontStyle=0" parent="1" source="5m1O86NGaFOG43O_L-Pf-1" target="_7ieRwts1pLUNNnIRrpb-7" edge="1">
          <mxGeometry relative="1" as="geometry" />
        </mxCell>
        <mxCell id="5m1O86NGaFOG43O_L-Pf-1" value="" style="shape=waypoint;sketch=0;size=6;pointerEvents=1;points=[];fillColor=none;resizable=0;rotatable=0;perimeter=centerPerimeter;snapToPoint=1;strokeColor=#00FF80;movable=0;fontStyle=0" parent="1" vertex="1">
          <mxGeometry x="6155" y="-969.7400000000001" width="20" height="20" as="geometry" />
        </mxCell>
        <mxCell id="5m1O86NGaFOG43O_L-Pf-2" value="EDIT MODE" style="text;html=1;align=center;verticalAlign=middle;resizable=0;points=[];autosize=1;strokeColor=none;fillColor=none;movable=0;fontStyle=0" parent="1" vertex="1">
          <mxGeometry x="6650" y="-1070" width="90" height="30" as="geometry" />
        </mxCell>
        <mxCell id="_7ieRwts1pLUNNnIRrpb-21" value="R" style="edgeStyle=orthogonalEdgeStyle;rounded=0;orthogonalLoop=1;jettySize=auto;html=1;entryX=0.75;entryY=0;entryDx=0;entryDy=0;fillColor=#fa6800;strokeColor=#C73500;movable=0;fontStyle=0" parent="1" source="5m1O86NGaFOG43O_L-Pf-3" target="_7ieRwts1pLUNNnIRrpb-7" edge="1">
          <mxGeometry relative="1" as="geometry" />
        </mxCell>
        <mxCell id="5m1O86NGaFOG43O_L-Pf-3" value="" style="shape=waypoint;sketch=0;size=6;pointerEvents=1;points=[];fillColor=#fa6800;resizable=0;rotatable=0;perimeter=centerPerimeter;snapToPoint=1;fontColor=#000000;strokeColor=#C73500;movable=0;fontStyle=0" parent="1" vertex="1">
          <mxGeometry x="6290" y="-966.74" width="20" height="20" as="geometry" />
        </mxCell>
        <mxCell id="jepS8LiPJiyBPYWLw1s4-34" style="edgeStyle=orthogonalEdgeStyle;rounded=0;orthogonalLoop=1;jettySize=auto;html=1;exitX=0.25;exitY=0;exitDx=0;exitDy=0;entryX=0.5;entryY=1;entryDx=0;entryDy=0;movable=0;fontStyle=0" parent="1" source="5m1O86NGaFOG43O_L-Pf-4" target="_7ieRwts1pLUNNnIRrpb-90" edge="1">
          <mxGeometry relative="1" as="geometry" />
        </mxCell>
        <mxCell id="jepS8LiPJiyBPYWLw1s4-116" style="edgeStyle=orthogonalEdgeStyle;rounded=0;orthogonalLoop=1;jettySize=auto;html=1;exitX=0.75;exitY=0;exitDx=0;exitDy=0;entryX=0.75;entryY=1;entryDx=0;entryDy=0;strokeColor=#00FF80;fontStyle=0" parent="1" source="5m1O86NGaFOG43O_L-Pf-4" target="5m1O86NGaFOG43O_L-Pf-5" edge="1">
          <mxGeometry relative="1" as="geometry" />
        </mxCell>
        <mxCell id="5m1O86NGaFOG43O_L-Pf-4" value="&lt;span style=&quot;font-weight: normal;&quot;&gt;CLEAR_SCREEN&lt;/span&gt;" style="rounded=0;whiteSpace=wrap;html=1;fontStyle=1;movable=0;" parent="1" vertex="1">
          <mxGeometry x="6430" y="-574.24" width="320" height="60" as="geometry" />
        </mxCell>
        <mxCell id="_7ieRwts1pLUNNnIRrpb-94" style="edgeStyle=orthogonalEdgeStyle;rounded=0;orthogonalLoop=1;jettySize=auto;html=1;exitX=0.25;exitY=0;exitDx=0;exitDy=0;entryX=0.5;entryY=1;entryDx=0;entryDy=0;movable=0;fontStyle=0" parent="1" source="5m1O86NGaFOG43O_L-Pf-5" target="_7ieRwts1pLUNNnIRrpb-48" edge="1">
          <mxGeometry relative="1" as="geometry" />
        </mxCell>
        <mxCell id="jepS8LiPJiyBPYWLw1s4-35" style="edgeStyle=orthogonalEdgeStyle;rounded=0;orthogonalLoop=1;jettySize=auto;html=1;exitX=0.75;exitY=0;exitDx=0;exitDy=0;strokeColor=#4D9900;movable=0;fontStyle=0" parent="1" source="5m1O86NGaFOG43O_L-Pf-5" target="jepS8LiPJiyBPYWLw1s4-29" edge="1">
          <mxGeometry relative="1" as="geometry" />
        </mxCell>
        <mxCell id="5m1O86NGaFOG43O_L-Pf-5" value="&lt;span style=&quot;font-weight: normal;&quot;&gt;COLOR&lt;/span&gt;" style="rounded=0;whiteSpace=wrap;html=1;fontStyle=1;movable=0;" parent="1" vertex="1">
          <mxGeometry x="6430" y="-769.74" width="320" height="60" as="geometry" />
        </mxCell>
        <mxCell id="_7ieRwts1pLUNNnIRrpb-31" style="edgeStyle=orthogonalEdgeStyle;rounded=0;orthogonalLoop=1;jettySize=auto;html=1;exitX=0.5;exitY=1;exitDx=0;exitDy=0;entryX=0.5;entryY=0;entryDx=0;entryDy=0;movable=0;fontStyle=0" parent="1" source="_7ieRwts1pLUNNnIRrpb-4" target="_7ieRwts1pLUNNnIRrpb-5" edge="1">
          <mxGeometry relative="1" as="geometry" />
        </mxCell>
        <mxCell id="_7ieRwts1pLUNNnIRrpb-35" style="edgeStyle=orthogonalEdgeStyle;rounded=0;orthogonalLoop=1;jettySize=auto;html=1;exitX=1;exitY=0.5;exitDx=0;exitDy=0;entryX=0;entryY=0.5;entryDx=0;entryDy=0;strokeColor=#00FF80;movable=0;fontStyle=0" parent="1" source="_7ieRwts1pLUNNnIRrpb-4" target="_7ieRwts1pLUNNnIRrpb-33" edge="1">
          <mxGeometry relative="1" as="geometry" />
        </mxCell>
        <mxCell id="_7ieRwts1pLUNNnIRrpb-37" style="edgeStyle=orthogonalEdgeStyle;rounded=0;orthogonalLoop=1;jettySize=auto;html=1;exitX=1;exitY=0.5;exitDx=0;exitDy=0;entryX=0;entryY=0.5;entryDx=0;entryDy=0;fillColor=#fa6800;strokeColor=#C73500;movable=0;fontStyle=0" parent="1" source="_7ieRwts1pLUNNnIRrpb-4" target="5m1O86NGaFOG43O_L-Pf-4" edge="1">
          <mxGeometry relative="1" as="geometry">
            <Array as="points">
              <mxPoint x="6320" y="-358" />
              <mxPoint x="6320" y="-544" />
            </Array>
          </mxGeometry>
        </mxCell>
        <mxCell id="_7ieRwts1pLUNNnIRrpb-4" value="SEAT_SELECT_EDIT" style="rhombus;whiteSpace=wrap;html=1;movable=0;fontStyle=0" parent="1" vertex="1">
          <mxGeometry x="6145" y="-437.74" width="160" height="160" as="geometry" />
        </mxCell>
        <mxCell id="_7ieRwts1pLUNNnIRrpb-28" value="B" style="edgeStyle=orthogonalEdgeStyle;rounded=0;orthogonalLoop=1;jettySize=auto;html=1;strokeColor=#66FFB3;movable=0;fontStyle=0" parent="1" source="_7ieRwts1pLUNNnIRrpb-5" target="_7ieRwts1pLUNNnIRrpb-27" edge="1">
          <mxGeometry relative="1" as="geometry">
            <mxPoint as="offset" />
          </mxGeometry>
        </mxCell>
        <mxCell id="_7ieRwts1pLUNNnIRrpb-32" value="DEFAULT" style="edgeStyle=orthogonalEdgeStyle;rounded=0;orthogonalLoop=1;jettySize=auto;html=1;exitX=0.5;exitY=1;exitDx=0;exitDy=0;entryX=0.5;entryY=1;entryDx=0;entryDy=0;movable=0;fontStyle=0" parent="1" source="_7ieRwts1pLUNNnIRrpb-5" target="_7ieRwts1pLUNNnIRrpb-23" edge="1">
          <mxGeometry relative="1" as="geometry" />
        </mxCell>
        <mxCell id="_7ieRwts1pLUNNnIRrpb-5" value="SEAT_SELECT_EDIT" style="rhombus;whiteSpace=wrap;html=1;movable=0;fontStyle=0" parent="1" vertex="1">
          <mxGeometry x="6145" y="-220.24" width="160" height="160" as="geometry" />
        </mxCell>
        <mxCell id="_7ieRwts1pLUNNnIRrpb-19" style="edgeStyle=orthogonalEdgeStyle;rounded=0;orthogonalLoop=1;jettySize=auto;html=1;exitX=0.5;exitY=1;exitDx=0;exitDy=0;entryX=0.5;entryY=0;entryDx=0;entryDy=0;movable=0;fontStyle=0" parent="1" source="_7ieRwts1pLUNNnIRrpb-7" target="_7ieRwts1pLUNNnIRrpb-8" edge="1">
          <mxGeometry relative="1" as="geometry" />
        </mxCell>
        <mxCell id="_7ieRwts1pLUNNnIRrpb-7" value="OUTPUT&lt;div&gt;&lt;br&gt;&lt;/div&gt;&lt;div&gt;SEAT_EDIT&lt;/div&gt;" style="shape=parallelogram;perimeter=parallelogramPerimeter;whiteSpace=wrap;html=1;fixedSize=1;movable=0;fontStyle=0" parent="1" vertex="1">
          <mxGeometry x="6150" y="-865.24" width="150" height="59.25" as="geometry" />
        </mxCell>
        <mxCell id="_7ieRwts1pLUNNnIRrpb-22" style="edgeStyle=orthogonalEdgeStyle;rounded=0;orthogonalLoop=1;jettySize=auto;html=1;exitX=0.5;exitY=1;exitDx=0;exitDy=0;entryX=0.5;entryY=0;entryDx=0;entryDy=0;movable=0;fontStyle=0" parent="1" source="_7ieRwts1pLUNNnIRrpb-8" target="_7ieRwts1pLUNNnIRrpb-4" edge="1">
          <mxGeometry relative="1" as="geometry" />
        </mxCell>
        <mxCell id="_7ieRwts1pLUNNnIRrpb-8" value="INPUT&lt;div&gt;&lt;br&gt;&lt;/div&gt;&lt;div&gt;SEAT_SELECT_EDIT&lt;br&gt;&lt;/div&gt;" style="shape=parallelogram;perimeter=parallelogramPerimeter;whiteSpace=wrap;html=1;fixedSize=1;strokeColor=#FFFFFF;movable=0;fontStyle=0" parent="1" vertex="1">
          <mxGeometry x="6150" y="-729.74" width="150" height="60" as="geometry" />
        </mxCell>
        <mxCell id="_7ieRwts1pLUNNnIRrpb-24" style="edgeStyle=orthogonalEdgeStyle;rounded=0;orthogonalLoop=1;jettySize=auto;html=1;exitX=0.5;exitY=0;exitDx=0;exitDy=0;entryX=0;entryY=0.5;entryDx=0;entryDy=0;movable=0;fontStyle=0" parent="1" source="_7ieRwts1pLUNNnIRrpb-23" target="_7ieRwts1pLUNNnIRrpb-7" edge="1">
          <mxGeometry relative="1" as="geometry">
            <Array as="points">
              <mxPoint x="6070" y="-835.74" />
            </Array>
          </mxGeometry>
        </mxCell>
        <mxCell id="_7ieRwts1pLUNNnIRrpb-23" value="&lt;span style=&quot;font-weight: normal;&quot;&gt;CLEAR_SCREEN&lt;/span&gt;" style="rounded=0;whiteSpace=wrap;html=1;fontStyle=1;movable=0;" parent="1" vertex="1">
          <mxGeometry x="5995" y="-507.48999999999995" width="150" height="60" as="geometry" />
        </mxCell>
        <mxCell id="_7ieRwts1pLUNNnIRrpb-27" value="" style="shape=waypoint;sketch=0;size=6;pointerEvents=1;points=[];fillColor=none;resizable=0;rotatable=0;perimeter=centerPerimeter;snapToPoint=1;strokeColor=#66FFB3;movable=0;fontStyle=0" parent="1" vertex="1">
          <mxGeometry x="6515" y="-150.24" width="20" height="20" as="geometry" />
        </mxCell>
        <mxCell id="_7ieRwts1pLUNNnIRrpb-43" value="SEAT AVAILABLE" style="edgeStyle=orthogonalEdgeStyle;rounded=0;orthogonalLoop=1;jettySize=auto;html=1;exitX=0.5;exitY=0;exitDx=0;exitDy=0;entryX=0.25;entryY=1;entryDx=0;entryDy=0;movable=0;fontStyle=0" parent="1" source="_7ieRwts1pLUNNnIRrpb-33" target="5m1O86NGaFOG43O_L-Pf-4" edge="1">
          <mxGeometry relative="1" as="geometry" />
        </mxCell>
        <mxCell id="_7ieRwts1pLUNNnIRrpb-45" value="SEAT OCCUPIED" style="edgeStyle=orthogonalEdgeStyle;rounded=0;orthogonalLoop=1;jettySize=auto;html=1;exitX=1;exitY=0.5;exitDx=0;exitDy=0;entryX=0.5;entryY=1;entryDx=0;entryDy=0;movable=0;fontStyle=0" parent="1" source="_7ieRwts1pLUNNnIRrpb-33" target="5m1O86NGaFOG43O_L-Pf-4" edge="1">
          <mxGeometry relative="1" as="geometry">
            <mxPoint x="6660" y="-513.49" as="targetPoint" />
            <Array as="points">
              <mxPoint x="6575" y="-429.74" />
              <mxPoint x="6575" y="-429.74" />
            </Array>
          </mxGeometry>
        </mxCell>
        <mxCell id="_7ieRwts1pLUNNnIRrpb-33" value="SEAT_STATUS" style="rhombus;whiteSpace=wrap;html=1;movable=0;fontStyle=0" parent="1" vertex="1">
          <mxGeometry x="6345" y="-437.74" width="160" height="160" as="geometry" />
        </mxCell>
        <mxCell id="_7ieRwts1pLUNNnIRrpb-51" style="edgeStyle=orthogonalEdgeStyle;rounded=0;orthogonalLoop=1;jettySize=auto;html=1;exitX=0;exitY=0.5;exitDx=0;exitDy=0;entryX=1;entryY=0.5;entryDx=0;entryDy=0;movable=0;fontStyle=0" parent="1" source="_7ieRwts1pLUNNnIRrpb-48" target="_7ieRwts1pLUNNnIRrpb-7" edge="1">
          <mxGeometry relative="1" as="geometry" />
        </mxCell>
        <mxCell id="_7ieRwts1pLUNNnIRrpb-48" value="OUTPUT&lt;div&gt;&lt;br&gt;&lt;/div&gt;&lt;div&gt;SEAT_MESSAGE&lt;/div&gt;" style="shape=parallelogram;perimeter=parallelogramPerimeter;whiteSpace=wrap;html=1;fixedSize=1;movable=0;fontStyle=0" parent="1" vertex="1">
          <mxGeometry x="6430" y="-864.49" width="150" height="59.25" as="geometry" />
        </mxCell>
        <mxCell id="_7ieRwts1pLUNNnIRrpb-53" value="&lt;span style=&quot;color: rgb(240, 240, 240); font-family: Helvetica; font-size: 12px; font-style: normal; font-variant-ligatures: normal; font-variant-caps: normal; font-weight: 400; letter-spacing: normal; orphans: 2; text-align: center; text-indent: 0px; text-transform: none; widows: 2; word-spacing: 0px; -webkit-text-stroke-width: 0px; white-space: normal; background-color: rgb(27, 29, 30); float: none; display: inline !important;&quot;&gt;MOVIE_ISELECT&lt;/span&gt;" style="text;whiteSpace=wrap;html=1;fontStyle=0" parent="1" vertex="1">
          <mxGeometry x="1720" y="-145" width="100" height="25" as="geometry" />
        </mxCell>
        <mxCell id="_7ieRwts1pLUNNnIRrpb-54" value="&lt;span style=&quot;color: rgb(240, 240, 240); font-family: Helvetica; font-size: 12px; font-style: normal; font-variant-ligatures: normal; font-variant-caps: normal; font-weight: 400; letter-spacing: normal; orphans: 2; text-align: center; text-indent: 0px; text-transform: none; widows: 2; word-spacing: 0px; -webkit-text-stroke-width: 0px; white-space: normal; background-color: rgb(27, 29, 30); float: none; display: inline !important;&quot;&gt;MOVIE_ICONFIRM&lt;/span&gt;" style="text;whiteSpace=wrap;html=1;fontStyle=0" parent="1" vertex="1">
          <mxGeometry x="2580" y="-347" width="110" height="40" as="geometry" />
        </mxCell>
        <mxCell id="fk4BfuyukFRPb7nqBHwW-226" value="" style="rounded=0;whiteSpace=wrap;html=1;fillColor=#CC00CC;opacity=15;strokeColor=#314354;fontColor=#ffffff;movable=0;fontStyle=0" parent="1" vertex="1">
          <mxGeometry x="2830" y="-790" width="525" height="512" as="geometry" />
        </mxCell>
        <mxCell id="fk4BfuyukFRPb7nqBHwW-221" value="" style="rounded=0;whiteSpace=wrap;html=1;fillColor=#0050ef;fontColor=#ffffff;strokeColor=#001DBC;opacity=15;fontStyle=0" parent="1" vertex="1">
          <mxGeometry x="2830" y="-228" width="390" height="150" as="geometry" />
        </mxCell>
        <mxCell id="fk4BfuyukFRPb7nqBHwW-159" style="edgeStyle=orthogonalEdgeStyle;rounded=0;orthogonalLoop=1;jettySize=auto;html=1;entryX=0.5;entryY=0;entryDx=0;entryDy=0;fillColor=#e3c800;strokeColor=#B09500;fontStyle=0" parent="1" source="fk4BfuyukFRPb7nqBHwW-151" target="fk4BfuyukFRPb7nqBHwW-157" edge="1">
          <mxGeometry relative="1" as="geometry" />
        </mxCell>
        <mxCell id="fk4BfuyukFRPb7nqBHwW-151" value="" style="shape=waypoint;sketch=0;size=6;pointerEvents=1;points=[];fillColor=#e3c800;resizable=0;rotatable=0;perimeter=centerPerimeter;snapToPoint=1;fontColor=#000000;strokeColor=#B09500;fontStyle=0" parent="1" vertex="1">
          <mxGeometry x="2895" y="-1025" width="20" height="20" as="geometry" />
        </mxCell>
        <mxCell id="fk4BfuyukFRPb7nqBHwW-176" style="edgeStyle=orthogonalEdgeStyle;rounded=0;orthogonalLoop=1;jettySize=auto;html=1;exitX=0.5;exitY=1;exitDx=0;exitDy=0;fontStyle=0" parent="1" source="fk4BfuyukFRPb7nqBHwW-154" edge="1">
          <mxGeometry relative="1" as="geometry">
            <mxPoint x="2905.545454545454" y="-618" as="targetPoint" />
          </mxGeometry>
        </mxCell>
        <mxCell id="fk4BfuyukFRPb7nqBHwW-209" value="1" style="edgeStyle=orthogonalEdgeStyle;rounded=0;orthogonalLoop=1;jettySize=auto;html=1;exitX=1;exitY=0.5;exitDx=0;exitDy=0;entryX=0;entryY=0.5;entryDx=0;entryDy=0;strokeColor=#CC00CC;fontStyle=0" parent="1" source="fk4BfuyukFRPb7nqBHwW-154" target="fk4BfuyukFRPb7nqBHwW-206" edge="1">
          <mxGeometry relative="1" as="geometry" />
        </mxCell>
        <mxCell id="jepS8LiPJiyBPYWLw1s4-440" value="" style="edgeStyle=orthogonalEdgeStyle;rounded=0;orthogonalLoop=1;jettySize=auto;html=1;" parent="1" source="fk4BfuyukFRPb7nqBHwW-154" target="fk4BfuyukFRPb7nqBHwW-158" edge="1">
          <mxGeometry relative="1" as="geometry" />
        </mxCell>
        <mxCell id="fk4BfuyukFRPb7nqBHwW-154" value="MOVIE_ISELECT" style="rhombus;whiteSpace=wrap;html=1;fontStyle=0" parent="1" vertex="1">
          <mxGeometry x="2830" y="-795" width="150" height="150" as="geometry" />
        </mxCell>
        <mxCell id="fk4BfuyukFRPb7nqBHwW-177" style="edgeStyle=orthogonalEdgeStyle;rounded=0;orthogonalLoop=1;jettySize=auto;html=1;exitX=0.5;exitY=1;exitDx=0;exitDy=0;entryX=0.5;entryY=0;entryDx=0;entryDy=0;fontStyle=0" parent="1" source="fk4BfuyukFRPb7nqBHwW-155" target="fk4BfuyukFRPb7nqBHwW-156" edge="1">
          <mxGeometry relative="1" as="geometry" />
        </mxCell>
        <mxCell id="fk4BfuyukFRPb7nqBHwW-210" value="2" style="edgeStyle=orthogonalEdgeStyle;rounded=0;orthogonalLoop=1;jettySize=auto;html=1;exitX=1;exitY=0.5;exitDx=0;exitDy=0;entryX=0;entryY=0.5;entryDx=0;entryDy=0;strokeColor=#CC00CC;fontStyle=0" parent="1" source="fk4BfuyukFRPb7nqBHwW-155" target="fk4BfuyukFRPb7nqBHwW-207" edge="1">
          <mxGeometry relative="1" as="geometry" />
        </mxCell>
        <mxCell id="fk4BfuyukFRPb7nqBHwW-155" value="MOVIE_ISELECT" style="rhombus;whiteSpace=wrap;html=1;fontStyle=0" parent="1" vertex="1">
          <mxGeometry x="2830" y="-615.75" width="150" height="150" as="geometry" />
        </mxCell>
        <mxCell id="fk4BfuyukFRPb7nqBHwW-211" value="3" style="edgeStyle=orthogonalEdgeStyle;rounded=0;orthogonalLoop=1;jettySize=auto;html=1;exitX=1;exitY=0.5;exitDx=0;exitDy=0;entryX=0;entryY=0.5;entryDx=0;entryDy=0;strokeColor=#CC00CC;fontStyle=0" parent="1" source="fk4BfuyukFRPb7nqBHwW-156" target="fk4BfuyukFRPb7nqBHwW-208" edge="1">
          <mxGeometry relative="1" as="geometry" />
        </mxCell>
        <mxCell id="fk4BfuyukFRPb7nqBHwW-217" style="edgeStyle=orthogonalEdgeStyle;rounded=0;orthogonalLoop=1;jettySize=auto;html=1;exitX=0.5;exitY=1;exitDx=0;exitDy=0;entryX=0.5;entryY=0;entryDx=0;entryDy=0;fontStyle=0" parent="1" source="fk4BfuyukFRPb7nqBHwW-156" target="fk4BfuyukFRPb7nqBHwW-174" edge="1">
          <mxGeometry relative="1" as="geometry" />
        </mxCell>
        <mxCell id="fk4BfuyukFRPb7nqBHwW-156" value="MOVIE_ISELECT" style="rhombus;whiteSpace=wrap;html=1;fontStyle=0" parent="1" vertex="1">
          <mxGeometry x="2830" y="-434.25" width="150" height="150" as="geometry" />
        </mxCell>
        <mxCell id="fk4BfuyukFRPb7nqBHwW-160" style="edgeStyle=orthogonalEdgeStyle;rounded=0;orthogonalLoop=1;jettySize=auto;html=1;exitX=0.5;exitY=1;exitDx=0;exitDy=0;entryX=0.5;entryY=0;entryDx=0;entryDy=0;fontStyle=0" parent="1" source="fk4BfuyukFRPb7nqBHwW-157" target="fk4BfuyukFRPb7nqBHwW-158" edge="1">
          <mxGeometry relative="1" as="geometry" />
        </mxCell>
        <mxCell id="fk4BfuyukFRPb7nqBHwW-157" value="OUTPUT&lt;div&gt;&lt;br&gt;&lt;/div&gt;&lt;div&gt;MOVIE_SELECT&lt;/div&gt;" style="shape=parallelogram;perimeter=parallelogramPerimeter;whiteSpace=wrap;html=1;fixedSize=1;fontStyle=0" parent="1" vertex="1">
          <mxGeometry x="2830" y="-985" width="150" height="59.25" as="geometry" />
        </mxCell>
        <mxCell id="fk4BfuyukFRPb7nqBHwW-172" style="edgeStyle=orthogonalEdgeStyle;rounded=0;orthogonalLoop=1;jettySize=auto;html=1;exitX=0.5;exitY=1;exitDx=0;exitDy=0;entryX=0.5;entryY=0;entryDx=0;entryDy=0;fontStyle=0" parent="1" source="fk4BfuyukFRPb7nqBHwW-158" target="fk4BfuyukFRPb7nqBHwW-154" edge="1">
          <mxGeometry relative="1" as="geometry" />
        </mxCell>
        <mxCell id="fk4BfuyukFRPb7nqBHwW-158" value="INPUT&lt;div&gt;&lt;br&gt;&lt;/div&gt;&lt;div&gt;MOVIE_ISELECT&lt;/div&gt;" style="shape=parallelogram;perimeter=parallelogramPerimeter;whiteSpace=wrap;html=1;fixedSize=1;strokeColor=#FFFFFF;fontStyle=0" parent="1" vertex="1">
          <mxGeometry x="2830" y="-890" width="150" height="60" as="geometry" />
        </mxCell>
        <mxCell id="fk4BfuyukFRPb7nqBHwW-204" value="DEFAULT" style="edgeStyle=orthogonalEdgeStyle;rounded=0;orthogonalLoop=1;jettySize=auto;html=1;exitX=0.5;exitY=1;exitDx=0;exitDy=0;entryX=0.75;entryY=1;entryDx=0;entryDy=0;fontStyle=0" parent="1" source="fk4BfuyukFRPb7nqBHwW-174" target="fk4BfuyukFRPb7nqBHwW-175" edge="1">
          <mxGeometry relative="1" as="geometry" />
        </mxCell>
        <mxCell id="fk4BfuyukFRPb7nqBHwW-220" value="0" style="edgeStyle=orthogonalEdgeStyle;rounded=0;orthogonalLoop=1;jettySize=auto;html=1;exitX=1;exitY=0.5;exitDx=0;exitDy=0;fillColor=#0050ef;strokeColor=#001DBC;fontStyle=0" parent="1" source="fk4BfuyukFRPb7nqBHwW-174" target="fk4BfuyukFRPb7nqBHwW-219" edge="1">
          <mxGeometry relative="1" as="geometry" />
        </mxCell>
        <mxCell id="fk4BfuyukFRPb7nqBHwW-174" value="MOVIE_ISELECT" style="rhombus;whiteSpace=wrap;html=1;fontStyle=0" parent="1" vertex="1">
          <mxGeometry x="2830" y="-225" width="150" height="150" as="geometry" />
        </mxCell>
        <mxCell id="fk4BfuyukFRPb7nqBHwW-205" style="edgeStyle=orthogonalEdgeStyle;rounded=0;orthogonalLoop=1;jettySize=auto;html=1;exitX=0.5;exitY=0;exitDx=0;exitDy=0;entryX=0;entryY=0.5;entryDx=0;entryDy=0;fontStyle=0" parent="1" source="fk4BfuyukFRPb7nqBHwW-175" target="fk4BfuyukFRPb7nqBHwW-157" edge="1">
          <mxGeometry relative="1" as="geometry">
            <Array as="points">
              <mxPoint x="2735" y="-955" />
            </Array>
          </mxGeometry>
        </mxCell>
        <mxCell id="fk4BfuyukFRPb7nqBHwW-175" value="&lt;span style=&quot;font-weight: normal;&quot;&gt;CLEAR_SCREEN&lt;/span&gt;" style="rounded=0;whiteSpace=wrap;html=1;fontStyle=1" parent="1" vertex="1">
          <mxGeometry x="2660" y="-565" width="150" height="60" as="geometry" />
        </mxCell>
        <mxCell id="fk4BfuyukFRPb7nqBHwW-206" value="&lt;span style=&quot;font-weight: normal;&quot;&gt;MOVIE_PROCESS&lt;/span&gt;" style="rounded=0;whiteSpace=wrap;html=1;fontStyle=1;strokeColor=#CC00CC;" parent="1" vertex="1">
          <mxGeometry x="3080" y="-750" width="150" height="60" as="geometry" />
        </mxCell>
        <mxCell id="fk4BfuyukFRPb7nqBHwW-207" value="&lt;span style=&quot;font-weight: 400;&quot;&gt;MOVIE_PROCESS&lt;/span&gt;" style="rounded=0;whiteSpace=wrap;html=1;fontStyle=1;strokeColor=#CC00CC;" parent="1" vertex="1">
          <mxGeometry x="3080" y="-570.75" width="150" height="60" as="geometry" />
        </mxCell>
        <mxCell id="fk4BfuyukFRPb7nqBHwW-208" value="&lt;span style=&quot;font-weight: 400;&quot;&gt;MOVIE_PROCESS&lt;/span&gt;" style="rounded=0;whiteSpace=wrap;html=1;fontStyle=1;strokeColor=#CC00CC;" parent="1" vertex="1">
          <mxGeometry x="3080" y="-389.25" width="150" height="60" as="geometry" />
        </mxCell>
        <mxCell id="fk4BfuyukFRPb7nqBHwW-212" value="" style="shape=waypoint;sketch=0;size=6;pointerEvents=1;points=[];fillColor=none;resizable=0;rotatable=0;perimeter=centerPerimeter;snapToPoint=1;strokeColor=#CC00CC;fontStyle=0" parent="1" vertex="1">
          <mxGeometry x="3295" y="-550" width="20" height="20" as="geometry" />
        </mxCell>
        <mxCell id="fk4BfuyukFRPb7nqBHwW-213" style="edgeStyle=orthogonalEdgeStyle;rounded=0;orthogonalLoop=1;jettySize=auto;html=1;exitX=1;exitY=0.5;exitDx=0;exitDy=0;entryX=1.104;entryY=0.511;entryDx=0;entryDy=0;entryPerimeter=0;strokeColor=#CC00CC;fontStyle=0" parent="1" source="fk4BfuyukFRPb7nqBHwW-206" target="fk4BfuyukFRPb7nqBHwW-212" edge="1">
          <mxGeometry relative="1" as="geometry" />
        </mxCell>
        <mxCell id="fk4BfuyukFRPb7nqBHwW-215" style="edgeStyle=orthogonalEdgeStyle;rounded=0;orthogonalLoop=1;jettySize=auto;html=1;exitX=1;exitY=0.5;exitDx=0;exitDy=0;entryX=0.612;entryY=1.064;entryDx=0;entryDy=0;entryPerimeter=0;strokeColor=#CC00CC;fontStyle=0" parent="1" source="fk4BfuyukFRPb7nqBHwW-208" target="fk4BfuyukFRPb7nqBHwW-212" edge="1">
          <mxGeometry relative="1" as="geometry" />
        </mxCell>
        <mxCell id="fk4BfuyukFRPb7nqBHwW-216" style="edgeStyle=orthogonalEdgeStyle;rounded=0;orthogonalLoop=1;jettySize=auto;html=1;exitX=1;exitY=0.5;exitDx=0;exitDy=0;entryX=-0.004;entryY=0.449;entryDx=0;entryDy=0;entryPerimeter=0;strokeColor=#CC00CC;fontStyle=0" parent="1" source="fk4BfuyukFRPb7nqBHwW-207" target="fk4BfuyukFRPb7nqBHwW-212" edge="1">
          <mxGeometry relative="1" as="geometry" />
        </mxCell>
        <mxCell id="fk4BfuyukFRPb7nqBHwW-219" value="" style="shape=waypoint;sketch=0;size=6;pointerEvents=1;points=[];fillColor=#0050ef;resizable=0;rotatable=0;perimeter=centerPerimeter;snapToPoint=1;fontColor=#ffffff;strokeColor=#001DBC;fontStyle=0" parent="1" vertex="1">
          <mxGeometry x="3145" y="-160" width="20" height="20" as="geometry" />
        </mxCell>
        <mxCell id="fk4BfuyukFRPb7nqBHwW-222" value="BACK / UNDO" style="text;html=1;align=center;verticalAlign=middle;whiteSpace=wrap;rounded=0;fontStyle=0" parent="1" vertex="1">
          <mxGeometry x="2983" y="-204" width="237" height="30" as="geometry" />
        </mxCell>
        <mxCell id="fk4BfuyukFRPb7nqBHwW-279" value="N" style="edgeStyle=orthogonalEdgeStyle;rounded=0;orthogonalLoop=1;jettySize=auto;html=1;entryX=0.25;entryY=1;entryDx=0;entryDy=0;fillColor=#e3c800;strokeColor=#B09500;fontStyle=0" parent="1" source="fk4BfuyukFRPb7nqBHwW-278" target="fk4BfuyukFRPb7nqBHwW-175" edge="1">
          <mxGeometry relative="1" as="geometry">
            <Array as="points">
              <mxPoint x="2698" y="-310" />
            </Array>
          </mxGeometry>
        </mxCell>
        <mxCell id="_7ieRwts1pLUNNnIRrpb-60" style="edgeStyle=orthogonalEdgeStyle;rounded=0;orthogonalLoop=1;jettySize=auto;html=1;entryX=0.5;entryY=1;entryDx=0;entryDy=0;fillColor=#e3c800;strokeColor=#B09500;fontStyle=0" parent="1" source="_7ieRwts1pLUNNnIRrpb-58" target="fk4BfuyukFRPb7nqBHwW-175" edge="1">
          <mxGeometry relative="1" as="geometry" />
        </mxCell>
        <mxCell id="fk4BfuyukFRPb7nqBHwW-278" value="" style="shape=waypoint;sketch=0;size=6;pointerEvents=1;points=[];fillColor=#e3c800;resizable=0;rotatable=0;perimeter=centerPerimeter;snapToPoint=1;fontColor=#000000;strokeColor=#B09500;fontStyle=0" parent="1" vertex="1">
          <mxGeometry x="2620" y="-320" width="20" height="20" as="geometry" />
        </mxCell>
        <mxCell id="fk4BfuyukFRPb7nqBHwW-302" value="B" style="edgeStyle=orthogonalEdgeStyle;rounded=0;orthogonalLoop=1;jettySize=auto;html=1;entryX=0.5;entryY=1;entryDx=0;entryDy=0;fillColor=#e3c800;strokeColor=#B09500;fontStyle=0" parent="1" source="fk4BfuyukFRPb7nqBHwW-301" target="fk4BfuyukFRPb7nqBHwW-175" edge="1">
          <mxGeometry relative="1" as="geometry">
            <Array as="points">
              <mxPoint x="2735" y="-215" />
            </Array>
          </mxGeometry>
        </mxCell>
        <mxCell id="fk4BfuyukFRPb7nqBHwW-301" value="" style="shape=waypoint;sketch=0;size=6;pointerEvents=1;points=[];fillColor=#e3c800;resizable=0;rotatable=0;perimeter=centerPerimeter;snapToPoint=1;fontColor=#000000;strokeColor=#B09500;fontStyle=0" parent="1" vertex="1">
          <mxGeometry x="2620" y="-225" width="20" height="20" as="geometry" />
        </mxCell>
        <mxCell id="_7ieRwts1pLUNNnIRrpb-56" value="&lt;span style=&quot;color: rgb(240, 240, 240); font-family: Helvetica; font-size: 12px; font-style: normal; font-variant-ligatures: normal; font-variant-caps: normal; font-weight: 400; letter-spacing: normal; orphans: 2; text-align: center; text-indent: 0px; text-transform: none; widows: 2; word-spacing: 0px; -webkit-text-stroke-width: 0px; white-space: normal; background-color: rgb(27, 29, 30); float: none; display: inline !important;&quot;&gt;SEAT_CAT&lt;/span&gt;" style="text;whiteSpace=wrap;html=1;fontStyle=0" parent="1" vertex="1">
          <mxGeometry x="2595" y="-254.5" width="70" height="30" as="geometry" />
        </mxCell>
        <mxCell id="_7ieRwts1pLUNNnIRrpb-58" value="" style="shape=waypoint;sketch=0;size=6;pointerEvents=1;points=[];fillColor=#e3c800;resizable=0;rotatable=0;perimeter=centerPerimeter;snapToPoint=1;fontColor=#000000;strokeColor=#B09500;fontStyle=0" parent="1" vertex="1">
          <mxGeometry x="2620" y="-152" width="20" height="20" as="geometry" />
        </mxCell>
        <mxCell id="_7ieRwts1pLUNNnIRrpb-61" value="&lt;span style=&quot;color: rgb(240, 240, 240); font-family: Helvetica; font-size: 12px; font-style: normal; font-variant-ligatures: normal; font-variant-caps: normal; font-weight: 400; letter-spacing: normal; orphans: 2; text-align: center; text-indent: 0px; text-transform: none; widows: 2; word-spacing: 0px; -webkit-text-stroke-width: 0px; white-space: normal; background-color: rgb(27, 29, 30); float: none; display: inline !important;&quot;&gt;SEAT_SELECT_CAT&lt;/span&gt;" style="text;whiteSpace=wrap;html=1;fontStyle=0" parent="1" vertex="1">
          <mxGeometry x="2570" y="-175" width="120" height="25" as="geometry" />
        </mxCell>
        <mxCell id="_7ieRwts1pLUNNnIRrpb-66" value="&lt;span style=&quot;color: rgb(240, 240, 240); font-family: Helvetica; font-size: 12px; font-style: normal; font-variant-ligatures: normal; font-variant-caps: normal; font-weight: 400; letter-spacing: normal; orphans: 2; text-align: center; text-indent: 0px; text-transform: none; widows: 2; word-spacing: 0px; -webkit-text-stroke-width: 0px; white-space: normal; background-color: rgb(27, 29, 30); float: none; display: inline !important;&quot;&gt;SEAT_SELECT_CAT&lt;/span&gt;" style="text;whiteSpace=wrap;html=1;movable=0;fontStyle=0" parent="1" vertex="1">
          <mxGeometry x="6175" y="-971.74" width="120" height="30" as="geometry" />
        </mxCell>
        <mxCell id="_7ieRwts1pLUNNnIRrpb-68" value="&lt;span style=&quot;color: rgb(240, 240, 240); font-family: Helvetica; font-size: 12px; font-style: normal; font-variant-ligatures: normal; font-variant-caps: normal; font-weight: 400; letter-spacing: normal; orphans: 2; text-align: center; text-indent: 0px; text-transform: none; widows: 2; word-spacing: 0px; -webkit-text-stroke-width: 0px; white-space: normal; background-color: rgb(27, 29, 30); float: none; display: inline !important;&quot;&gt;MOVIE_ICONFIRM&lt;/span&gt;" style="text;whiteSpace=wrap;html=1;fontStyle=0" parent="1" vertex="1">
          <mxGeometry x="4595" y="-964.94" width="110" height="20" as="geometry" />
        </mxCell>
        <mxCell id="_7ieRwts1pLUNNnIRrpb-69" value="&lt;span style=&quot;color: rgb(240, 240, 240); font-family: Helvetica; font-size: 12px; font-style: normal; font-variant-ligatures: normal; font-variant-caps: normal; font-weight: 400; letter-spacing: normal; orphans: 2; text-align: center; text-indent: 0px; text-transform: none; widows: 2; word-spacing: 0px; -webkit-text-stroke-width: 0px; white-space: normal; background-color: rgb(27, 29, 30); float: none; display: inline !important;&quot;&gt;MOVIE_CAT&lt;/span&gt;" style="text;whiteSpace=wrap;html=1;fontStyle=0" parent="1" vertex="1">
          <mxGeometry x="2810" y="-1020" width="80" height="40" as="geometry" />
        </mxCell>
        <mxCell id="_7ieRwts1pLUNNnIRrpb-70" value="&lt;span style=&quot;color: rgb(240, 240, 240); font-family: Helvetica; font-size: 12px; font-style: normal; font-variant-ligatures: normal; font-variant-caps: normal; font-weight: 400; letter-spacing: normal; orphans: 2; text-align: center; text-indent: 0px; text-transform: none; widows: 2; word-spacing: 0px; -webkit-text-stroke-width: 0px; white-space: normal; background-color: rgb(27, 29, 30); float: none; display: inline !important;&quot;&gt;CMENU_CAT&lt;/span&gt;" style="text;whiteSpace=wrap;html=1;fontStyle=0" parent="1" vertex="1">
          <mxGeometry x="2160" y="-1069.74" width="80" height="30" as="geometry" />
        </mxCell>
        <mxCell id="_7ieRwts1pLUNNnIRrpb-71" value="&lt;span style=&quot;color: rgb(240, 240, 240); font-family: Helvetica; font-size: 12px; font-style: normal; font-variant-ligatures: normal; font-variant-caps: normal; font-weight: 400; letter-spacing: normal; orphans: 2; text-align: center; text-indent: 0px; text-transform: none; widows: 2; word-spacing: 0px; -webkit-text-stroke-width: 0px; white-space: normal; background-color: rgb(27, 29, 30); float: none; display: inline !important;&quot;&gt;MOVIE_CAT&lt;/span&gt;" style="text;whiteSpace=wrap;html=1;fontStyle=0" parent="1" vertex="1">
          <mxGeometry x="1439" y="-224.5" width="80" height="40" as="geometry" />
        </mxCell>
        <mxCell id="_7ieRwts1pLUNNnIRrpb-72" value="&lt;span style=&quot;color: rgb(240, 240, 240); font-family: Helvetica; font-size: 12px; font-style: normal; font-variant-ligatures: normal; font-variant-caps: normal; font-weight: 400; letter-spacing: normal; orphans: 2; text-align: center; text-indent: 0px; text-transform: none; widows: 2; word-spacing: 0px; -webkit-text-stroke-width: 0px; white-space: normal; background-color: rgb(27, 29, 30); float: none; display: inline !important;&quot;&gt;AUTH_GATE_STATS&lt;/span&gt;" style="text;whiteSpace=wrap;html=1;fontStyle=0" parent="1" vertex="1">
          <mxGeometry x="1155" y="-984.56" width="120" height="30" as="geometry" />
        </mxCell>
        <mxCell id="_7ieRwts1pLUNNnIRrpb-73" value="&lt;span style=&quot;color: rgb(240, 240, 240); font-family: Helvetica; font-size: 12px; font-style: normal; font-variant-ligatures: normal; font-variant-caps: normal; font-weight: 400; letter-spacing: normal; orphans: 2; text-align: center; text-indent: 0px; text-transform: none; widows: 2; word-spacing: 0px; -webkit-text-stroke-width: 0px; white-space: normal; background-color: rgb(27, 29, 30); float: none; display: inline !important;&quot;&gt;CMENU_CAT&lt;/span&gt;" style="text;whiteSpace=wrap;html=1;fontStyle=0" parent="1" vertex="1">
          <mxGeometry x="593" y="-197.87" width="85" height="17.74" as="geometry" />
        </mxCell>
        <mxCell id="fk4BfuyukFRPb7nqBHwW-280" value="" style="rounded=0;whiteSpace=wrap;html=1;fillColor=#d80073;opacity=15;strokeColor=#A50040;fontColor=#ffffff;fontStyle=0" parent="1" vertex="1">
          <mxGeometry x="3750" y="-656" width="390" height="150" as="geometry" />
        </mxCell>
        <mxCell id="fk4BfuyukFRPb7nqBHwW-275" value="" style="rounded=0;whiteSpace=wrap;html=1;fillColor=#e3c800;opacity=15;strokeColor=#B09500;fontColor=#000000;fontStyle=0" parent="1" vertex="1">
          <mxGeometry x="3750" y="-432" width="390" height="150" as="geometry" />
        </mxCell>
        <mxCell id="fk4BfuyukFRPb7nqBHwW-225" style="edgeStyle=orthogonalEdgeStyle;rounded=0;orthogonalLoop=1;jettySize=auto;html=1;entryX=0.5;entryY=0;entryDx=0;entryDy=0;strokeColor=#CC00CC;fontStyle=0" parent="1" source="fk4BfuyukFRPb7nqBHwW-200" target="fk4BfuyukFRPb7nqBHwW-201" edge="1">
          <mxGeometry relative="1" as="geometry" />
        </mxCell>
        <mxCell id="fk4BfuyukFRPb7nqBHwW-200" value="" style="shape=waypoint;sketch=0;size=6;pointerEvents=1;points=[];fillColor=none;resizable=0;rotatable=0;perimeter=centerPerimeter;snapToPoint=1;strokeColor=#CC00CC;fontStyle=0" parent="1" vertex="1">
          <mxGeometry x="3815" y="-955" width="20" height="20" as="geometry" />
        </mxCell>
        <mxCell id="fk4BfuyukFRPb7nqBHwW-230" style="edgeStyle=orthogonalEdgeStyle;rounded=0;orthogonalLoop=1;jettySize=auto;html=1;exitX=0.5;exitY=1;exitDx=0;exitDy=0;entryX=0.5;entryY=0;entryDx=0;entryDy=0;fontStyle=0" parent="1" source="fk4BfuyukFRPb7nqBHwW-201" target="fk4BfuyukFRPb7nqBHwW-229" edge="1">
          <mxGeometry relative="1" as="geometry" />
        </mxCell>
        <mxCell id="fk4BfuyukFRPb7nqBHwW-201" value="OUTPUT&lt;div&gt;&lt;br&gt;&lt;/div&gt;&lt;div&gt;MOVIE_CONFIRM&lt;/div&gt;" style="shape=parallelogram;perimeter=parallelogramPerimeter;whiteSpace=wrap;html=1;fixedSize=1;fontStyle=0" parent="1" vertex="1">
          <mxGeometry x="3750" y="-885" width="150" height="59.25" as="geometry" />
        </mxCell>
        <mxCell id="fk4BfuyukFRPb7nqBHwW-232" style="edgeStyle=orthogonalEdgeStyle;rounded=0;orthogonalLoop=1;jettySize=auto;html=1;exitX=0.5;exitY=1;exitDx=0;exitDy=0;entryX=0.5;entryY=0;entryDx=0;entryDy=0;fontStyle=0" parent="1" source="fk4BfuyukFRPb7nqBHwW-227" target="fk4BfuyukFRPb7nqBHwW-228" edge="1">
          <mxGeometry relative="1" as="geometry" />
        </mxCell>
        <mxCell id="fk4BfuyukFRPb7nqBHwW-272" value="Y" style="edgeStyle=orthogonalEdgeStyle;rounded=0;orthogonalLoop=1;jettySize=auto;html=1;exitX=1;exitY=0.5;exitDx=0;exitDy=0;fillColor=#d80073;strokeColor=#A50040;fontStyle=0" parent="1" source="fk4BfuyukFRPb7nqBHwW-227" target="fk4BfuyukFRPb7nqBHwW-269" edge="1">
          <mxGeometry relative="1" as="geometry" />
        </mxCell>
        <mxCell id="fk4BfuyukFRPb7nqBHwW-227" value="MOVIE_ICONFIRM" style="rhombus;whiteSpace=wrap;html=1;fontStyle=0" parent="1" vertex="1">
          <mxGeometry x="3750" y="-654.5" width="150" height="150" as="geometry" />
        </mxCell>
        <mxCell id="fk4BfuyukFRPb7nqBHwW-270" value="DEFAULT" style="edgeStyle=orthogonalEdgeStyle;rounded=0;orthogonalLoop=1;jettySize=auto;html=1;exitX=0.5;exitY=1;exitDx=0;exitDy=0;fontStyle=0" parent="1" source="fk4BfuyukFRPb7nqBHwW-228" target="fk4BfuyukFRPb7nqBHwW-267" edge="1">
          <mxGeometry relative="1" as="geometry">
            <Array as="points">
              <mxPoint x="3825" y="-145" />
              <mxPoint x="3585" y="-145" />
            </Array>
          </mxGeometry>
        </mxCell>
        <mxCell id="fk4BfuyukFRPb7nqBHwW-228" value="MOVIE_ICONFIRM" style="rhombus;whiteSpace=wrap;html=1;fontStyle=0" parent="1" vertex="1">
          <mxGeometry x="3750" y="-432" width="150" height="150" as="geometry" />
        </mxCell>
        <mxCell id="fk4BfuyukFRPb7nqBHwW-231" style="edgeStyle=orthogonalEdgeStyle;rounded=0;orthogonalLoop=1;jettySize=auto;html=1;exitX=0.5;exitY=1;exitDx=0;exitDy=0;entryX=0.5;entryY=0;entryDx=0;entryDy=0;fontStyle=0" parent="1" source="fk4BfuyukFRPb7nqBHwW-229" target="fk4BfuyukFRPb7nqBHwW-227" edge="1">
          <mxGeometry relative="1" as="geometry" />
        </mxCell>
        <mxCell id="fk4BfuyukFRPb7nqBHwW-229" value="INPUT&lt;div&gt;&lt;br&gt;&lt;/div&gt;&lt;div&gt;MOVIE_ICONFIRM&lt;/div&gt;" style="shape=parallelogram;perimeter=parallelogramPerimeter;whiteSpace=wrap;html=1;fixedSize=1;strokeColor=#FFFFFF;fontStyle=0" parent="1" vertex="1">
          <mxGeometry x="3750" y="-782" width="150" height="60" as="geometry" />
        </mxCell>
        <mxCell id="fk4BfuyukFRPb7nqBHwW-271" style="edgeStyle=orthogonalEdgeStyle;rounded=0;orthogonalLoop=1;jettySize=auto;html=1;exitX=0.5;exitY=0;exitDx=0;exitDy=0;entryX=0;entryY=0.5;entryDx=0;entryDy=0;fontStyle=0" parent="1" source="fk4BfuyukFRPb7nqBHwW-267" target="fk4BfuyukFRPb7nqBHwW-201" edge="1">
          <mxGeometry relative="1" as="geometry">
            <Array as="points">
              <mxPoint x="3585" y="-855" />
            </Array>
          </mxGeometry>
        </mxCell>
        <mxCell id="fk4BfuyukFRPb7nqBHwW-267" value="&lt;span style=&quot;font-weight: normal;&quot;&gt;CLEAR_SCREEN&lt;/span&gt;" style="rounded=0;whiteSpace=wrap;html=1;fontStyle=1" parent="1" vertex="1">
          <mxGeometry x="3510" y="-587.37" width="150" height="60" as="geometry" />
        </mxCell>
        <mxCell id="fk4BfuyukFRPb7nqBHwW-269" value="" style="shape=waypoint;sketch=0;size=6;pointerEvents=1;points=[];fillColor=#d80073;resizable=0;rotatable=0;perimeter=centerPerimeter;snapToPoint=1;fontColor=#ffffff;strokeColor=#A50040;fontStyle=0" parent="1" vertex="1">
          <mxGeometry x="4040" y="-591" width="20" height="20" as="geometry" />
        </mxCell>
        <mxCell id="fk4BfuyukFRPb7nqBHwW-273" value="" style="shape=waypoint;sketch=0;size=6;pointerEvents=1;points=[];fillColor=#e3c800;resizable=0;rotatable=0;perimeter=centerPerimeter;snapToPoint=1;fontColor=#000000;strokeColor=#B09500;fontStyle=0" parent="1" vertex="1">
          <mxGeometry x="4040" y="-367" width="20" height="20" as="geometry" />
        </mxCell>
        <mxCell id="fk4BfuyukFRPb7nqBHwW-274" value="N" style="edgeStyle=orthogonalEdgeStyle;rounded=0;orthogonalLoop=1;jettySize=auto;html=1;entryX=0.209;entryY=0.303;entryDx=0;entryDy=0;entryPerimeter=0;fillColor=#e3c800;strokeColor=#B09500;fontStyle=0" parent="1" source="fk4BfuyukFRPb7nqBHwW-228" target="fk4BfuyukFRPb7nqBHwW-273" edge="1">
          <mxGeometry relative="1" as="geometry" />
        </mxCell>
        <mxCell id="fk4BfuyukFRPb7nqBHwW-285" value="FLOOR PLAN OR TIME OF MOVIE" style="text;html=1;align=center;verticalAlign=middle;resizable=0;points=[];autosize=1;strokeColor=none;fillColor=none;fontStyle=0" parent="1" vertex="1">
          <mxGeometry x="3920" y="-647" width="210" height="30" as="geometry" />
        </mxCell>
        <mxCell id="fk4BfuyukFRPb7nqBHwW-344" value="BACK / UNDO" style="text;html=1;align=center;verticalAlign=middle;whiteSpace=wrap;rounded=0;fontStyle=0" parent="1" vertex="1">
          <mxGeometry x="3893" y="-410" width="237" height="30" as="geometry" />
        </mxCell>
        <mxCell id="_7ieRwts1pLUNNnIRrpb-74" value="&lt;span style=&quot;color: rgb(240, 240, 240); font-family: Helvetica; font-size: 12px; font-style: normal; font-variant-ligatures: normal; font-variant-caps: normal; font-weight: 400; letter-spacing: normal; orphans: 2; text-align: center; text-indent: 0px; text-transform: none; widows: 2; word-spacing: 0px; -webkit-text-stroke-width: 0px; white-space: normal; background-color: rgb(27, 29, 30); float: none; display: inline !important;&quot;&gt;MOVIE_ISELECT&lt;/span&gt;" style="text;whiteSpace=wrap;html=1;fontStyle=0" parent="1" vertex="1">
          <mxGeometry x="3775" y="-984.94" width="100" height="40" as="geometry" />
        </mxCell>
        <mxCell id="_7ieRwts1pLUNNnIRrpb-77" value="" style="rounded=0;whiteSpace=wrap;html=1;opacity=15;fillColor=#007000;fontStyle=0" parent="1" vertex="1">
          <mxGeometry x="5380" y="-370.5" width="460" height="150" as="geometry" />
        </mxCell>
        <mxCell id="_7ieRwts1pLUNNnIRrpb-39" value="" style="rounded=0;whiteSpace=wrap;html=1;fillColor=#fa6800;opacity=15;strokeColor=#C73500;fontColor=#000000;fontStyle=0" parent="1" vertex="1">
          <mxGeometry x="5380" y="-556" width="460" height="150" as="geometry" />
        </mxCell>
        <mxCell id="fk4BfuyukFRPb7nqBHwW-389" value="" style="rounded=0;whiteSpace=wrap;html=1;fillColor=#00FF80;opacity=15;strokeColor=#B09500;fontColor=#000000;fontStyle=0" parent="1" vertex="1">
          <mxGeometry x="5380" y="-746" width="460" height="150" as="geometry" />
        </mxCell>
        <mxCell id="fk4BfuyukFRPb7nqBHwW-380" value="" style="rounded=0;whiteSpace=wrap;html=1;fillColor=#e3c800;opacity=15;strokeColor=#B09500;fontColor=#000000;fontStyle=0" parent="1" vertex="1">
          <mxGeometry x="5380" y="-188" width="460" height="150" as="geometry" />
        </mxCell>
        <mxCell id="fk4BfuyukFRPb7nqBHwW-319" value="" style="shape=waypoint;sketch=0;size=6;pointerEvents=1;points=[];fillColor=none;resizable=0;rotatable=0;perimeter=centerPerimeter;snapToPoint=1;strokeColor=#66FFB3;fontStyle=0" parent="1" vertex="1">
          <mxGeometry x="5450" y="-1036" width="20" height="20" as="geometry" />
        </mxCell>
        <mxCell id="fk4BfuyukFRPb7nqBHwW-323" style="edgeStyle=orthogonalEdgeStyle;rounded=0;orthogonalLoop=1;jettySize=auto;html=1;exitX=0.5;exitY=1;exitDx=0;exitDy=0;entryX=0.5;entryY=0;entryDx=0;entryDy=0;fontStyle=0" parent="1" source="fk4BfuyukFRPb7nqBHwW-320" target="fk4BfuyukFRPb7nqBHwW-321" edge="1">
          <mxGeometry relative="1" as="geometry" />
        </mxCell>
        <mxCell id="fk4BfuyukFRPb7nqBHwW-320" value="OUTPUT&lt;div&gt;&lt;br&gt;&lt;/div&gt;&lt;div&gt;SEAT_SELECT_CAT&lt;/div&gt;" style="shape=parallelogram;perimeter=parallelogramPerimeter;whiteSpace=wrap;html=1;fixedSize=1;fontStyle=0" parent="1" vertex="1">
          <mxGeometry x="5380" y="-980.56" width="150" height="59.25" as="geometry" />
        </mxCell>
        <mxCell id="fk4BfuyukFRPb7nqBHwW-325" style="edgeStyle=orthogonalEdgeStyle;rounded=0;orthogonalLoop=1;jettySize=auto;html=1;exitX=0.5;exitY=1;exitDx=0;exitDy=0;entryX=0.5;entryY=0;entryDx=0;entryDy=0;fontStyle=0" parent="1" source="fk4BfuyukFRPb7nqBHwW-321" target="fk4BfuyukFRPb7nqBHwW-324" edge="1">
          <mxGeometry relative="1" as="geometry" />
        </mxCell>
        <mxCell id="fk4BfuyukFRPb7nqBHwW-321" value="INPUT&lt;div&gt;&lt;br&gt;&lt;/div&gt;&lt;div&gt;SEAT_SELECT_CAT&lt;br&gt;&lt;/div&gt;" style="shape=parallelogram;perimeter=parallelogramPerimeter;whiteSpace=wrap;html=1;fixedSize=1;strokeColor=#FFFFFF;fontStyle=0" parent="1" vertex="1">
          <mxGeometry x="5380" y="-863.06" width="150" height="60" as="geometry" />
        </mxCell>
        <mxCell id="fk4BfuyukFRPb7nqBHwW-322" style="edgeStyle=orthogonalEdgeStyle;rounded=0;orthogonalLoop=1;jettySize=auto;html=1;entryX=0.539;entryY=-0.007;entryDx=0;entryDy=0;entryPerimeter=0;strokeColor=#66FFB3;fontStyle=0" parent="1" source="fk4BfuyukFRPb7nqBHwW-319" target="fk4BfuyukFRPb7nqBHwW-320" edge="1">
          <mxGeometry relative="1" as="geometry" />
        </mxCell>
        <mxCell id="fk4BfuyukFRPb7nqBHwW-334" style="edgeStyle=orthogonalEdgeStyle;rounded=0;orthogonalLoop=1;jettySize=auto;html=1;exitX=0.5;exitY=1;exitDx=0;exitDy=0;entryX=0.5;entryY=0;entryDx=0;entryDy=0;fontStyle=0" parent="1" source="fk4BfuyukFRPb7nqBHwW-324" target="fk4BfuyukFRPb7nqBHwW-329" edge="1">
          <mxGeometry relative="1" as="geometry" />
        </mxCell>
        <mxCell id="fk4BfuyukFRPb7nqBHwW-324" value="SEAT_SELECT_CAT" style="rhombus;whiteSpace=wrap;html=1;fontStyle=0" parent="1" vertex="1">
          <mxGeometry x="5380" y="-746" width="150" height="150" as="geometry" />
        </mxCell>
        <mxCell id="fk4BfuyukFRPb7nqBHwW-368" style="edgeStyle=orthogonalEdgeStyle;rounded=0;orthogonalLoop=1;jettySize=auto;html=1;exitX=0.5;exitY=1;exitDx=0;exitDy=0;entryX=0.5;entryY=0;entryDx=0;entryDy=0;fontStyle=0" parent="1" source="fk4BfuyukFRPb7nqBHwW-329" target="fk4BfuyukFRPb7nqBHwW-367" edge="1">
          <mxGeometry relative="1" as="geometry" />
        </mxCell>
        <mxCell id="fk4BfuyukFRPb7nqBHwW-329" value="SEAT_SELECT_CAT" style="rhombus;whiteSpace=wrap;html=1;fontStyle=0" parent="1" vertex="1">
          <mxGeometry x="5380" y="-556" width="150" height="150" as="geometry" />
        </mxCell>
        <mxCell id="fk4BfuyukFRPb7nqBHwW-333" style="edgeStyle=orthogonalEdgeStyle;rounded=0;orthogonalLoop=1;jettySize=auto;html=1;exitX=0.5;exitY=0;exitDx=0;exitDy=0;entryX=0;entryY=0.5;entryDx=0;entryDy=0;fontStyle=0" parent="1" source="fk4BfuyukFRPb7nqBHwW-330" target="fk4BfuyukFRPb7nqBHwW-321" edge="1">
          <mxGeometry relative="1" as="geometry">
            <Array as="points">
              <mxPoint x="5285" y="-833.06" />
            </Array>
          </mxGeometry>
        </mxCell>
        <mxCell id="fk4BfuyukFRPb7nqBHwW-330" value="&lt;span style=&quot;font-weight: normal;&quot;&gt;CLEAR_SCREEN&lt;/span&gt;" style="rounded=0;whiteSpace=wrap;html=1;fontStyle=1" parent="1" vertex="1">
          <mxGeometry x="5210" y="-662.31" width="150" height="60" as="geometry" />
        </mxCell>
        <mxCell id="fk4BfuyukFRPb7nqBHwW-369" value="DEFAULT" style="edgeStyle=orthogonalEdgeStyle;rounded=0;orthogonalLoop=1;jettySize=auto;html=1;entryX=0.5;entryY=1;entryDx=0;entryDy=0;exitX=0.5;exitY=1;exitDx=0;exitDy=0;fontStyle=0" parent="1" source="fk4BfuyukFRPb7nqBHwW-375" target="fk4BfuyukFRPb7nqBHwW-330" edge="1">
          <mxGeometry relative="1" as="geometry">
            <mxPoint x="5320" y="-106" as="sourcePoint" />
          </mxGeometry>
        </mxCell>
        <mxCell id="fk4BfuyukFRPb7nqBHwW-376" style="edgeStyle=orthogonalEdgeStyle;rounded=0;orthogonalLoop=1;jettySize=auto;html=1;exitX=0.5;exitY=1;exitDx=0;exitDy=0;entryX=0.5;entryY=0;entryDx=0;entryDy=0;fontStyle=0" parent="1" source="fk4BfuyukFRPb7nqBHwW-367" target="fk4BfuyukFRPb7nqBHwW-375" edge="1">
          <mxGeometry relative="1" as="geometry" />
        </mxCell>
        <mxCell id="fk4BfuyukFRPb7nqBHwW-385" value="P" style="edgeStyle=orthogonalEdgeStyle;rounded=0;orthogonalLoop=1;jettySize=auto;html=1;exitX=1;exitY=0.5;exitDx=0;exitDy=0;entryX=0.26;entryY=0.555;entryDx=0;entryDy=0;entryPerimeter=0;fillColor=#d5e8d4;gradientColor=#97d077;strokeColor=#007000;fontStyle=0" parent="1" source="fk4BfuyukFRPb7nqBHwW-367" target="_7ieRwts1pLUNNnIRrpb-76" edge="1">
          <mxGeometry relative="1" as="geometry">
            <mxPoint x="5790" y="-296" as="targetPoint" />
          </mxGeometry>
        </mxCell>
        <mxCell id="fk4BfuyukFRPb7nqBHwW-367" value="SEAT_SELECT_CAT" style="rhombus;whiteSpace=wrap;html=1;fontStyle=0" parent="1" vertex="1">
          <mxGeometry x="5380" y="-370.5" width="150" height="150" as="geometry" />
        </mxCell>
        <mxCell id="fk4BfuyukFRPb7nqBHwW-375" value="SEAT_SELECT_CAT" style="rhombus;whiteSpace=wrap;html=1;fontStyle=0" parent="1" vertex="1">
          <mxGeometry x="5380" y="-188" width="150" height="150" as="geometry" />
        </mxCell>
        <mxCell id="fk4BfuyukFRPb7nqBHwW-381" value="" style="shape=waypoint;sketch=0;size=6;pointerEvents=1;points=[];fillColor=#e3c800;resizable=0;rotatable=0;perimeter=centerPerimeter;snapToPoint=1;fontColor=#000000;strokeColor=#B09500;fontStyle=0" parent="1" vertex="1">
          <mxGeometry x="5780" y="-123" width="20" height="20" as="geometry" />
        </mxCell>
        <mxCell id="fk4BfuyukFRPb7nqBHwW-382" value="B" style="edgeStyle=orthogonalEdgeStyle;rounded=0;orthogonalLoop=1;jettySize=auto;html=1;exitX=1;exitY=0.5;exitDx=0;exitDy=0;entryX=0.7;entryY=0.813;entryDx=0;entryDy=0;entryPerimeter=0;fillColor=#e3c800;strokeColor=#B09500;fontStyle=0" parent="1" source="fk4BfuyukFRPb7nqBHwW-375" target="fk4BfuyukFRPb7nqBHwW-381" edge="1">
          <mxGeometry relative="1" as="geometry" />
        </mxCell>
        <mxCell id="fk4BfuyukFRPb7nqBHwW-384" value="BACK / UNDO" style="text;html=1;align=center;verticalAlign=middle;whiteSpace=wrap;rounded=0;fontStyle=0" parent="1" vertex="1">
          <mxGeometry x="5580" y="-164" width="237" height="30" as="geometry" />
        </mxCell>
        <mxCell id="fk4BfuyukFRPb7nqBHwW-386" value="CONFIRM PAYMENT" style="text;html=1;align=center;verticalAlign=middle;resizable=0;points=[];autosize=1;strokeColor=none;fillColor=none;fontStyle=0" parent="1" vertex="1">
          <mxGeometry x="5625" y="-346" width="140" height="30" as="geometry" />
        </mxCell>
        <mxCell id="fk4BfuyukFRPb7nqBHwW-387" value="REMOVE MODE" style="text;html=1;align=center;verticalAlign=middle;resizable=0;points=[];autosize=1;strokeColor=none;fillColor=none;fontStyle=0" parent="1" vertex="1">
          <mxGeometry x="5640" y="-536" width="110" height="30" as="geometry" />
        </mxCell>
        <mxCell id="fk4BfuyukFRPb7nqBHwW-388" value="SELECT MODE" style="text;html=1;align=center;verticalAlign=middle;resizable=0;points=[];autosize=1;strokeColor=none;fillColor=none;fontStyle=0" parent="1" vertex="1">
          <mxGeometry x="5643.5" y="-726" width="110" height="30" as="geometry" />
        </mxCell>
        <mxCell id="5m1O86NGaFOG43O_L-Pf-8" value="" style="shape=waypoint;sketch=0;size=6;pointerEvents=1;points=[];fillColor=none;resizable=0;rotatable=0;perimeter=centerPerimeter;snapToPoint=1;strokeColor=#00FF80;fontStyle=0" parent="1" vertex="1">
          <mxGeometry x="5780" y="-681" width="20" height="20" as="geometry" />
        </mxCell>
        <mxCell id="5m1O86NGaFOG43O_L-Pf-9" value="S" style="edgeStyle=orthogonalEdgeStyle;rounded=0;orthogonalLoop=1;jettySize=auto;html=1;exitX=1;exitY=0.5;exitDx=0;exitDy=0;entryX=0.447;entryY=0.833;entryDx=0;entryDy=0;entryPerimeter=0;strokeColor=#00FF80;fontStyle=0" parent="1" source="fk4BfuyukFRPb7nqBHwW-324" target="5m1O86NGaFOG43O_L-Pf-8" edge="1">
          <mxGeometry relative="1" as="geometry" />
        </mxCell>
        <mxCell id="_7ieRwts1pLUNNnIRrpb-26" value="B" style="edgeStyle=orthogonalEdgeStyle;rounded=0;orthogonalLoop=1;jettySize=auto;html=1;entryX=1;entryY=0.25;entryDx=0;entryDy=0;strokeColor=#66FFB3;fontStyle=0" parent="1" source="_7ieRwts1pLUNNnIRrpb-25" target="fk4BfuyukFRPb7nqBHwW-320" edge="1">
          <mxGeometry relative="1" as="geometry">
            <Array as="points">
              <mxPoint x="5757" y="-965" />
              <mxPoint x="5670" y="-965" />
            </Array>
          </mxGeometry>
        </mxCell>
        <mxCell id="_7ieRwts1pLUNNnIRrpb-25" value="" style="shape=waypoint;sketch=0;size=6;pointerEvents=1;points=[];fillColor=none;resizable=0;rotatable=0;perimeter=centerPerimeter;snapToPoint=1;strokeColor=#66FFB3;fontStyle=0" parent="1" vertex="1">
          <mxGeometry x="5746.5" y="-1000.56" width="20" height="20" as="geometry" />
        </mxCell>
        <mxCell id="_7ieRwts1pLUNNnIRrpb-40" value="" style="shape=waypoint;sketch=0;size=6;pointerEvents=1;points=[];fillColor=#fa6800;resizable=0;rotatable=0;perimeter=centerPerimeter;snapToPoint=1;strokeColor=#C73500;fontColor=#000000;fontStyle=0" parent="1" vertex="1">
          <mxGeometry x="5780" y="-491" width="20" height="20" as="geometry" />
        </mxCell>
        <mxCell id="_7ieRwts1pLUNNnIRrpb-41" value="R" style="edgeStyle=orthogonalEdgeStyle;rounded=0;orthogonalLoop=1;jettySize=auto;html=1;exitX=1;exitY=0.5;exitDx=0;exitDy=0;entryX=0.893;entryY=0.826;entryDx=0;entryDy=0;entryPerimeter=0;fillColor=#fa6800;strokeColor=#C73500;fontStyle=0" parent="1" source="fk4BfuyukFRPb7nqBHwW-329" target="_7ieRwts1pLUNNnIRrpb-40" edge="1">
          <mxGeometry relative="1" as="geometry" />
        </mxCell>
        <mxCell id="_7ieRwts1pLUNNnIRrpb-62" value="&lt;span style=&quot;text-align: center;&quot;&gt;SEAT_SELECT_EDIT&lt;/span&gt;" style="text;whiteSpace=wrap;html=1;fontStyle=0" parent="1" vertex="1">
          <mxGeometry x="5700" y="-1025" width="66.5" height="31" as="geometry" />
        </mxCell>
        <mxCell id="_7ieRwts1pLUNNnIRrpb-63" value="&lt;span style=&quot;color: rgb(240, 240, 240); font-family: Helvetica; font-size: 12px; font-style: normal; font-variant-ligatures: normal; font-variant-caps: normal; font-weight: 400; letter-spacing: normal; orphans: 2; text-align: center; text-indent: 0px; text-transform: none; widows: 2; word-spacing: 0px; -webkit-text-stroke-width: 0px; white-space: normal; background-color: rgb(27, 29, 30); float: none; display: inline !important;&quot;&gt;SEAT_CAT&lt;/span&gt;" style="text;whiteSpace=wrap;html=1;fontStyle=0" parent="1" vertex="1">
          <mxGeometry x="5430" y="-1061" width="60" height="25" as="geometry" />
        </mxCell>
        <mxCell id="_7ieRwts1pLUNNnIRrpb-76" value="" style="shape=waypoint;sketch=0;size=6;pointerEvents=1;points=[];fillColor=#007000;resizable=0;rotatable=0;perimeter=centerPerimeter;snapToPoint=1;strokeColor=#007000;fontColor=#000000;fontStyle=0" parent="1" vertex="1">
          <mxGeometry x="5780" y="-305.5" width="20" height="20" as="geometry" />
        </mxCell>
        <mxCell id="_7ieRwts1pLUNNnIRrpb-95" style="edgeStyle=orthogonalEdgeStyle;rounded=0;orthogonalLoop=1;jettySize=auto;html=1;strokeColor=#007000;fontStyle=0" parent="1" source="_7ieRwts1pLUNNnIRrpb-80" target="_7ieRwts1pLUNNnIRrpb-85" edge="1">
          <mxGeometry relative="1" as="geometry">
            <mxPoint x="4617.941176470588" y="218" as="targetPoint" />
          </mxGeometry>
        </mxCell>
        <mxCell id="_7ieRwts1pLUNNnIRrpb-80" value="" style="shape=waypoint;sketch=0;size=6;pointerEvents=1;points=[];fillColor=#007000;resizable=0;rotatable=0;perimeter=centerPerimeter;snapToPoint=1;strokeColor=#007000;fontColor=#000000;fontStyle=0" parent="1" vertex="1">
          <mxGeometry x="4608" y="168" width="20" height="20" as="geometry" />
        </mxCell>
        <mxCell id="_7ieRwts1pLUNNnIRrpb-81" value="SHOW ITEMS" style="text;html=1;align=center;verticalAlign=middle;resizable=0;points=[];autosize=1;strokeColor=none;fillColor=none;fontStyle=0" parent="1" vertex="1">
          <mxGeometry x="4946" y="30" width="100" height="30" as="geometry" />
        </mxCell>
        <mxCell id="_7ieRwts1pLUNNnIRrpb-99" value="" style="edgeStyle=orthogonalEdgeStyle;rounded=0;orthogonalLoop=1;jettySize=auto;html=1;fontStyle=0" parent="1" source="_7ieRwts1pLUNNnIRrpb-85" target="_7ieRwts1pLUNNnIRrpb-98" edge="1">
          <mxGeometry relative="1" as="geometry" />
        </mxCell>
        <mxCell id="_7ieRwts1pLUNNnIRrpb-85" value="OUTPUT&lt;div&gt;&lt;br&gt;&lt;/div&gt;&lt;div&gt;ITEMS_CFMSG&lt;/div&gt;" style="shape=parallelogram;perimeter=parallelogramPerimeter;whiteSpace=wrap;html=1;fixedSize=1;strokeColor=#FFFFFF;fontStyle=0" parent="1" vertex="1">
          <mxGeometry x="4543" y="218" width="150" height="60" as="geometry" />
        </mxCell>
        <mxCell id="_7ieRwts1pLUNNnIRrpb-103" style="edgeStyle=orthogonalEdgeStyle;rounded=0;orthogonalLoop=1;jettySize=auto;html=1;exitX=0.5;exitY=1;exitDx=0;exitDy=0;entryX=0.5;entryY=0;entryDx=0;entryDy=0;fontStyle=0" parent="1" source="_7ieRwts1pLUNNnIRrpb-86" target="_7ieRwts1pLUNNnIRrpb-101" edge="1">
          <mxGeometry relative="1" as="geometry" />
        </mxCell>
        <mxCell id="_7ieRwts1pLUNNnIRrpb-109" value="Y" style="edgeStyle=orthogonalEdgeStyle;rounded=0;orthogonalLoop=1;jettySize=auto;html=1;exitX=1;exitY=0.5;exitDx=0;exitDy=0;strokeColor=#4D9900;fontStyle=0" parent="1" source="_7ieRwts1pLUNNnIRrpb-86" target="_7ieRwts1pLUNNnIRrpb-105" edge="1">
          <mxGeometry relative="1" as="geometry" />
        </mxCell>
        <mxCell id="_7ieRwts1pLUNNnIRrpb-86" value="ITEMS_CFREPLY" style="rhombus;whiteSpace=wrap;html=1;fontStyle=0" parent="1" vertex="1">
          <mxGeometry x="4543" y="578" width="150" height="150" as="geometry" />
        </mxCell>
        <mxCell id="jepS8LiPJiyBPYWLw1s4-117" style="edgeStyle=orthogonalEdgeStyle;rounded=0;orthogonalLoop=1;jettySize=auto;html=1;exitX=0.5;exitY=0;exitDx=0;exitDy=0;entryX=0.25;entryY=1;entryDx=0;entryDy=0;fontStyle=0" parent="1" source="_7ieRwts1pLUNNnIRrpb-90" target="5m1O86NGaFOG43O_L-Pf-5" edge="1">
          <mxGeometry relative="1" as="geometry" />
        </mxCell>
        <mxCell id="_7ieRwts1pLUNNnIRrpb-90" value="&lt;span style=&quot;font-weight: 400;&quot;&gt;SEAT_COUNT&lt;/span&gt;" style="rounded=0;whiteSpace=wrap;html=1;fontStyle=1;movable=0;" parent="1" vertex="1">
          <mxGeometry x="6430" y="-675.49" width="160" height="60" as="geometry" />
        </mxCell>
        <mxCell id="_7ieRwts1pLUNNnIRrpb-97" value="&lt;span style=&quot;color: rgb(240, 240, 240); font-family: Helvetica; font-size: 12px; font-style: normal; font-variant-ligatures: normal; font-variant-caps: normal; font-weight: 400; letter-spacing: normal; orphans: 2; text-align: center; text-indent: 0px; text-transform: none; widows: 2; word-spacing: 0px; -webkit-text-stroke-width: 0px; white-space: normal; background-color: rgb(27, 29, 30); float: none; display: inline !important;&quot;&gt;SEAT_SELECT_CAT&lt;/span&gt;" style="text;whiteSpace=wrap;html=1;fontStyle=0" parent="1" vertex="1">
          <mxGeometry x="4558" y="148" width="120" height="30" as="geometry" />
        </mxCell>
        <mxCell id="_7ieRwts1pLUNNnIRrpb-100" style="edgeStyle=orthogonalEdgeStyle;rounded=0;orthogonalLoop=1;jettySize=auto;html=1;exitX=0.5;exitY=1;exitDx=0;exitDy=0;entryX=0.5;entryY=0;entryDx=0;entryDy=0;fontStyle=0" parent="1" source="_7ieRwts1pLUNNnIRrpb-98" target="_7ieRwts1pLUNNnIRrpb-86" edge="1">
          <mxGeometry relative="1" as="geometry" />
        </mxCell>
        <mxCell id="_7ieRwts1pLUNNnIRrpb-98" value="INPUT&lt;br&gt;&lt;br&gt;ITEMS_CFREPLY" style="shape=parallelogram;perimeter=parallelogramPerimeter;whiteSpace=wrap;html=1;fixedSize=1;strokeColor=#FFFFFF;fontStyle=0" parent="1" vertex="1">
          <mxGeometry x="4543" y="458" width="150" height="60" as="geometry" />
        </mxCell>
        <mxCell id="_7ieRwts1pLUNNnIRrpb-116" value="DEFAULT" style="edgeStyle=orthogonalEdgeStyle;rounded=0;orthogonalLoop=1;jettySize=auto;html=1;exitX=0.5;exitY=1;exitDx=0;exitDy=0;entryX=0.5;entryY=1;entryDx=0;entryDy=0;fontStyle=0" parent="1" source="_7ieRwts1pLUNNnIRrpb-101" target="_7ieRwts1pLUNNnIRrpb-115" edge="1">
          <mxGeometry relative="1" as="geometry" />
        </mxCell>
        <mxCell id="_7ieRwts1pLUNNnIRrpb-101" value="ITEMS_CFREPLY" style="rhombus;whiteSpace=wrap;html=1;fontStyle=0" parent="1" vertex="1">
          <mxGeometry x="4543" y="783" width="150" height="150" as="geometry" />
        </mxCell>
        <mxCell id="_7ieRwts1pLUNNnIRrpb-105" value="" style="shape=waypoint;sketch=0;size=6;pointerEvents=1;points=[];fillColor=none;resizable=0;rotatable=0;perimeter=centerPerimeter;snapToPoint=1;strokeColor=#4D9900;fontStyle=0" parent="1" vertex="1">
          <mxGeometry x="4928" y="643" width="20" height="20" as="geometry" />
        </mxCell>
        <mxCell id="_7ieRwts1pLUNNnIRrpb-106" value="" style="shape=waypoint;sketch=0;size=6;pointerEvents=1;points=[];fillColor=none;resizable=0;rotatable=0;perimeter=centerPerimeter;snapToPoint=1;strokeColor=#66FFB3;fontStyle=0" parent="1" vertex="1">
          <mxGeometry x="4928" y="848" width="20" height="20" as="geometry" />
        </mxCell>
        <mxCell id="_7ieRwts1pLUNNnIRrpb-108" value="N" style="edgeStyle=orthogonalEdgeStyle;rounded=0;orthogonalLoop=1;jettySize=auto;html=1;exitX=1;exitY=0.5;exitDx=0;exitDy=0;entryX=0.303;entryY=0.567;entryDx=0;entryDy=0;entryPerimeter=0;strokeColor=#66FFB3;fontStyle=0" parent="1" source="_7ieRwts1pLUNNnIRrpb-101" target="_7ieRwts1pLUNNnIRrpb-106" edge="1">
          <mxGeometry relative="1" as="geometry" />
        </mxCell>
        <mxCell id="_7ieRwts1pLUNNnIRrpb-131" value="N" style="edgeStyle=orthogonalEdgeStyle;rounded=0;orthogonalLoop=1;jettySize=auto;html=1;entryX=1;entryY=0.5;entryDx=0;entryDy=0;strokeColor=#66FFB3;fontStyle=0" parent="1" source="_7ieRwts1pLUNNnIRrpb-110" target="fk4BfuyukFRPb7nqBHwW-320" edge="1">
          <mxGeometry relative="1" as="geometry" />
        </mxCell>
        <mxCell id="_7ieRwts1pLUNNnIRrpb-110" value="" style="shape=waypoint;sketch=0;size=6;pointerEvents=1;points=[];fillColor=none;resizable=0;rotatable=0;perimeter=centerPerimeter;snapToPoint=1;strokeColor=#66FFB3;fontStyle=0" parent="1" vertex="1">
          <mxGeometry x="5826.5" y="-960.93" width="20" height="20" as="geometry" />
        </mxCell>
        <mxCell id="_7ieRwts1pLUNNnIRrpb-113" value="&lt;span style=&quot;color: rgb(240, 240, 240); font-family: Helvetica; font-size: 12px; font-style: normal; font-variant-ligatures: normal; font-variant-caps: normal; font-weight: 400; letter-spacing: normal; orphans: 2; text-align: center; text-indent: 0px; text-transform: none; widows: 2; word-spacing: 0px; -webkit-text-stroke-width: 0px; white-space: normal; background-color: rgb(27, 29, 30); float: none; display: inline !important;&quot;&gt;ITEMS_CFREPLY&lt;/span&gt;" style="text;whiteSpace=wrap;html=1;fontStyle=0" parent="1" vertex="1">
          <mxGeometry x="5786.5" y="-981.06" width="100" height="23" as="geometry" />
        </mxCell>
        <mxCell id="_7ieRwts1pLUNNnIRrpb-117" style="edgeStyle=orthogonalEdgeStyle;rounded=0;orthogonalLoop=1;jettySize=auto;html=1;exitX=0.5;exitY=0;exitDx=0;exitDy=0;fontStyle=0" parent="1" source="_7ieRwts1pLUNNnIRrpb-115" target="_7ieRwts1pLUNNnIRrpb-85" edge="1">
          <mxGeometry relative="1" as="geometry">
            <mxPoint x="4552.999999999999" y="247.625" as="targetPoint" />
            <Array as="points">
              <mxPoint x="4423" y="248" />
            </Array>
          </mxGeometry>
        </mxCell>
        <mxCell id="_7ieRwts1pLUNNnIRrpb-115" value="&lt;span style=&quot;font-weight: normal;&quot;&gt;CLEAR_SCREEN&lt;/span&gt;" style="rounded=0;whiteSpace=wrap;html=1;fontStyle=1" parent="1" vertex="1">
          <mxGeometry x="4348" y="458" width="150" height="60" as="geometry" />
        </mxCell>
        <mxCell id="_7ieRwts1pLUNNnIRrpb-118" value="CASH IN &amp;amp; OUT" style="text;html=1;align=center;verticalAlign=middle;resizable=0;points=[];autosize=1;strokeColor=none;fillColor=none;fontStyle=0" parent="1" vertex="1">
          <mxGeometry x="5806" y="30" width="110" height="30" as="geometry" />
        </mxCell>
        <mxCell id="_7ieRwts1pLUNNnIRrpb-126" style="edgeStyle=orthogonalEdgeStyle;rounded=0;orthogonalLoop=1;jettySize=auto;html=1;entryX=0.5;entryY=0;entryDx=0;entryDy=0;strokeColor=#4D9900;fontStyle=0" parent="1" source="_7ieRwts1pLUNNnIRrpb-121" target="_7ieRwts1pLUNNnIRrpb-125" edge="1">
          <mxGeometry relative="1" as="geometry" />
        </mxCell>
        <mxCell id="jepS8LiPJiyBPYWLw1s4-461" style="edgeStyle=orthogonalEdgeStyle;rounded=0;orthogonalLoop=1;jettySize=auto;html=1;strokeColor=#4D9900;" parent="1" source="_7ieRwts1pLUNNnIRrpb-121" target="jepS8LiPJiyBPYWLw1s4-460" edge="1">
          <mxGeometry relative="1" as="geometry" />
        </mxCell>
        <mxCell id="_7ieRwts1pLUNNnIRrpb-121" value="" style="shape=waypoint;sketch=0;size=6;pointerEvents=1;points=[];fillColor=none;resizable=0;rotatable=0;perimeter=centerPerimeter;snapToPoint=1;strokeColor=#4D9900;fontStyle=0" parent="1" vertex="1">
          <mxGeometry x="5397" y="120" width="20" height="20" as="geometry" />
        </mxCell>
        <mxCell id="_7ieRwts1pLUNNnIRrpb-129" style="edgeStyle=orthogonalEdgeStyle;rounded=0;orthogonalLoop=1;jettySize=auto;html=1;entryX=0.5;entryY=0;entryDx=0;entryDy=0;fontStyle=0" parent="1" source="_7ieRwts1pLUNNnIRrpb-125" target="_7ieRwts1pLUNNnIRrpb-128" edge="1">
          <mxGeometry relative="1" as="geometry" />
        </mxCell>
        <mxCell id="_7ieRwts1pLUNNnIRrpb-125" value="OUTPUT&lt;div&gt;&lt;br&gt;&lt;/div&gt;&lt;div&gt;CASHIER&lt;/div&gt;" style="shape=parallelogram;perimeter=parallelogramPerimeter;whiteSpace=wrap;html=1;fixedSize=1;fontStyle=0" parent="1" vertex="1">
          <mxGeometry x="5332" y="318" width="150" height="59.25" as="geometry" />
        </mxCell>
        <mxCell id="_7ieRwts1pLUNNnIRrpb-127" value="&lt;span style=&quot;color: rgb(240, 240, 240); font-family: Helvetica; font-size: 12px; font-style: normal; font-variant-ligatures: normal; font-variant-caps: normal; font-weight: 400; letter-spacing: normal; orphans: 2; text-align: center; text-indent: 0px; text-transform: none; widows: 2; word-spacing: 0px; -webkit-text-stroke-width: 0px; white-space: normal; background-color: rgb(27, 29, 30); float: none; display: inline !important;&quot;&gt;ITEMS_CFREPLY&lt;/span&gt;" style="text;whiteSpace=wrap;html=1;fontStyle=0" parent="1" vertex="1">
          <mxGeometry x="5357" y="90" width="100" height="20" as="geometry" />
        </mxCell>
        <mxCell id="_7ieRwts1pLUNNnIRrpb-133" style="edgeStyle=orthogonalEdgeStyle;rounded=0;orthogonalLoop=1;jettySize=auto;html=1;exitX=0.5;exitY=1;exitDx=0;exitDy=0;entryX=0.5;entryY=0;entryDx=0;entryDy=0;fontStyle=0" parent="1" source="_7ieRwts1pLUNNnIRrpb-128" target="_7ieRwts1pLUNNnIRrpb-132" edge="1">
          <mxGeometry relative="1" as="geometry" />
        </mxCell>
        <mxCell id="_7ieRwts1pLUNNnIRrpb-128" value="INPUT&lt;br&gt;&lt;br&gt;CASH_INPUT" style="shape=parallelogram;perimeter=parallelogramPerimeter;whiteSpace=wrap;html=1;fixedSize=1;strokeColor=#FFFFFF;fontStyle=0" parent="1" vertex="1">
          <mxGeometry x="5332" y="438" width="150" height="60" as="geometry" />
        </mxCell>
        <mxCell id="_7ieRwts1pLUNNnIRrpb-134" value="TRUE" style="edgeStyle=orthogonalEdgeStyle;rounded=0;orthogonalLoop=1;jettySize=auto;html=1;exitX=0.5;exitY=1;exitDx=0;exitDy=0;entryX=0.5;entryY=0;entryDx=0;entryDy=0;fontStyle=0" parent="1" source="_7ieRwts1pLUNNnIRrpb-132" target="jepS8LiPJiyBPYWLw1s4-5" edge="1">
          <mxGeometry relative="1" as="geometry">
            <mxPoint x="5255" y="728" as="targetPoint" />
            <Array as="points" />
          </mxGeometry>
        </mxCell>
        <mxCell id="_7ieRwts1pLUNNnIRrpb-136" value="FALSE" style="edgeStyle=orthogonalEdgeStyle;rounded=0;orthogonalLoop=1;jettySize=auto;html=1;exitX=1;exitY=0.5;exitDx=0;exitDy=0;entryX=0;entryY=0.5;entryDx=0;entryDy=0;strokeColor=#66FFB3;fontStyle=0" parent="1" source="_7ieRwts1pLUNNnIRrpb-132" target="_7ieRwts1pLUNNnIRrpb-137" edge="1">
          <mxGeometry x="0.0028" relative="1" as="geometry">
            <mxPoint x="5535" y="623" as="targetPoint" />
            <mxPoint as="offset" />
          </mxGeometry>
        </mxCell>
        <mxCell id="jepS8LiPJiyBPYWLw1s4-482" value="DEFAULT" style="edgeStyle=orthogonalEdgeStyle;rounded=0;orthogonalLoop=1;jettySize=auto;html=1;exitX=0;exitY=0.5;exitDx=0;exitDy=0;entryX=0.5;entryY=1;entryDx=0;entryDy=0;" parent="1" source="_7ieRwts1pLUNNnIRrpb-132" target="jepS8LiPJiyBPYWLw1s4-481" edge="1">
          <mxGeometry relative="1" as="geometry">
            <mxPoint x="5310" y="870" as="targetPoint" />
            <Array as="points">
              <mxPoint x="5300" y="623" />
              <mxPoint x="5300" y="730" />
              <mxPoint x="5215" y="730" />
            </Array>
          </mxGeometry>
        </mxCell>
        <mxCell id="_7ieRwts1pLUNNnIRrpb-132" value="CASH_INPUT" style="rhombus;whiteSpace=wrap;html=1;fontStyle=0" parent="1" vertex="1">
          <mxGeometry x="5332" y="548" width="150" height="150" as="geometry" />
        </mxCell>
        <mxCell id="jepS8LiPJiyBPYWLw1s4-39" style="edgeStyle=orthogonalEdgeStyle;rounded=0;orthogonalLoop=1;jettySize=auto;html=1;exitX=1;exitY=0.5;exitDx=0;exitDy=0;entryX=0;entryY=0.5;entryDx=0;entryDy=0;strokeColor=#66FFB3;fontStyle=0" parent="1" source="_7ieRwts1pLUNNnIRrpb-137" target="jepS8LiPJiyBPYWLw1s4-45" edge="1">
          <mxGeometry relative="1" as="geometry">
            <mxPoint x="5560" y="620.69" as="targetPoint" />
          </mxGeometry>
        </mxCell>
        <mxCell id="_7ieRwts1pLUNNnIRrpb-137" value="OUTPUT&lt;div&gt;&lt;br&gt;&lt;/div&gt;&lt;div&gt;MONEY_MESSAGE&lt;/div&gt;" style="shape=parallelogram;perimeter=parallelogramPerimeter;whiteSpace=wrap;html=1;fixedSize=1;strokeColor=#66FFB3;fontStyle=0" parent="1" vertex="1">
          <mxGeometry x="5525" y="593.37" width="150" height="54.63" as="geometry" />
        </mxCell>
        <mxCell id="_7ieRwts1pLUNNnIRrpb-140" value="" style="shape=waypoint;sketch=0;size=6;pointerEvents=1;points=[];fillColor=default;resizable=0;rotatable=0;perimeter=centerPerimeter;snapToPoint=1;strokeColor=#66FFB3;fontStyle=0" parent="1" vertex="1">
          <mxGeometry x="5780" y="298.005" width="20" height="20" as="geometry" />
        </mxCell>
        <mxCell id="jepS8LiPJiyBPYWLw1s4-48" style="edgeStyle=orthogonalEdgeStyle;rounded=0;orthogonalLoop=1;jettySize=auto;html=1;exitX=1;exitY=0.5;exitDx=0;exitDy=0;entryX=0;entryY=0.5;entryDx=0;entryDy=0;fillColor=#60a917;strokeColor=#00FF80;fontStyle=0" parent="1" source="jepS8LiPJiyBPYWLw1s4-5" target="jepS8LiPJiyBPYWLw1s4-47" edge="1">
          <mxGeometry relative="1" as="geometry" />
        </mxCell>
        <mxCell id="jepS8LiPJiyBPYWLw1s4-5" value="OUTPUT&lt;div&gt;&lt;br&gt;&lt;/div&gt;&lt;div&gt;MONEY_MESSAGE&lt;/div&gt;" style="shape=parallelogram;perimeter=parallelogramPerimeter;whiteSpace=wrap;html=1;fixedSize=1;strokeColor=#00FF80;fontStyle=0" parent="1" vertex="1">
          <mxGeometry x="5332" y="768" width="150" height="59.25" as="geometry" />
        </mxCell>
        <mxCell id="jepS8LiPJiyBPYWLw1s4-10" value="FALSE" style="edgeStyle=orthogonalEdgeStyle;rounded=0;orthogonalLoop=1;jettySize=auto;html=1;entryX=1;entryY=0.75;entryDx=0;entryDy=0;strokeColor=#66FFB3;fontStyle=0" parent="1" source="jepS8LiPJiyBPYWLw1s4-9" target="fk4BfuyukFRPb7nqBHwW-320" edge="1">
          <mxGeometry relative="1" as="geometry">
            <Array as="points">
              <mxPoint x="5755" y="-939" />
            </Array>
          </mxGeometry>
        </mxCell>
        <mxCell id="jepS8LiPJiyBPYWLw1s4-9" value="" style="shape=waypoint;sketch=0;size=6;pointerEvents=1;points=[];fillColor=none;resizable=0;rotatable=0;perimeter=centerPerimeter;snapToPoint=1;strokeColor=#66FFB3;fontStyle=0" parent="1" vertex="1">
          <mxGeometry x="5745" y="-921.31" width="20" height="20" as="geometry" />
        </mxCell>
        <mxCell id="jepS8LiPJiyBPYWLw1s4-13" value="&lt;span style=&quot;color: rgb(240, 240, 240); font-family: Helvetica; font-size: 12px; font-style: normal; font-variant-ligatures: normal; font-variant-caps: normal; font-weight: 400; letter-spacing: normal; orphans: 2; text-align: center; text-indent: 0px; text-transform: none; widows: 2; word-spacing: 0px; -webkit-text-stroke-width: 0px; white-space: normal; background-color: rgb(27, 29, 30); float: none; display: inline !important;&quot;&gt;CASH_INPUT&lt;/span&gt;" style="text;whiteSpace=wrap;html=1;fontStyle=0" parent="1" vertex="1">
          <mxGeometry x="5716.75" y="-906.25" width="73" height="26.25" as="geometry" />
        </mxCell>
        <mxCell id="jepS8LiPJiyBPYWLw1s4-15" value="" style="shape=waypoint;sketch=0;size=6;pointerEvents=1;points=[];fillColor=none;resizable=0;rotatable=0;perimeter=centerPerimeter;snapToPoint=1;strokeColor=#00FF80;fontStyle=0" parent="1" vertex="1">
          <mxGeometry x="5784" y="787.62" width="20" height="20" as="geometry" />
        </mxCell>
        <mxCell id="jepS8LiPJiyBPYWLw1s4-16" value="" style="shape=waypoint;sketch=0;size=6;pointerEvents=1;points=[];fillColor=none;resizable=0;rotatable=0;perimeter=centerPerimeter;snapToPoint=1;strokeColor=#00FF80;movable=0;fontStyle=0" parent="1" vertex="1">
          <mxGeometry x="6695" y="-374.24" width="20" height="20" as="geometry" />
        </mxCell>
        <mxCell id="jepS8LiPJiyBPYWLw1s4-18" value="TRUE" style="edgeStyle=orthogonalEdgeStyle;rounded=0;orthogonalLoop=1;jettySize=auto;html=1;entryX=0.75;entryY=1;entryDx=0;entryDy=0;strokeColor=#00FF80;movable=0;fontStyle=0" parent="1" source="jepS8LiPJiyBPYWLw1s4-16" target="5m1O86NGaFOG43O_L-Pf-4" edge="1">
          <mxGeometry relative="1" as="geometry" />
        </mxCell>
        <mxCell id="jepS8LiPJiyBPYWLw1s4-24" value="&lt;span style=&quot;color: rgb(240, 240, 240); font-family: Helvetica; font-size: 12px; font-style: normal; font-variant-ligatures: normal; font-variant-caps: normal; font-weight: 400; letter-spacing: normal; orphans: 2; text-indent: 0px; text-transform: none; widows: 2; word-spacing: 0px; -webkit-text-stroke-width: 0px; white-space: normal; background-color: rgb(27, 29, 30); float: none; display: inline !important;&quot;&gt;CASH_INPUT&lt;/span&gt;" style="text;whiteSpace=wrap;html=1;movable=1;align=center;fontStyle=0" parent="1" vertex="1">
          <mxGeometry x="6645" y="-359.25" width="120" height="30" as="geometry" />
        </mxCell>
        <mxCell id="jepS8LiPJiyBPYWLw1s4-29" value="" style="shape=waypoint;sketch=0;size=6;pointerEvents=1;points=[];fillColor=none;resizable=0;rotatable=0;perimeter=centerPerimeter;snapToPoint=1;strokeColor=#4D9900;movable=0;fontStyle=0" parent="1" vertex="1">
          <mxGeometry x="6695" y="-971.74" width="20" height="20" as="geometry" />
        </mxCell>
        <mxCell id="jepS8LiPJiyBPYWLw1s4-40" style="edgeStyle=orthogonalEdgeStyle;rounded=0;orthogonalLoop=1;jettySize=auto;html=1;exitX=0.5;exitY=0;exitDx=0;exitDy=0;entryX=0.4;entryY=0.708;entryDx=0;entryDy=0;entryPerimeter=0;strokeColor=#66FFB3;fontStyle=0" parent="1" source="jepS8LiPJiyBPYWLw1s4-385" target="_7ieRwts1pLUNNnIRrpb-140" edge="1">
          <mxGeometry relative="1" as="geometry">
            <mxPoint x="5790" y="398.75" as="sourcePoint" />
          </mxGeometry>
        </mxCell>
        <mxCell id="jepS8LiPJiyBPYWLw1s4-466" style="edgeStyle=orthogonalEdgeStyle;rounded=0;orthogonalLoop=1;jettySize=auto;html=1;exitX=0.5;exitY=0;exitDx=0;exitDy=0;entryX=0.5;entryY=1;entryDx=0;entryDy=0;strokeColor=#66FFB3;" parent="1" source="jepS8LiPJiyBPYWLw1s4-45" target="jepS8LiPJiyBPYWLw1s4-385" edge="1">
          <mxGeometry relative="1" as="geometry" />
        </mxCell>
        <mxCell id="jepS8LiPJiyBPYWLw1s4-45" value="&lt;div&gt;&lt;span style=&quot;background-color: initial;&quot;&gt;OUTPUT&lt;/span&gt;&lt;br&gt;&lt;/div&gt;&lt;div&gt;&lt;span style=&quot;background-color: initial;&quot;&gt;&lt;br&gt;&lt;/span&gt;&lt;/div&gt;&lt;div&gt;&lt;span style=&quot;background-color: initial;&quot;&gt;CASH_OUTPUT&lt;/span&gt;&lt;/div&gt;" style="shape=parallelogram;perimeter=parallelogramPerimeter;whiteSpace=wrap;html=1;fixedSize=1;strokeColor=#66FFB3;fontStyle=0" parent="1" vertex="1">
          <mxGeometry x="5714" y="591.0600000000001" width="150" height="59.25" as="geometry" />
        </mxCell>
        <mxCell id="jepS8LiPJiyBPYWLw1s4-47" value="&lt;div&gt;&lt;span style=&quot;background-color: initial;&quot;&gt;OUTPUT&lt;/span&gt;&lt;br&gt;&lt;/div&gt;&lt;div&gt;&lt;span style=&quot;background-color: initial;&quot;&gt;&lt;br&gt;&lt;/span&gt;&lt;/div&gt;&lt;div&gt;&lt;span style=&quot;background-color: initial;&quot;&gt;CASH_OUTPUT&lt;/span&gt;&lt;/div&gt;" style="shape=parallelogram;perimeter=parallelogramPerimeter;whiteSpace=wrap;html=1;fixedSize=1;strokeColor=#00FF80;fontStyle=0" parent="1" vertex="1">
          <mxGeometry x="5572" y="768" width="150" height="59.25" as="geometry" />
        </mxCell>
        <mxCell id="jepS8LiPJiyBPYWLw1s4-49" style="edgeStyle=orthogonalEdgeStyle;rounded=0;orthogonalLoop=1;jettySize=auto;html=1;exitX=1;exitY=0.5;exitDx=0;exitDy=0;entryX=0.92;entryY=0.979;entryDx=0;entryDy=0;entryPerimeter=0;strokeColor=#00FF80;fontStyle=0" parent="1" source="jepS8LiPJiyBPYWLw1s4-47" target="jepS8LiPJiyBPYWLw1s4-15" edge="1">
          <mxGeometry relative="1" as="geometry" />
        </mxCell>
        <mxCell id="jepS8LiPJiyBPYWLw1s4-53" value="BUY AGAIN OR EXIT" style="text;html=1;align=center;verticalAlign=middle;resizable=0;points=[];autosize=1;strokeColor=none;fillColor=none;fontStyle=0" parent="1" vertex="1">
          <mxGeometry x="6645" y="30" width="140" height="30" as="geometry" />
        </mxCell>
        <mxCell id="jepS8LiPJiyBPYWLw1s4-55" value="" style="rounded=0;whiteSpace=wrap;html=1;opacity=15;fillColor=#0050ef;strokeColor=#001DBC;fontColor=#ffffff;fontStyle=0" parent="1" vertex="1">
          <mxGeometry x="6243" y="578" width="460" height="150" as="geometry" />
        </mxCell>
        <mxCell id="jepS8LiPJiyBPYWLw1s4-56" value="" style="rounded=0;whiteSpace=wrap;html=1;opacity=15;fillColor=#e51400;strokeColor=#B20000;fontColor=#ffffff;fontStyle=0" parent="1" vertex="1">
          <mxGeometry x="6243" y="783" width="460" height="150" as="geometry" />
        </mxCell>
        <mxCell id="jepS8LiPJiyBPYWLw1s4-57" style="edgeStyle=orthogonalEdgeStyle;rounded=0;orthogonalLoop=1;jettySize=auto;html=1;strokeColor=#007000;fontStyle=0" parent="1" source="jepS8LiPJiyBPYWLw1s4-58" target="jepS8LiPJiyBPYWLw1s4-60" edge="1">
          <mxGeometry relative="1" as="geometry">
            <mxPoint x="6317.941176470588" y="218" as="targetPoint" />
          </mxGeometry>
        </mxCell>
        <mxCell id="jepS8LiPJiyBPYWLw1s4-58" value="" style="shape=waypoint;sketch=0;size=6;pointerEvents=1;points=[];fillColor=#007000;resizable=0;rotatable=0;perimeter=centerPerimeter;snapToPoint=1;strokeColor=#007000;fontColor=#000000;fontStyle=0" parent="1" vertex="1">
          <mxGeometry x="6308" y="168" width="20" height="20" as="geometry" />
        </mxCell>
        <mxCell id="jepS8LiPJiyBPYWLw1s4-59" value="" style="edgeStyle=orthogonalEdgeStyle;rounded=0;orthogonalLoop=1;jettySize=auto;html=1;fontStyle=0" parent="1" source="jepS8LiPJiyBPYWLw1s4-60" target="jepS8LiPJiyBPYWLw1s4-66" edge="1">
          <mxGeometry relative="1" as="geometry" />
        </mxCell>
        <mxCell id="jepS8LiPJiyBPYWLw1s4-60" value="OUTPUT&lt;div&gt;&lt;br&gt;&lt;/div&gt;&lt;div&gt;BUY_OR_GO&lt;/div&gt;" style="shape=parallelogram;perimeter=parallelogramPerimeter;whiteSpace=wrap;html=1;fixedSize=1;strokeColor=#FFFFFF;fontStyle=0" parent="1" vertex="1">
          <mxGeometry x="6243" y="218" width="150" height="60" as="geometry" />
        </mxCell>
        <mxCell id="jepS8LiPJiyBPYWLw1s4-61" style="edgeStyle=orthogonalEdgeStyle;rounded=0;orthogonalLoop=1;jettySize=auto;html=1;exitX=0.5;exitY=1;exitDx=0;exitDy=0;entryX=0.5;entryY=0;entryDx=0;entryDy=0;fontStyle=0" parent="1" source="jepS8LiPJiyBPYWLw1s4-63" target="jepS8LiPJiyBPYWLw1s4-68" edge="1">
          <mxGeometry relative="1" as="geometry" />
        </mxCell>
        <mxCell id="jepS8LiPJiyBPYWLw1s4-62" value="Y" style="edgeStyle=orthogonalEdgeStyle;rounded=0;orthogonalLoop=1;jettySize=auto;html=1;exitX=1;exitY=0.5;exitDx=0;exitDy=0;strokeColor=#001DBC;fillColor=#0050ef;fontStyle=0" parent="1" source="jepS8LiPJiyBPYWLw1s4-63" target="jepS8LiPJiyBPYWLw1s4-69" edge="1">
          <mxGeometry relative="1" as="geometry" />
        </mxCell>
        <mxCell id="jepS8LiPJiyBPYWLw1s4-63" value="BG_CONFIRM" style="rhombus;whiteSpace=wrap;html=1;fontStyle=0" parent="1" vertex="1">
          <mxGeometry x="6243" y="578" width="150" height="150" as="geometry" />
        </mxCell>
        <mxCell id="jepS8LiPJiyBPYWLw1s4-64" value="CASH_INPUT (COLOR)" style="text;whiteSpace=wrap;html=1;fontStyle=0" parent="1" vertex="1">
          <mxGeometry x="6246.5" y="150" width="143" height="30" as="geometry" />
        </mxCell>
        <mxCell id="jepS8LiPJiyBPYWLw1s4-65" style="edgeStyle=orthogonalEdgeStyle;rounded=0;orthogonalLoop=1;jettySize=auto;html=1;exitX=0.5;exitY=1;exitDx=0;exitDy=0;entryX=0.5;entryY=0;entryDx=0;entryDy=0;fontStyle=0" parent="1" source="jepS8LiPJiyBPYWLw1s4-66" target="jepS8LiPJiyBPYWLw1s4-63" edge="1">
          <mxGeometry relative="1" as="geometry" />
        </mxCell>
        <mxCell id="jepS8LiPJiyBPYWLw1s4-66" value="INPUT&lt;br&gt;&lt;br&gt;BG_CONFIRM" style="shape=parallelogram;perimeter=parallelogramPerimeter;whiteSpace=wrap;html=1;fixedSize=1;strokeColor=#FFFFFF;fontStyle=0" parent="1" vertex="1">
          <mxGeometry x="6243" y="458" width="150" height="60" as="geometry" />
        </mxCell>
        <mxCell id="jepS8LiPJiyBPYWLw1s4-67" value="DEFAULT" style="edgeStyle=orthogonalEdgeStyle;rounded=0;orthogonalLoop=1;jettySize=auto;html=1;exitX=0.5;exitY=1;exitDx=0;exitDy=0;entryX=0.5;entryY=1;entryDx=0;entryDy=0;fontStyle=0" parent="1" source="jepS8LiPJiyBPYWLw1s4-68" target="jepS8LiPJiyBPYWLw1s4-73" edge="1">
          <mxGeometry relative="1" as="geometry" />
        </mxCell>
        <mxCell id="jepS8LiPJiyBPYWLw1s4-68" value="BG_CONFIRM" style="rhombus;whiteSpace=wrap;html=1;fontStyle=0" parent="1" vertex="1">
          <mxGeometry x="6243" y="783" width="150" height="150" as="geometry" />
        </mxCell>
        <mxCell id="jepS8LiPJiyBPYWLw1s4-69" value="" style="shape=waypoint;sketch=0;size=6;pointerEvents=1;points=[];fillColor=#0050ef;resizable=0;rotatable=0;perimeter=centerPerimeter;snapToPoint=1;strokeColor=#001DBC;fontColor=#ffffff;fontStyle=0" parent="1" vertex="1">
          <mxGeometry x="6628" y="643" width="20" height="20" as="geometry" />
        </mxCell>
        <mxCell id="jepS8LiPJiyBPYWLw1s4-70" value="" style="shape=waypoint;sketch=0;size=6;pointerEvents=1;points=[];fillColor=#e51400;resizable=0;rotatable=0;perimeter=centerPerimeter;snapToPoint=1;strokeColor=#B20000;fontColor=#ffffff;fontStyle=0" parent="1" vertex="1">
          <mxGeometry x="6628" y="848" width="20" height="20" as="geometry" />
        </mxCell>
        <mxCell id="jepS8LiPJiyBPYWLw1s4-71" value="N" style="edgeStyle=orthogonalEdgeStyle;rounded=0;orthogonalLoop=1;jettySize=auto;html=1;exitX=1;exitY=0.5;exitDx=0;exitDy=0;entryX=0.303;entryY=0.567;entryDx=0;entryDy=0;entryPerimeter=0;strokeColor=#B20000;fillColor=#e51400;fontStyle=0" parent="1" source="jepS8LiPJiyBPYWLw1s4-68" target="jepS8LiPJiyBPYWLw1s4-70" edge="1">
          <mxGeometry relative="1" as="geometry" />
        </mxCell>
        <mxCell id="jepS8LiPJiyBPYWLw1s4-72" style="edgeStyle=orthogonalEdgeStyle;rounded=0;orthogonalLoop=1;jettySize=auto;html=1;exitX=0.5;exitY=0;exitDx=0;exitDy=0;fontStyle=0" parent="1" source="jepS8LiPJiyBPYWLw1s4-73" target="jepS8LiPJiyBPYWLw1s4-60" edge="1">
          <mxGeometry relative="1" as="geometry">
            <mxPoint x="6252.999999999999" y="247.625" as="targetPoint" />
            <Array as="points">
              <mxPoint x="6123" y="248" />
            </Array>
          </mxGeometry>
        </mxCell>
        <mxCell id="jepS8LiPJiyBPYWLw1s4-73" value="&lt;span style=&quot;font-weight: normal;&quot;&gt;CLEAR_SCREEN&lt;/span&gt;" style="rounded=0;whiteSpace=wrap;html=1;fontStyle=1" parent="1" vertex="1">
          <mxGeometry x="6048" y="458" width="150" height="60" as="geometry" />
        </mxCell>
        <mxCell id="jepS8LiPJiyBPYWLw1s4-77" value="0" style="edgeStyle=orthogonalEdgeStyle;rounded=0;orthogonalLoop=1;jettySize=auto;html=1;entryX=0.5;entryY=1;entryDx=0;entryDy=0;fillColor=#0050ef;strokeColor=#001DBC;fontStyle=0" parent="1" source="jepS8LiPJiyBPYWLw1s4-76" target="fk4BfuyukFRPb7nqBHwW-114" edge="1">
          <mxGeometry relative="1" as="geometry">
            <mxPoint x="1900" y="-380" as="targetPoint" />
          </mxGeometry>
        </mxCell>
        <mxCell id="jepS8LiPJiyBPYWLw1s4-76" value="" style="shape=waypoint;sketch=0;size=6;pointerEvents=1;points=[];fillColor=#0050ef;resizable=0;rotatable=0;perimeter=centerPerimeter;snapToPoint=1;fontColor=#ffffff;strokeColor=#001DBC;fontStyle=0" parent="1" vertex="1">
          <mxGeometry x="1760" y="-120" width="20" height="20" as="geometry" />
        </mxCell>
        <mxCell id="jepS8LiPJiyBPYWLw1s4-78" value="&lt;span style=&quot;color: rgb(240, 240, 240); font-family: Helvetica; font-size: 12px; font-style: normal; font-variant-ligatures: normal; font-variant-caps: normal; font-weight: 400; letter-spacing: normal; orphans: 2; text-align: center; text-indent: 0px; text-transform: none; widows: 2; word-spacing: 0px; -webkit-text-stroke-width: 0px; white-space: normal; background-color: rgb(27, 29, 30); float: none; display: inline !important;&quot;&gt;BG_CONFIRM&lt;/span&gt;" style="text;whiteSpace=wrap;html=1;fontStyle=0" parent="1" vertex="1">
          <mxGeometry x="1730" y="-216.74" width="80" height="25" as="geometry" />
        </mxCell>
        <mxCell id="jepS8LiPJiyBPYWLw1s4-79" value="&lt;span style=&quot;color: rgb(240, 240, 240); font-family: Helvetica; font-size: 12px; font-style: normal; font-variant-ligatures: normal; font-variant-caps: normal; font-weight: 400; letter-spacing: normal; orphans: 2; text-align: center; text-indent: 0px; text-transform: none; widows: 2; word-spacing: 0px; -webkit-text-stroke-width: 0px; white-space: normal; background-color: rgb(27, 29, 30); float: none; display: inline !important;&quot;&gt;BG_CONFIRM&lt;/span&gt;" style="text;whiteSpace=wrap;html=1;fontStyle=0" parent="1" vertex="1">
          <mxGeometry x="593" y="-175" width="90" height="19.5" as="geometry" />
        </mxCell>
        <mxCell id="jepS8LiPJiyBPYWLw1s4-82" value="N" style="edgeStyle=orthogonalEdgeStyle;rounded=0;orthogonalLoop=1;jettySize=auto;html=1;entryX=0.75;entryY=0;entryDx=0;entryDy=0;fillColor=#e51400;strokeColor=#B20000;fontStyle=0" parent="1" source="jepS8LiPJiyBPYWLw1s4-81" target="fk4BfuyukFRPb7nqBHwW-66" edge="1">
          <mxGeometry relative="1" as="geometry">
            <mxPoint x="665" y="-257.49" as="sourcePoint" />
            <mxPoint x="665" y="-197.49" as="targetPoint" />
            <Array as="points">
              <mxPoint x="528" y="-162" />
              <mxPoint x="528" y="-97" />
            </Array>
          </mxGeometry>
        </mxCell>
        <mxCell id="jepS8LiPJiyBPYWLw1s4-81" value="" style="shape=waypoint;sketch=0;size=6;pointerEvents=1;points=[];fillColor=#e51400;resizable=0;rotatable=0;perimeter=centerPerimeter;snapToPoint=1;fontColor=#ffffff;strokeColor=#B20000;fontStyle=0" parent="1" vertex="1">
          <mxGeometry x="573" y="-172.5" width="20" height="20" as="geometry" />
        </mxCell>
        <mxCell id="jepS8LiPJiyBPYWLw1s4-112" value="GENRE FILTER" style="text;html=1;align=center;verticalAlign=middle;resizable=0;points=[];autosize=1;strokeColor=none;fillColor=none;fontStyle=0" parent="1" vertex="1">
          <mxGeometry x="1560" y="30" width="110" height="30" as="geometry" />
        </mxCell>
        <mxCell id="jepS8LiPJiyBPYWLw1s4-113" value="" style="shape=waypoint;sketch=0;size=6;pointerEvents=1;points=[];fillColor=#6a00ff;resizable=0;rotatable=0;perimeter=centerPerimeter;snapToPoint=1;strokeColor=#3700CC;fontColor=#ffffff;fontStyle=0" parent="1" vertex="1">
          <mxGeometry x="2350" y="-455.5" width="20" height="20" as="geometry" />
        </mxCell>
        <mxCell id="jepS8LiPJiyBPYWLw1s4-114" value="" style="shape=waypoint;sketch=0;size=6;pointerEvents=1;points=[];fillColor=#e3c800;resizable=0;rotatable=0;perimeter=centerPerimeter;snapToPoint=1;strokeColor=#99004D;fontColor=#000000;fontStyle=0" parent="1" vertex="1">
          <mxGeometry x="2350" y="-290" width="20" height="20" as="geometry" />
        </mxCell>
        <mxCell id="jepS8LiPJiyBPYWLw1s4-122" value="" style="rounded=0;whiteSpace=wrap;html=1;fillColor=#0050ef;fontColor=#ffffff;strokeColor=#001DBC;opacity=15;fontStyle=0" parent="1" vertex="1">
          <mxGeometry x="1147" y="906" width="390" height="150" as="geometry" />
        </mxCell>
        <mxCell id="jepS8LiPJiyBPYWLw1s4-123" value="" style="edgeStyle=orthogonalEdgeStyle;rounded=0;orthogonalLoop=1;jettySize=auto;html=1;fillColor=#6a00ff;strokeColor=#3700CC;fontStyle=0" parent="1" source="jepS8LiPJiyBPYWLw1s4-124" target="jepS8LiPJiyBPYWLw1s4-126" edge="1">
          <mxGeometry relative="1" as="geometry" />
        </mxCell>
        <mxCell id="jepS8LiPJiyBPYWLw1s4-124" value="" style="shape=waypoint;sketch=0;size=6;pointerEvents=1;points=[];fillColor=#6a00ff;resizable=0;rotatable=0;perimeter=centerPerimeter;snapToPoint=1;fontColor=#ffffff;strokeColor=#3700CC;fontStyle=0" parent="1" vertex="1">
          <mxGeometry x="1212" y="51" width="20" height="20" as="geometry" />
        </mxCell>
        <mxCell id="jepS8LiPJiyBPYWLw1s4-125" style="edgeStyle=orthogonalEdgeStyle;rounded=0;orthogonalLoop=1;jettySize=auto;html=1;entryX=0.5;entryY=0;entryDx=0;entryDy=0;fontStyle=0" parent="1" source="jepS8LiPJiyBPYWLw1s4-126" target="jepS8LiPJiyBPYWLw1s4-128" edge="1">
          <mxGeometry relative="1" as="geometry" />
        </mxCell>
        <mxCell id="jepS8LiPJiyBPYWLw1s4-126" value="OUTPUT&lt;div&gt;&lt;br&gt;&lt;/div&gt;&lt;div&gt;GENRE_FILTER&lt;/div&gt;" style="shape=parallelogram;perimeter=parallelogramPerimeter;whiteSpace=wrap;html=1;fixedSize=1;fontStyle=0" parent="1" vertex="1">
          <mxGeometry x="1147" y="86.75" width="150" height="59.25" as="geometry" />
        </mxCell>
        <mxCell id="jepS8LiPJiyBPYWLw1s4-127" style="edgeStyle=orthogonalEdgeStyle;rounded=0;orthogonalLoop=1;jettySize=auto;html=1;exitX=0.5;exitY=1;exitDx=0;exitDy=0;entryX=0.5;entryY=0;entryDx=0;entryDy=0;fontStyle=0" parent="1" source="jepS8LiPJiyBPYWLw1s4-128" target="jepS8LiPJiyBPYWLw1s4-131" edge="1">
          <mxGeometry relative="1" as="geometry" />
        </mxCell>
        <mxCell id="jepS8LiPJiyBPYWLw1s4-128" value="INPUT&lt;div&gt;&lt;br&gt;&lt;/div&gt;&lt;div&gt;GENRE_INPUT&lt;/div&gt;" style="shape=parallelogram;perimeter=parallelogramPerimeter;whiteSpace=wrap;html=1;fixedSize=1;strokeColor=#FFFFFF;fontStyle=0" parent="1" vertex="1">
          <mxGeometry x="1147" y="196.75" width="150" height="60" as="geometry" />
        </mxCell>
        <mxCell id="jepS8LiPJiyBPYWLw1s4-129" style="edgeStyle=orthogonalEdgeStyle;rounded=0;orthogonalLoop=1;jettySize=auto;html=1;exitX=0.5;exitY=1;exitDx=0;exitDy=0;entryX=0.5;entryY=0;entryDx=0;entryDy=0;fontStyle=0" parent="1" source="jepS8LiPJiyBPYWLw1s4-131" target="jepS8LiPJiyBPYWLw1s4-134" edge="1">
          <mxGeometry relative="1" as="geometry" />
        </mxCell>
        <mxCell id="jepS8LiPJiyBPYWLw1s4-130" value="C" style="edgeStyle=orthogonalEdgeStyle;rounded=0;orthogonalLoop=1;jettySize=auto;html=1;fillColor=#6a00ff;strokeColor=#3700CC;fontStyle=0;entryX=0.5;entryY=0;entryDx=0;entryDy=0;" parent="1" source="jepS8LiPJiyBPYWLw1s4-131" target="jepS8LiPJiyBPYWLw1s4-247" edge="1">
          <mxGeometry relative="1" as="geometry">
            <mxPoint x="1477" y="371.75" as="targetPoint" />
          </mxGeometry>
        </mxCell>
        <mxCell id="jepS8LiPJiyBPYWLw1s4-131" value="GENRE_INPUT" style="rhombus;whiteSpace=wrap;html=1;fontStyle=0" parent="1" vertex="1">
          <mxGeometry x="1147" y="296.75" width="150" height="150" as="geometry" />
        </mxCell>
        <mxCell id="jepS8LiPJiyBPYWLw1s4-132" style="edgeStyle=orthogonalEdgeStyle;rounded=0;orthogonalLoop=1;jettySize=auto;html=1;exitX=0.5;exitY=1;exitDx=0;exitDy=0;entryX=0.5;entryY=0;entryDx=0;entryDy=0;fontStyle=0" parent="1" source="jepS8LiPJiyBPYWLw1s4-134" target="jepS8LiPJiyBPYWLw1s4-137" edge="1">
          <mxGeometry relative="1" as="geometry" />
        </mxCell>
        <mxCell id="jepS8LiPJiyBPYWLw1s4-133" value="A" style="edgeStyle=orthogonalEdgeStyle;rounded=0;orthogonalLoop=1;jettySize=auto;html=1;exitX=1;exitY=0.5;exitDx=0;exitDy=0;fillColor=#6a00ff;strokeColor=#3700CC;fontStyle=0;entryX=0;entryY=0.5;entryDx=0;entryDy=0;" parent="1" source="jepS8LiPJiyBPYWLw1s4-134" target="jepS8LiPJiyBPYWLw1s4-247" edge="1">
          <mxGeometry relative="1" as="geometry">
            <mxPoint x="1477" y="571.75" as="targetPoint" />
          </mxGeometry>
        </mxCell>
        <mxCell id="jepS8LiPJiyBPYWLw1s4-134" value="GENRE_INPUT" style="rhombus;whiteSpace=wrap;html=1;fontStyle=0" parent="1" vertex="1">
          <mxGeometry x="1147" y="496.75" width="150" height="150" as="geometry" />
        </mxCell>
        <mxCell id="jepS8LiPJiyBPYWLw1s4-135" value="H" style="edgeStyle=orthogonalEdgeStyle;rounded=0;orthogonalLoop=1;jettySize=auto;html=1;exitX=1;exitY=0.5;exitDx=0;exitDy=0;entryX=0.5;entryY=1;entryDx=0;entryDy=0;strokeColor=#3700CC;fontStyle=0;fillColor=#6a00ff;" parent="1" source="jepS8LiPJiyBPYWLw1s4-137" target="jepS8LiPJiyBPYWLw1s4-247" edge="1">
          <mxGeometry relative="1" as="geometry">
            <mxPoint x="1477" y="771.75" as="targetPoint" />
          </mxGeometry>
        </mxCell>
        <mxCell id="jepS8LiPJiyBPYWLw1s4-136" style="edgeStyle=orthogonalEdgeStyle;rounded=0;orthogonalLoop=1;jettySize=auto;html=1;exitX=0.5;exitY=1;exitDx=0;exitDy=0;entryX=0.5;entryY=0;entryDx=0;entryDy=0;fontStyle=0" parent="1" source="jepS8LiPJiyBPYWLw1s4-137" target="jepS8LiPJiyBPYWLw1s4-139" edge="1">
          <mxGeometry relative="1" as="geometry" />
        </mxCell>
        <mxCell id="jepS8LiPJiyBPYWLw1s4-137" value="GENRE_INPUT" style="rhombus;whiteSpace=wrap;html=1;fontStyle=0" parent="1" vertex="1">
          <mxGeometry x="1147" y="696.75" width="150" height="150" as="geometry" />
        </mxCell>
        <mxCell id="jepS8LiPJiyBPYWLw1s4-138" value="DEFAULT" style="edgeStyle=orthogonalEdgeStyle;rounded=0;orthogonalLoop=1;jettySize=auto;html=1;exitX=0.5;exitY=1;exitDx=0;exitDy=0;entryX=0.5;entryY=1;entryDx=0;entryDy=0;fontStyle=0" parent="1" source="jepS8LiPJiyBPYWLw1s4-139" target="jepS8LiPJiyBPYWLw1s4-151" edge="1">
          <mxGeometry relative="1" as="geometry">
            <mxPoint x="1050" y="605" as="targetPoint" />
          </mxGeometry>
        </mxCell>
        <mxCell id="jepS8LiPJiyBPYWLw1s4-139" value="GENRE_INPUT" style="rhombus;whiteSpace=wrap;html=1;fontStyle=0" parent="1" vertex="1">
          <mxGeometry x="1147" y="906" width="150" height="150" as="geometry" />
        </mxCell>
        <mxCell id="jepS8LiPJiyBPYWLw1s4-140" style="edgeStyle=orthogonalEdgeStyle;rounded=0;orthogonalLoop=1;jettySize=auto;html=1;exitX=0.5;exitY=0;exitDx=0;exitDy=0;entryX=0;entryY=0.5;entryDx=0;entryDy=0;fontStyle=0" parent="1" source="jepS8LiPJiyBPYWLw1s4-151" target="jepS8LiPJiyBPYWLw1s4-126" edge="1">
          <mxGeometry relative="1" as="geometry">
            <Array as="points">
              <mxPoint x="1012" y="542" />
              <mxPoint x="1012" y="116" />
            </Array>
            <mxPoint x="1012" y="545" as="sourcePoint" />
          </mxGeometry>
        </mxCell>
        <mxCell id="jepS8LiPJiyBPYWLw1s4-141" value="" style="shape=waypoint;sketch=0;size=6;pointerEvents=1;points=[];fillColor=#0050ef;resizable=0;rotatable=0;perimeter=centerPerimeter;snapToPoint=1;fontColor=#ffffff;strokeColor=#001DBC;fontStyle=0" parent="1" vertex="1">
          <mxGeometry x="1452" y="971" width="20" height="20" as="geometry" />
        </mxCell>
        <mxCell id="jepS8LiPJiyBPYWLw1s4-142" value="B" style="edgeStyle=orthogonalEdgeStyle;rounded=0;orthogonalLoop=1;jettySize=auto;html=1;exitX=1;exitY=0.5;exitDx=0;exitDy=0;entryX=0.479;entryY=0.886;entryDx=0;entryDy=0;entryPerimeter=0;fillColor=#0050ef;strokeColor=#001DBC;fontStyle=0" parent="1" source="jepS8LiPJiyBPYWLw1s4-139" target="jepS8LiPJiyBPYWLw1s4-141" edge="1">
          <mxGeometry relative="1" as="geometry" />
        </mxCell>
        <mxCell id="jepS8LiPJiyBPYWLw1s4-143" value="BACK / UNDO" style="text;html=1;align=center;verticalAlign=middle;whiteSpace=wrap;rounded=0;fontStyle=0" parent="1" vertex="1">
          <mxGeometry x="1297" y="928" width="237" height="30" as="geometry" />
        </mxCell>
        <mxCell id="jepS8LiPJiyBPYWLw1s4-145" value="ACTION" style="text;html=1;align=center;verticalAlign=middle;resizable=0;points=[];autosize=1;strokeColor=none;fillColor=none;fontStyle=0" parent="1" vertex="1">
          <mxGeometry x="1292" y="518" width="70" height="30" as="geometry" />
        </mxCell>
        <mxCell id="jepS8LiPJiyBPYWLw1s4-147" value="COMEDY" style="text;html=1;align=center;verticalAlign=middle;resizable=0;points=[];autosize=1;strokeColor=none;fillColor=none;fontStyle=0" parent="1" vertex="1">
          <mxGeometry x="1287" y="318" width="80" height="30" as="geometry" />
        </mxCell>
        <mxCell id="jepS8LiPJiyBPYWLw1s4-148" value="&lt;span style=&quot;color: rgb(240, 240, 240); font-family: Helvetica; font-size: 12px; font-style: normal; font-variant-ligatures: normal; font-variant-caps: normal; font-weight: 400; letter-spacing: normal; orphans: 2; text-align: center; text-indent: 0px; text-transform: none; widows: 2; word-spacing: 0px; -webkit-text-stroke-width: 0px; white-space: normal; background-color: rgb(27, 29, 30); float: none; display: inline !important;&quot;&gt;MOVIE_CAT&lt;/span&gt;" style="text;whiteSpace=wrap;html=1;fontStyle=0" parent="1" vertex="1">
          <mxGeometry x="1182" y="30" width="80" height="30" as="geometry" />
        </mxCell>
        <mxCell id="jepS8LiPJiyBPYWLw1s4-151" value="&lt;span style=&quot;font-weight: normal;&quot;&gt;CLEAR_SCREEN&lt;/span&gt;" style="rounded=0;whiteSpace=wrap;html=1;fontStyle=1" parent="1" vertex="1">
          <mxGeometry x="940" y="541.75" width="150" height="60" as="geometry" />
        </mxCell>
        <mxCell id="jepS8LiPJiyBPYWLw1s4-185" value="HORROR" style="text;html=1;align=center;verticalAlign=middle;resizable=0;points=[];autosize=1;strokeColor=none;fillColor=none;fontStyle=0" parent="1" vertex="1">
          <mxGeometry x="1297" y="722.62" width="80" height="30" as="geometry" />
        </mxCell>
        <mxCell id="jepS8LiPJiyBPYWLw1s4-449" style="edgeStyle=orthogonalEdgeStyle;rounded=0;orthogonalLoop=1;jettySize=auto;html=1;" parent="1" source="jepS8LiPJiyBPYWLw1s4-186" target="jepS8LiPJiyBPYWLw1s4-441" edge="1">
          <mxGeometry relative="1" as="geometry" />
        </mxCell>
        <mxCell id="jepS8LiPJiyBPYWLw1s4-186" value="OUTPUT&lt;div&gt;&lt;br&gt;&lt;/div&gt;&lt;div&gt;MOVIE_POSTER_1&lt;/div&gt;" style="shape=parallelogram;perimeter=parallelogramPerimeter;whiteSpace=wrap;html=1;fixedSize=1;fontStyle=0" parent="1" vertex="1">
          <mxGeometry x="1975" y="-974.62" width="150" height="59.25" as="geometry" />
        </mxCell>
        <mxCell id="jepS8LiPJiyBPYWLw1s4-450" style="edgeStyle=orthogonalEdgeStyle;rounded=0;orthogonalLoop=1;jettySize=auto;html=1;entryX=0.5;entryY=0;entryDx=0;entryDy=0;" parent="1" source="jepS8LiPJiyBPYWLw1s4-187" target="jepS8LiPJiyBPYWLw1s4-441" edge="1">
          <mxGeometry relative="1" as="geometry" />
        </mxCell>
        <mxCell id="jepS8LiPJiyBPYWLw1s4-187" value="OUTPUT&lt;div&gt;&lt;br&gt;&lt;/div&gt;&lt;div&gt;MOVIE_POSTER_2&lt;br&gt;&lt;/div&gt;" style="shape=parallelogram;perimeter=parallelogramPerimeter;whiteSpace=wrap;html=1;fixedSize=1;fontStyle=0" parent="1" vertex="1">
          <mxGeometry x="2125" y="-974.62" width="150" height="59.25" as="geometry" />
        </mxCell>
        <mxCell id="jepS8LiPJiyBPYWLw1s4-455" style="edgeStyle=orthogonalEdgeStyle;rounded=0;orthogonalLoop=1;jettySize=auto;html=1;exitX=0.5;exitY=1;exitDx=0;exitDy=0;entryX=0.5;entryY=0;entryDx=0;entryDy=0;" parent="1" source="jepS8LiPJiyBPYWLw1s4-188" target="jepS8LiPJiyBPYWLw1s4-441" edge="1">
          <mxGeometry relative="1" as="geometry" />
        </mxCell>
        <mxCell id="jepS8LiPJiyBPYWLw1s4-188" value="OUTPUT&lt;div&gt;&lt;br&gt;&lt;/div&gt;&lt;div&gt;MOVIE_POSTER_3&lt;br&gt;&lt;/div&gt;" style="shape=parallelogram;perimeter=parallelogramPerimeter;whiteSpace=wrap;html=1;fixedSize=1;fontStyle=0" parent="1" vertex="1">
          <mxGeometry x="2275" y="-974.62" width="150" height="59.25" as="geometry" />
        </mxCell>
        <mxCell id="jepS8LiPJiyBPYWLw1s4-250" style="edgeStyle=orthogonalEdgeStyle;rounded=0;orthogonalLoop=1;jettySize=auto;html=1;exitX=1;exitY=0.5;exitDx=0;exitDy=0;fillColor=#6a00ff;strokeColor=#3700CC;" parent="1" source="jepS8LiPJiyBPYWLw1s4-247" target="jepS8LiPJiyBPYWLw1s4-249" edge="1">
          <mxGeometry relative="1" as="geometry" />
        </mxCell>
        <mxCell id="jepS8LiPJiyBPYWLw1s4-247" value="&lt;span style=&quot;font-weight: normal;&quot;&gt;CLEAR_SCREEN&lt;/span&gt;" style="rounded=0;whiteSpace=wrap;html=1;fontStyle=1" parent="1" vertex="1">
          <mxGeometry x="1362" y="542.13" width="150" height="60" as="geometry" />
        </mxCell>
        <mxCell id="jepS8LiPJiyBPYWLw1s4-249" value="" style="shape=waypoint;sketch=0;size=6;pointerEvents=1;points=[];fillColor=#6a00ff;resizable=0;rotatable=0;perimeter=centerPerimeter;snapToPoint=1;fontColor=#ffffff;strokeColor=#3700CC;" parent="1" vertex="1">
          <mxGeometry x="1590" y="562.13" width="20" height="20" as="geometry" />
        </mxCell>
        <mxCell id="jepS8LiPJiyBPYWLw1s4-255" style="edgeStyle=orthogonalEdgeStyle;rounded=0;orthogonalLoop=1;jettySize=auto;html=1;fillColor=#0050ef;strokeColor=#001DBC;entryX=1;entryY=0.25;entryDx=0;entryDy=0;" parent="1" source="jepS8LiPJiyBPYWLw1s4-254" target="jepS8LiPJiyBPYWLw1s4-441" edge="1">
          <mxGeometry relative="1" as="geometry">
            <mxPoint x="2240" y="-1000" as="targetPoint" />
          </mxGeometry>
        </mxCell>
        <mxCell id="jepS8LiPJiyBPYWLw1s4-254" value="" style="shape=waypoint;sketch=0;size=6;pointerEvents=1;points=[];fillColor=#0050ef;resizable=0;rotatable=0;perimeter=centerPerimeter;snapToPoint=1;fontColor=#ffffff;strokeColor=#001DBC;" parent="1" vertex="1">
          <mxGeometry x="2310" y="-850.7499999999999" width="20" height="20" as="geometry" />
        </mxCell>
        <mxCell id="jepS8LiPJiyBPYWLw1s4-259" value="GENRE FILTER PROCESS" style="text;html=1;align=center;verticalAlign=middle;resizable=0;points=[];autosize=1;strokeColor=none;fillColor=none;fontStyle=0" parent="1" vertex="1">
          <mxGeometry x="2370" y="30" width="170" height="30" as="geometry" />
        </mxCell>
        <mxCell id="jepS8LiPJiyBPYWLw1s4-324" value="" style="rounded=0;whiteSpace=wrap;html=1;fillColor=#99004D;opacity=15;strokeColor=#99004D;fontColor=#ffffff;fontStyle=0" parent="1" vertex="1">
          <mxGeometry x="2809" y="296.75" width="506" height="553.25" as="geometry" />
        </mxCell>
        <mxCell id="jepS8LiPJiyBPYWLw1s4-325" value="AGE FILTER" style="text;html=1;align=center;verticalAlign=middle;resizable=0;points=[];autosize=1;strokeColor=none;fillColor=none;fontStyle=0" parent="1" vertex="1">
          <mxGeometry x="3260" y="30" width="90" height="30" as="geometry" />
        </mxCell>
        <mxCell id="jepS8LiPJiyBPYWLw1s4-326" value="" style="rounded=0;whiteSpace=wrap;html=1;fillColor=#0050ef;fontColor=#ffffff;strokeColor=#001DBC;opacity=15;fontStyle=0" parent="1" vertex="1">
          <mxGeometry x="2812" y="906" width="390" height="150" as="geometry" />
        </mxCell>
        <mxCell id="jepS8LiPJiyBPYWLw1s4-327" value="" style="edgeStyle=orthogonalEdgeStyle;rounded=0;orthogonalLoop=1;jettySize=auto;html=1;fillColor=#d80073;strokeColor=#99004D;fontStyle=0" parent="1" source="jepS8LiPJiyBPYWLw1s4-328" target="jepS8LiPJiyBPYWLw1s4-330" edge="1">
          <mxGeometry relative="1" as="geometry" />
        </mxCell>
        <mxCell id="jepS8LiPJiyBPYWLw1s4-328" value="" style="shape=waypoint;sketch=0;size=6;pointerEvents=1;points=[];fillColor=#d80073;resizable=0;rotatable=0;perimeter=centerPerimeter;snapToPoint=1;fontColor=#ffffff;strokeColor=#99004D;fontStyle=0" parent="1" vertex="1">
          <mxGeometry x="2877" y="51" width="20" height="20" as="geometry" />
        </mxCell>
        <mxCell id="jepS8LiPJiyBPYWLw1s4-329" style="edgeStyle=orthogonalEdgeStyle;rounded=0;orthogonalLoop=1;jettySize=auto;html=1;entryX=0.5;entryY=0;entryDx=0;entryDy=0;fontStyle=0" parent="1" source="jepS8LiPJiyBPYWLw1s4-330" target="jepS8LiPJiyBPYWLw1s4-332" edge="1">
          <mxGeometry relative="1" as="geometry" />
        </mxCell>
        <mxCell id="jepS8LiPJiyBPYWLw1s4-330" value="OUTPUT&lt;div&gt;&lt;br&gt;&lt;/div&gt;&lt;div&gt;AGE_FILTER&lt;/div&gt;" style="shape=parallelogram;perimeter=parallelogramPerimeter;whiteSpace=wrap;html=1;fixedSize=1;fontStyle=0" parent="1" vertex="1">
          <mxGeometry x="2812" y="86.75" width="150" height="59.25" as="geometry" />
        </mxCell>
        <mxCell id="jepS8LiPJiyBPYWLw1s4-331" style="edgeStyle=orthogonalEdgeStyle;rounded=0;orthogonalLoop=1;jettySize=auto;html=1;exitX=0.5;exitY=1;exitDx=0;exitDy=0;entryX=0.5;entryY=0;entryDx=0;entryDy=0;fontStyle=0" parent="1" source="jepS8LiPJiyBPYWLw1s4-332" target="jepS8LiPJiyBPYWLw1s4-335" edge="1">
          <mxGeometry relative="1" as="geometry" />
        </mxCell>
        <mxCell id="jepS8LiPJiyBPYWLw1s4-332" value="INPUT&lt;div&gt;&lt;br&gt;&lt;/div&gt;&lt;div&gt;AGE_INPUT&lt;br&gt;&lt;/div&gt;" style="shape=parallelogram;perimeter=parallelogramPerimeter;whiteSpace=wrap;html=1;fixedSize=1;strokeColor=#FFFFFF;fontStyle=0" parent="1" vertex="1">
          <mxGeometry x="2812" y="196.75" width="150" height="60" as="geometry" />
        </mxCell>
        <mxCell id="jepS8LiPJiyBPYWLw1s4-333" style="edgeStyle=orthogonalEdgeStyle;rounded=0;orthogonalLoop=1;jettySize=auto;html=1;exitX=0.5;exitY=1;exitDx=0;exitDy=0;entryX=0.5;entryY=0;entryDx=0;entryDy=0;fontStyle=0" parent="1" source="jepS8LiPJiyBPYWLw1s4-335" target="jepS8LiPJiyBPYWLw1s4-338" edge="1">
          <mxGeometry relative="1" as="geometry" />
        </mxCell>
        <mxCell id="jepS8LiPJiyBPYWLw1s4-334" value="G" style="edgeStyle=orthogonalEdgeStyle;rounded=0;orthogonalLoop=1;jettySize=auto;html=1;fillColor=#6a00ff;strokeColor=#99004D;fontStyle=0;entryX=0.5;entryY=0;entryDx=0;entryDy=0;" parent="1" source="jepS8LiPJiyBPYWLw1s4-335" target="jepS8LiPJiyBPYWLw1s4-367" edge="1">
          <mxGeometry relative="1" as="geometry">
            <mxPoint x="3142" y="371.75" as="targetPoint" />
          </mxGeometry>
        </mxCell>
        <mxCell id="jepS8LiPJiyBPYWLw1s4-335" value="AGE_INPUT" style="rhombus;whiteSpace=wrap;html=1;fontStyle=0" parent="1" vertex="1">
          <mxGeometry x="2812" y="296.75" width="150" height="150" as="geometry" />
        </mxCell>
        <mxCell id="jepS8LiPJiyBPYWLw1s4-336" style="edgeStyle=orthogonalEdgeStyle;rounded=0;orthogonalLoop=1;jettySize=auto;html=1;exitX=0.5;exitY=1;exitDx=0;exitDy=0;entryX=0.5;entryY=0;entryDx=0;entryDy=0;fontStyle=0" parent="1" source="jepS8LiPJiyBPYWLw1s4-338" target="jepS8LiPJiyBPYWLw1s4-341" edge="1">
          <mxGeometry relative="1" as="geometry" />
        </mxCell>
        <mxCell id="jepS8LiPJiyBPYWLw1s4-337" value="P" style="edgeStyle=orthogonalEdgeStyle;rounded=0;orthogonalLoop=1;jettySize=auto;html=1;exitX=1;exitY=0.5;exitDx=0;exitDy=0;fillColor=#6a00ff;strokeColor=#99004D;fontStyle=0;entryX=0;entryY=0.5;entryDx=0;entryDy=0;" parent="1" source="jepS8LiPJiyBPYWLw1s4-338" target="jepS8LiPJiyBPYWLw1s4-367" edge="1">
          <mxGeometry relative="1" as="geometry">
            <mxPoint x="3142" y="571.75" as="targetPoint" />
          </mxGeometry>
        </mxCell>
        <mxCell id="jepS8LiPJiyBPYWLw1s4-338" value="AGE_INPUT" style="rhombus;whiteSpace=wrap;html=1;fontStyle=0" parent="1" vertex="1">
          <mxGeometry x="2812" y="496.75" width="150" height="150" as="geometry" />
        </mxCell>
        <mxCell id="jepS8LiPJiyBPYWLw1s4-339" value="S" style="edgeStyle=orthogonalEdgeStyle;rounded=0;orthogonalLoop=1;jettySize=auto;html=1;exitX=1;exitY=0.5;exitDx=0;exitDy=0;entryX=0.5;entryY=1;entryDx=0;entryDy=0;strokeColor=#99004D;fontStyle=0;fillColor=#6a00ff;" parent="1" source="jepS8LiPJiyBPYWLw1s4-341" target="jepS8LiPJiyBPYWLw1s4-367" edge="1">
          <mxGeometry relative="1" as="geometry">
            <mxPoint x="3142" y="771.75" as="targetPoint" />
          </mxGeometry>
        </mxCell>
        <mxCell id="jepS8LiPJiyBPYWLw1s4-340" style="edgeStyle=orthogonalEdgeStyle;rounded=0;orthogonalLoop=1;jettySize=auto;html=1;exitX=0.5;exitY=1;exitDx=0;exitDy=0;entryX=0.5;entryY=0;entryDx=0;entryDy=0;fontStyle=0" parent="1" source="jepS8LiPJiyBPYWLw1s4-341" target="jepS8LiPJiyBPYWLw1s4-343" edge="1">
          <mxGeometry relative="1" as="geometry" />
        </mxCell>
        <mxCell id="jepS8LiPJiyBPYWLw1s4-341" value="AGE_INPUT" style="rhombus;whiteSpace=wrap;html=1;fontStyle=0" parent="1" vertex="1">
          <mxGeometry x="2812" y="696.75" width="150" height="150" as="geometry" />
        </mxCell>
        <mxCell id="jepS8LiPJiyBPYWLw1s4-342" value="DEFAULT" style="edgeStyle=orthogonalEdgeStyle;rounded=0;orthogonalLoop=1;jettySize=auto;html=1;exitX=0.5;exitY=1;exitDx=0;exitDy=0;entryX=0.5;entryY=1;entryDx=0;entryDy=0;fontStyle=0" parent="1" source="jepS8LiPJiyBPYWLw1s4-343" target="jepS8LiPJiyBPYWLw1s4-351" edge="1">
          <mxGeometry relative="1" as="geometry">
            <mxPoint x="2715" y="605" as="targetPoint" />
          </mxGeometry>
        </mxCell>
        <mxCell id="jepS8LiPJiyBPYWLw1s4-343" value="AGE_INPUT" style="rhombus;whiteSpace=wrap;html=1;fontStyle=0" parent="1" vertex="1">
          <mxGeometry x="2812" y="906" width="150" height="150" as="geometry" />
        </mxCell>
        <mxCell id="jepS8LiPJiyBPYWLw1s4-344" style="edgeStyle=orthogonalEdgeStyle;rounded=0;orthogonalLoop=1;jettySize=auto;html=1;exitX=0.5;exitY=0;exitDx=0;exitDy=0;entryX=0;entryY=0.5;entryDx=0;entryDy=0;fontStyle=0" parent="1" source="jepS8LiPJiyBPYWLw1s4-351" target="jepS8LiPJiyBPYWLw1s4-330" edge="1">
          <mxGeometry relative="1" as="geometry">
            <Array as="points">
              <mxPoint x="2677" y="542" />
              <mxPoint x="2677" y="116" />
            </Array>
            <mxPoint x="2677" y="545" as="sourcePoint" />
          </mxGeometry>
        </mxCell>
        <mxCell id="jepS8LiPJiyBPYWLw1s4-345" value="" style="shape=waypoint;sketch=0;size=6;pointerEvents=1;points=[];fillColor=#0050ef;resizable=0;rotatable=0;perimeter=centerPerimeter;snapToPoint=1;fontColor=#ffffff;strokeColor=#001DBC;fontStyle=0" parent="1" vertex="1">
          <mxGeometry x="3117" y="971" width="20" height="20" as="geometry" />
        </mxCell>
        <mxCell id="jepS8LiPJiyBPYWLw1s4-346" value="B" style="edgeStyle=orthogonalEdgeStyle;rounded=0;orthogonalLoop=1;jettySize=auto;html=1;exitX=1;exitY=0.5;exitDx=0;exitDy=0;entryX=0.479;entryY=0.886;entryDx=0;entryDy=0;entryPerimeter=0;fillColor=#0050ef;strokeColor=#001DBC;fontStyle=0" parent="1" source="jepS8LiPJiyBPYWLw1s4-343" target="jepS8LiPJiyBPYWLw1s4-345" edge="1">
          <mxGeometry relative="1" as="geometry" />
        </mxCell>
        <mxCell id="jepS8LiPJiyBPYWLw1s4-347" value="BACK / UNDO" style="text;html=1;align=center;verticalAlign=middle;whiteSpace=wrap;rounded=0;fontStyle=0" parent="1" vertex="1">
          <mxGeometry x="2962" y="928" width="237" height="30" as="geometry" />
        </mxCell>
        <mxCell id="jepS8LiPJiyBPYWLw1s4-348" value="RATED&amp;nbsp;PG" style="text;html=1;align=center;verticalAlign=middle;resizable=0;points=[];autosize=1;strokeColor=none;fillColor=none;fontStyle=0" parent="1" vertex="1">
          <mxGeometry x="2952" y="518" width="80" height="30" as="geometry" />
        </mxCell>
        <mxCell id="jepS8LiPJiyBPYWLw1s4-349" value="RATED G" style="text;html=1;align=center;verticalAlign=middle;resizable=0;points=[];autosize=1;strokeColor=none;fillColor=none;fontStyle=0" parent="1" vertex="1">
          <mxGeometry x="2952" y="318" width="80" height="30" as="geometry" />
        </mxCell>
        <mxCell id="jepS8LiPJiyBPYWLw1s4-350" value="&lt;span style=&quot;color: rgb(240, 240, 240); font-family: Helvetica; font-size: 12px; font-style: normal; font-variant-ligatures: normal; font-variant-caps: normal; font-weight: 400; letter-spacing: normal; orphans: 2; text-align: center; text-indent: 0px; text-transform: none; widows: 2; word-spacing: 0px; -webkit-text-stroke-width: 0px; white-space: normal; background-color: rgb(27, 29, 30); float: none; display: inline !important;&quot;&gt;MOVIE_CAT&lt;/span&gt;" style="text;whiteSpace=wrap;html=1;fontStyle=0" parent="1" vertex="1">
          <mxGeometry x="2847" y="30" width="80" height="30" as="geometry" />
        </mxCell>
        <mxCell id="jepS8LiPJiyBPYWLw1s4-351" value="&lt;span style=&quot;font-weight: normal;&quot;&gt;CLEAR_SCREEN&lt;/span&gt;" style="rounded=0;whiteSpace=wrap;html=1;fontStyle=1" parent="1" vertex="1">
          <mxGeometry x="2605" y="541.75" width="150" height="60" as="geometry" />
        </mxCell>
        <mxCell id="jepS8LiPJiyBPYWLw1s4-352" value="RATED SPG" style="text;html=1;align=center;verticalAlign=middle;resizable=0;points=[];autosize=1;strokeColor=none;fillColor=none;fontStyle=0" parent="1" vertex="1">
          <mxGeometry x="2957" y="722.62" width="90" height="30" as="geometry" />
        </mxCell>
        <mxCell id="jepS8LiPJiyBPYWLw1s4-366" style="edgeStyle=orthogonalEdgeStyle;rounded=0;orthogonalLoop=1;jettySize=auto;html=1;exitX=1;exitY=0.5;exitDx=0;exitDy=0;fillColor=#6a00ff;strokeColor=#99004D;" parent="1" source="jepS8LiPJiyBPYWLw1s4-367" target="jepS8LiPJiyBPYWLw1s4-368" edge="1">
          <mxGeometry relative="1" as="geometry" />
        </mxCell>
        <mxCell id="jepS8LiPJiyBPYWLw1s4-367" value="&lt;span style=&quot;font-weight: normal;&quot;&gt;CLEAR_SCREEN&lt;/span&gt;" style="rounded=0;whiteSpace=wrap;html=1;fontStyle=1" parent="1" vertex="1">
          <mxGeometry x="3027" y="542.13" width="150" height="60" as="geometry" />
        </mxCell>
        <mxCell id="jepS8LiPJiyBPYWLw1s4-368" value="" style="shape=waypoint;sketch=0;size=6;pointerEvents=1;points=[];fillColor=#6a00ff;resizable=0;rotatable=0;perimeter=centerPerimeter;snapToPoint=1;fontColor=#ffffff;strokeColor=#99004D;" parent="1" vertex="1">
          <mxGeometry x="3255" y="562.13" width="20" height="20" as="geometry" />
        </mxCell>
        <mxCell id="jepS8LiPJiyBPYWLw1s4-371" value="AGE FILTER PROCESS" style="text;html=1;align=center;verticalAlign=middle;resizable=0;points=[];autosize=1;strokeColor=none;fillColor=none;fontStyle=0" parent="1" vertex="1">
          <mxGeometry x="4045" y="30" width="150" height="30" as="geometry" />
        </mxCell>
        <mxCell id="jepS8LiPJiyBPYWLw1s4-378" style="edgeStyle=orthogonalEdgeStyle;rounded=0;orthogonalLoop=1;jettySize=auto;html=1;entryX=1;entryY=0.75;entryDx=0;entryDy=0;fillColor=#0050ef;strokeColor=#001DBC;" parent="1" source="jepS8LiPJiyBPYWLw1s4-377" target="jepS8LiPJiyBPYWLw1s4-441" edge="1">
          <mxGeometry relative="1" as="geometry">
            <mxPoint x="2165.9375" y="-974.58984375" as="targetPoint" />
          </mxGeometry>
        </mxCell>
        <mxCell id="jepS8LiPJiyBPYWLw1s4-377" value="" style="shape=waypoint;sketch=0;size=6;pointerEvents=1;points=[];fillColor=#0050ef;resizable=0;rotatable=0;perimeter=centerPerimeter;snapToPoint=1;fontColor=#ffffff;strokeColor=#001DBC;" parent="1" vertex="1">
          <mxGeometry x="2310" y="-817.7799999999999" width="20" height="20" as="geometry" />
        </mxCell>
        <mxCell id="jepS8LiPJiyBPYWLw1s4-379" style="edgeStyle=orthogonalEdgeStyle;rounded=0;orthogonalLoop=1;jettySize=auto;html=1;exitX=0.5;exitY=1;exitDx=0;exitDy=0;" parent="1" edge="1">
          <mxGeometry relative="1" as="geometry">
            <mxPoint x="2367.5" y="-997.56" as="sourcePoint" />
            <mxPoint x="2367.5" y="-997.56" as="targetPoint" />
          </mxGeometry>
        </mxCell>
        <mxCell id="jepS8LiPJiyBPYWLw1s4-381" style="edgeStyle=orthogonalEdgeStyle;rounded=0;orthogonalLoop=1;jettySize=auto;html=1;exitX=0.5;exitY=1;exitDx=0;exitDy=0;" parent="1" edge="1">
          <mxGeometry relative="1" as="geometry">
            <mxPoint x="2464.5" y="-979.9999999999999" as="sourcePoint" />
            <mxPoint x="2464.5" y="-979.9999999999999" as="targetPoint" />
          </mxGeometry>
        </mxCell>
        <mxCell id="jepS8LiPJiyBPYWLw1s4-385" value="&lt;span style=&quot;font-weight: 400;&quot;&gt;SYSTEM_PAUSE&lt;/span&gt;" style="rounded=0;whiteSpace=wrap;html=1;fontStyle=1;fillColor=default;strokeColor=#66FFB3;" parent="1" vertex="1">
          <mxGeometry x="5715" y="398" width="150" height="60" as="geometry" />
        </mxCell>
        <mxCell id="jepS8LiPJiyBPYWLw1s4-235" style="edgeStyle=orthogonalEdgeStyle;rounded=0;orthogonalLoop=1;jettySize=auto;html=1;entryX=0;entryY=0.5;entryDx=0;entryDy=0;fillColor=#6a00ff;strokeColor=#3700CC;" parent="1" source="jepS8LiPJiyBPYWLw1s4-229" target="jepS8LiPJiyBPYWLw1s4-389" edge="1">
          <mxGeometry relative="1" as="geometry">
            <mxPoint x="1885" y="551.7549999999997" as="targetPoint" />
          </mxGeometry>
        </mxCell>
        <mxCell id="jepS8LiPJiyBPYWLw1s4-236" style="edgeStyle=orthogonalEdgeStyle;rounded=0;orthogonalLoop=1;jettySize=auto;html=1;entryX=0.009;entryY=0.438;entryDx=0;entryDy=0;fillColor=#6a00ff;strokeColor=#3700CC;entryPerimeter=0;" parent="1" source="jepS8LiPJiyBPYWLw1s4-229" target="jepS8LiPJiyBPYWLw1s4-390" edge="1">
          <mxGeometry relative="1" as="geometry">
            <mxPoint x="1885" y="306.0050000000001" as="targetPoint" />
            <Array as="points">
              <mxPoint x="1825" y="552" />
              <mxPoint x="1825" y="306" />
              <mxPoint x="1881" y="306" />
            </Array>
          </mxGeometry>
        </mxCell>
        <mxCell id="jepS8LiPJiyBPYWLw1s4-237" style="edgeStyle=orthogonalEdgeStyle;rounded=0;orthogonalLoop=1;jettySize=auto;html=1;fillColor=#6a00ff;strokeColor=#3700CC;entryX=0;entryY=0.5;entryDx=0;entryDy=0;" parent="1" source="jepS8LiPJiyBPYWLw1s4-229" target="jepS8LiPJiyBPYWLw1s4-386" edge="1">
          <mxGeometry relative="1" as="geometry">
            <mxPoint x="1860" y="830" as="targetPoint" />
            <Array as="points">
              <mxPoint x="1825" y="552" />
              <mxPoint x="1825" y="796" />
            </Array>
          </mxGeometry>
        </mxCell>
        <mxCell id="jepS8LiPJiyBPYWLw1s4-229" value="" style="shape=waypoint;sketch=0;size=6;pointerEvents=1;points=[];fillColor=#6a00ff;resizable=0;rotatable=0;perimeter=centerPerimeter;snapToPoint=1;fontColor=#ffffff;strokeColor=#3700CC;" parent="1" vertex="1">
          <mxGeometry x="1765" y="541.75" width="20" height="20" as="geometry" />
        </mxCell>
        <mxCell id="jepS8LiPJiyBPYWLw1s4-245" value="" style="edgeStyle=orthogonalEdgeStyle;rounded=0;orthogonalLoop=1;jettySize=auto;html=1;fillColor=#0050ef;strokeColor=#001DBC;" parent="1" source="jepS8LiPJiyBPYWLw1s4-240" target="jepS8LiPJiyBPYWLw1s4-244" edge="1">
          <mxGeometry relative="1" as="geometry" />
        </mxCell>
        <mxCell id="jepS8LiPJiyBPYWLw1s4-240" value="&lt;font color=&quot;#000000&quot;&gt;OUTPUT&lt;/font&gt;&lt;div&gt;&lt;font color=&quot;#000000&quot;&gt;&lt;br&gt;&lt;/font&gt;&lt;/div&gt;&lt;div&gt;&lt;font color=&quot;#000000&quot;&gt;GENRE_MESSAGE&lt;/font&gt;&lt;br&gt;&lt;/div&gt;" style="shape=parallelogram;perimeter=parallelogramPerimeter;whiteSpace=wrap;html=1;fixedSize=1;fontStyle=0;fillColor=default;fontColor=#ffffff;strokeColor=#3700CC;" parent="1" vertex="1">
          <mxGeometry x="2295" y="521.75" width="150" height="59.25" as="geometry" />
        </mxCell>
        <mxCell id="jepS8LiPJiyBPYWLw1s4-244" value="" style="shape=waypoint;sketch=0;size=6;pointerEvents=1;points=[];fillColor=#0050ef;resizable=0;rotatable=0;perimeter=centerPerimeter;snapToPoint=1;fontStyle=0;fontColor=#ffffff;strokeColor=#001DBC;" parent="1" vertex="1">
          <mxGeometry x="2465" y="541.375" width="20" height="20" as="geometry" />
        </mxCell>
        <mxCell id="jepS8LiPJiyBPYWLw1s4-388" style="edgeStyle=orthogonalEdgeStyle;rounded=0;orthogonalLoop=1;jettySize=auto;html=1;exitX=1;exitY=0.5;exitDx=0;exitDy=0;entryX=0;entryY=0.5;entryDx=0;entryDy=0;fillColor=#6a00ff;strokeColor=#3700CC;" parent="1" source="jepS8LiPJiyBPYWLw1s4-386" target="jepS8LiPJiyBPYWLw1s4-387" edge="1">
          <mxGeometry relative="1" as="geometry" />
        </mxCell>
        <mxCell id="jepS8LiPJiyBPYWLw1s4-386" value="&lt;span style=&quot;color: rgb(0, 0, 0); font-weight: 400;&quot;&gt;MOVIE_PROCESS&lt;/span&gt;" style="rounded=0;whiteSpace=wrap;html=1;fontStyle=1;strokeColor=#3700CC;fillColor=default;fontColor=#ffffff;" parent="1" vertex="1">
          <mxGeometry x="1880" y="765.24" width="150" height="60" as="geometry" />
        </mxCell>
        <mxCell id="jepS8LiPJiyBPYWLw1s4-400" style="edgeStyle=orthogonalEdgeStyle;rounded=0;orthogonalLoop=1;jettySize=auto;html=1;exitX=1;exitY=0.5;exitDx=0;exitDy=0;entryX=0;entryY=0.5;entryDx=0;entryDy=0;fillColor=#6a00ff;strokeColor=#3700CC;" parent="1" source="jepS8LiPJiyBPYWLw1s4-387" target="jepS8LiPJiyBPYWLw1s4-240" edge="1">
          <mxGeometry relative="1" as="geometry">
            <Array as="points">
              <mxPoint x="2260" y="795" />
              <mxPoint x="2260" y="551" />
            </Array>
          </mxGeometry>
        </mxCell>
        <mxCell id="jepS8LiPJiyBPYWLw1s4-387" value="&lt;font color=&quot;#000000&quot;&gt;OUTPUT&lt;/font&gt;&lt;div&gt;&lt;font color=&quot;#000000&quot;&gt;&lt;br&gt;&lt;/font&gt;&lt;/div&gt;&lt;div&gt;&lt;font color=&quot;#000000&quot;&gt;MOVIE_POSTER_3&lt;/font&gt;&lt;br&gt;&lt;/div&gt;" style="shape=parallelogram;perimeter=parallelogramPerimeter;whiteSpace=wrap;html=1;fixedSize=1;fontStyle=0;fillColor=default;fontColor=#ffffff;strokeColor=#3700CC;" parent="1" vertex="1">
          <mxGeometry x="2080" y="765.24" width="150" height="59.25" as="geometry" />
        </mxCell>
        <mxCell id="jepS8LiPJiyBPYWLw1s4-394" style="edgeStyle=orthogonalEdgeStyle;rounded=0;orthogonalLoop=1;jettySize=auto;html=1;exitX=1;exitY=0.5;exitDx=0;exitDy=0;fillColor=#6a00ff;strokeColor=#3700CC;" parent="1" source="jepS8LiPJiyBPYWLw1s4-389" target="jepS8LiPJiyBPYWLw1s4-392" edge="1">
          <mxGeometry relative="1" as="geometry" />
        </mxCell>
        <mxCell id="jepS8LiPJiyBPYWLw1s4-389" value="&lt;span style=&quot;color: rgb(0, 0, 0); font-weight: 400;&quot;&gt;MOVIE_PROCESS&lt;/span&gt;" style="rounded=0;whiteSpace=wrap;html=1;fontStyle=1;strokeColor=#3700CC;fillColor=default;fontColor=#ffffff;" parent="1" vertex="1">
          <mxGeometry x="1880" y="522.13" width="150" height="60" as="geometry" />
        </mxCell>
        <mxCell id="jepS8LiPJiyBPYWLw1s4-395" style="edgeStyle=orthogonalEdgeStyle;rounded=0;orthogonalLoop=1;jettySize=auto;html=1;exitX=1;exitY=0.5;exitDx=0;exitDy=0;entryX=0;entryY=0.5;entryDx=0;entryDy=0;fillColor=#6a00ff;strokeColor=#3700CC;" parent="1" source="jepS8LiPJiyBPYWLw1s4-390" target="jepS8LiPJiyBPYWLw1s4-393" edge="1">
          <mxGeometry relative="1" as="geometry" />
        </mxCell>
        <mxCell id="jepS8LiPJiyBPYWLw1s4-390" value="&lt;span style=&quot;font-weight: 400;&quot;&gt;&lt;font color=&quot;#000000&quot;&gt;MOVIE_PROCESS&lt;/font&gt;&lt;/span&gt;" style="rounded=0;whiteSpace=wrap;html=1;fontStyle=1;strokeColor=#3700CC;fillColor=default;fontColor=#ffffff;" parent="1" vertex="1">
          <mxGeometry x="1880" y="280" width="150" height="60" as="geometry" />
        </mxCell>
        <mxCell id="jepS8LiPJiyBPYWLw1s4-399" style="edgeStyle=orthogonalEdgeStyle;rounded=0;orthogonalLoop=1;jettySize=auto;html=1;exitX=1;exitY=0.5;exitDx=0;exitDy=0;entryX=0;entryY=0.5;entryDx=0;entryDy=0;fillColor=#6a00ff;strokeColor=#3700CC;" parent="1" source="jepS8LiPJiyBPYWLw1s4-392" target="jepS8LiPJiyBPYWLw1s4-240" edge="1">
          <mxGeometry relative="1" as="geometry" />
        </mxCell>
        <mxCell id="jepS8LiPJiyBPYWLw1s4-392" value="&lt;font color=&quot;#000000&quot;&gt;OUTPUT&lt;/font&gt;&lt;div&gt;&lt;font color=&quot;#000000&quot;&gt;&lt;br&gt;&lt;/font&gt;&lt;/div&gt;&lt;div&gt;&lt;font color=&quot;#000000&quot;&gt;MOVIE_POSTER_2&lt;/font&gt;&lt;br&gt;&lt;/div&gt;" style="shape=parallelogram;perimeter=parallelogramPerimeter;whiteSpace=wrap;html=1;fixedSize=1;fontStyle=0;fillColor=default;fontColor=#ffffff;strokeColor=#3700CC;" parent="1" vertex="1">
          <mxGeometry x="2080" y="522.51" width="150" height="59.25" as="geometry" />
        </mxCell>
        <mxCell id="jepS8LiPJiyBPYWLw1s4-401" style="edgeStyle=orthogonalEdgeStyle;rounded=0;orthogonalLoop=1;jettySize=auto;html=1;exitX=1;exitY=0.5;exitDx=0;exitDy=0;entryX=0;entryY=0.5;entryDx=0;entryDy=0;fillColor=#6a00ff;strokeColor=#3700CC;" parent="1" source="jepS8LiPJiyBPYWLw1s4-393" target="jepS8LiPJiyBPYWLw1s4-240" edge="1">
          <mxGeometry relative="1" as="geometry">
            <Array as="points">
              <mxPoint x="2260" y="310" />
              <mxPoint x="2260" y="551" />
            </Array>
          </mxGeometry>
        </mxCell>
        <mxCell id="jepS8LiPJiyBPYWLw1s4-393" value="&lt;font color=&quot;#000000&quot;&gt;OUTPUT&lt;/font&gt;&lt;div&gt;&lt;font color=&quot;#000000&quot;&gt;&lt;br&gt;&lt;/font&gt;&lt;/div&gt;&lt;div&gt;&lt;font color=&quot;#000000&quot;&gt;MOVIE_POSTER_1&lt;/font&gt;&lt;br&gt;&lt;/div&gt;" style="shape=parallelogram;perimeter=parallelogramPerimeter;whiteSpace=wrap;html=1;fixedSize=1;fontStyle=0;fillColor=default;fontColor=#ffffff;strokeColor=#3700CC;" parent="1" vertex="1">
          <mxGeometry x="2080" y="280" width="150" height="59.25" as="geometry" />
        </mxCell>
        <mxCell id="jepS8LiPJiyBPYWLw1s4-421" style="edgeStyle=orthogonalEdgeStyle;rounded=0;orthogonalLoop=1;jettySize=auto;html=1;entryX=0;entryY=0.5;entryDx=0;entryDy=0;fillColor=#6a00ff;strokeColor=#99004D;" parent="1" source="jepS8LiPJiyBPYWLw1s4-424" target="jepS8LiPJiyBPYWLw1s4-433" edge="1">
          <mxGeometry relative="1" as="geometry">
            <mxPoint x="3585" y="548.7549999999997" as="targetPoint" />
          </mxGeometry>
        </mxCell>
        <mxCell id="jepS8LiPJiyBPYWLw1s4-422" style="edgeStyle=orthogonalEdgeStyle;rounded=0;orthogonalLoop=1;jettySize=auto;html=1;entryX=0.009;entryY=0.438;entryDx=0;entryDy=0;fillColor=#6a00ff;strokeColor=#99004D;entryPerimeter=0;" parent="1" source="jepS8LiPJiyBPYWLw1s4-424" target="jepS8LiPJiyBPYWLw1s4-435" edge="1">
          <mxGeometry relative="1" as="geometry">
            <mxPoint x="3585" y="303.0050000000001" as="targetPoint" />
            <Array as="points">
              <mxPoint x="3525" y="549" />
              <mxPoint x="3525" y="303" />
              <mxPoint x="3581" y="303" />
            </Array>
          </mxGeometry>
        </mxCell>
        <mxCell id="jepS8LiPJiyBPYWLw1s4-423" style="edgeStyle=orthogonalEdgeStyle;rounded=0;orthogonalLoop=1;jettySize=auto;html=1;fillColor=#6a00ff;strokeColor=#99004D;entryX=0;entryY=0.5;entryDx=0;entryDy=0;" parent="1" source="jepS8LiPJiyBPYWLw1s4-424" target="jepS8LiPJiyBPYWLw1s4-429" edge="1">
          <mxGeometry relative="1" as="geometry">
            <mxPoint x="3560" y="827" as="targetPoint" />
            <Array as="points">
              <mxPoint x="3525" y="549" />
              <mxPoint x="3525" y="793" />
            </Array>
          </mxGeometry>
        </mxCell>
        <mxCell id="jepS8LiPJiyBPYWLw1s4-424" value="" style="shape=waypoint;sketch=0;size=6;pointerEvents=1;points=[];fillColor=#6a00ff;resizable=0;rotatable=0;perimeter=centerPerimeter;snapToPoint=1;fontColor=#ffffff;strokeColor=#99004D;" parent="1" vertex="1">
          <mxGeometry x="3465" y="538.75" width="20" height="20" as="geometry" />
        </mxCell>
        <mxCell id="jepS8LiPJiyBPYWLw1s4-425" value="" style="edgeStyle=orthogonalEdgeStyle;rounded=0;orthogonalLoop=1;jettySize=auto;html=1;fillColor=#0050ef;strokeColor=#99004D;" parent="1" source="jepS8LiPJiyBPYWLw1s4-426" target="jepS8LiPJiyBPYWLw1s4-427" edge="1">
          <mxGeometry relative="1" as="geometry" />
        </mxCell>
        <mxCell id="jepS8LiPJiyBPYWLw1s4-426" value="&lt;font color=&quot;#000000&quot;&gt;OUTPUT&lt;/font&gt;&lt;div&gt;&lt;font color=&quot;#000000&quot;&gt;&lt;br&gt;&lt;/font&gt;&lt;/div&gt;&lt;div&gt;&lt;font color=&quot;#000000&quot;&gt;GENRE_MESSAGE&lt;/font&gt;&lt;br&gt;&lt;/div&gt;" style="shape=parallelogram;perimeter=parallelogramPerimeter;whiteSpace=wrap;html=1;fixedSize=1;fontStyle=0;fillColor=default;fontColor=#ffffff;strokeColor=#99004D;" parent="1" vertex="1">
          <mxGeometry x="3995" y="518.75" width="150" height="59.25" as="geometry" />
        </mxCell>
        <mxCell id="jepS8LiPJiyBPYWLw1s4-427" value="" style="shape=waypoint;sketch=0;size=6;pointerEvents=1;points=[];fillColor=#0050ef;resizable=0;rotatable=0;perimeter=centerPerimeter;snapToPoint=1;fontStyle=0;fontColor=#ffffff;strokeColor=#99004D;" parent="1" vertex="1">
          <mxGeometry x="4165" y="538.375" width="20" height="20" as="geometry" />
        </mxCell>
        <mxCell id="jepS8LiPJiyBPYWLw1s4-428" style="edgeStyle=orthogonalEdgeStyle;rounded=0;orthogonalLoop=1;jettySize=auto;html=1;exitX=1;exitY=0.5;exitDx=0;exitDy=0;entryX=0;entryY=0.5;entryDx=0;entryDy=0;fillColor=#6a00ff;strokeColor=#99004D;" parent="1" source="jepS8LiPJiyBPYWLw1s4-429" target="jepS8LiPJiyBPYWLw1s4-431" edge="1">
          <mxGeometry relative="1" as="geometry" />
        </mxCell>
        <mxCell id="jepS8LiPJiyBPYWLw1s4-429" value="&lt;span style=&quot;color: rgb(0, 0, 0); font-weight: 400;&quot;&gt;MOVIE_PROCESS&lt;/span&gt;" style="rounded=0;whiteSpace=wrap;html=1;fontStyle=1;strokeColor=#99004D;fillColor=default;fontColor=#ffffff;" parent="1" vertex="1">
          <mxGeometry x="3580" y="762.24" width="150" height="60" as="geometry" />
        </mxCell>
        <mxCell id="jepS8LiPJiyBPYWLw1s4-430" style="edgeStyle=orthogonalEdgeStyle;rounded=0;orthogonalLoop=1;jettySize=auto;html=1;exitX=1;exitY=0.5;exitDx=0;exitDy=0;entryX=0;entryY=0.5;entryDx=0;entryDy=0;fillColor=#6a00ff;strokeColor=#99004D;" parent="1" source="jepS8LiPJiyBPYWLw1s4-431" target="jepS8LiPJiyBPYWLw1s4-426" edge="1">
          <mxGeometry relative="1" as="geometry">
            <Array as="points">
              <mxPoint x="3960" y="792" />
              <mxPoint x="3960" y="548" />
            </Array>
          </mxGeometry>
        </mxCell>
        <mxCell id="jepS8LiPJiyBPYWLw1s4-431" value="&lt;font color=&quot;#000000&quot;&gt;OUTPUT&lt;/font&gt;&lt;div&gt;&lt;font color=&quot;#000000&quot;&gt;&lt;br&gt;&lt;/font&gt;&lt;/div&gt;&lt;div&gt;&lt;font color=&quot;#000000&quot;&gt;MOVIE_POSTER_3&lt;/font&gt;&lt;br&gt;&lt;/div&gt;" style="shape=parallelogram;perimeter=parallelogramPerimeter;whiteSpace=wrap;html=1;fixedSize=1;fontStyle=0;fillColor=default;fontColor=#ffffff;strokeColor=#99004D;" parent="1" vertex="1">
          <mxGeometry x="3780" y="762.24" width="150" height="59.25" as="geometry" />
        </mxCell>
        <mxCell id="jepS8LiPJiyBPYWLw1s4-432" style="edgeStyle=orthogonalEdgeStyle;rounded=0;orthogonalLoop=1;jettySize=auto;html=1;exitX=1;exitY=0.5;exitDx=0;exitDy=0;fillColor=#6a00ff;strokeColor=#99004D;" parent="1" source="jepS8LiPJiyBPYWLw1s4-433" target="jepS8LiPJiyBPYWLw1s4-437" edge="1">
          <mxGeometry relative="1" as="geometry" />
        </mxCell>
        <mxCell id="jepS8LiPJiyBPYWLw1s4-433" value="&lt;span style=&quot;color: rgb(0, 0, 0); font-weight: 400;&quot;&gt;MOVIE_PROCESS&lt;/span&gt;" style="rounded=0;whiteSpace=wrap;html=1;fontStyle=1;strokeColor=#99004D;fillColor=default;fontColor=#ffffff;" parent="1" vertex="1">
          <mxGeometry x="3580" y="519.13" width="150" height="60" as="geometry" />
        </mxCell>
        <mxCell id="jepS8LiPJiyBPYWLw1s4-434" style="edgeStyle=orthogonalEdgeStyle;rounded=0;orthogonalLoop=1;jettySize=auto;html=1;exitX=1;exitY=0.5;exitDx=0;exitDy=0;entryX=0;entryY=0.5;entryDx=0;entryDy=0;fillColor=#6a00ff;strokeColor=#99004D;" parent="1" source="jepS8LiPJiyBPYWLw1s4-435" target="jepS8LiPJiyBPYWLw1s4-439" edge="1">
          <mxGeometry relative="1" as="geometry" />
        </mxCell>
        <mxCell id="jepS8LiPJiyBPYWLw1s4-435" value="&lt;span style=&quot;color: rgb(0, 0, 0); font-weight: 400;&quot;&gt;MOVIE_PROCESS&lt;/span&gt;" style="rounded=0;whiteSpace=wrap;html=1;fontStyle=1;strokeColor=#99004D;fillColor=default;fontColor=#ffffff;" parent="1" vertex="1">
          <mxGeometry x="3580" y="277" width="150" height="60" as="geometry" />
        </mxCell>
        <mxCell id="jepS8LiPJiyBPYWLw1s4-436" style="edgeStyle=orthogonalEdgeStyle;rounded=0;orthogonalLoop=1;jettySize=auto;html=1;exitX=1;exitY=0.5;exitDx=0;exitDy=0;entryX=0;entryY=0.5;entryDx=0;entryDy=0;fillColor=#6a00ff;strokeColor=#99004D;" parent="1" source="jepS8LiPJiyBPYWLw1s4-437" target="jepS8LiPJiyBPYWLw1s4-426" edge="1">
          <mxGeometry relative="1" as="geometry" />
        </mxCell>
        <mxCell id="jepS8LiPJiyBPYWLw1s4-437" value="&lt;font color=&quot;#000000&quot;&gt;OUTPUT&lt;/font&gt;&lt;div&gt;&lt;font color=&quot;#000000&quot;&gt;&lt;br&gt;&lt;/font&gt;&lt;/div&gt;&lt;div&gt;&lt;font color=&quot;#000000&quot;&gt;MOVIE_POSTER_2&lt;/font&gt;&lt;br&gt;&lt;/div&gt;" style="shape=parallelogram;perimeter=parallelogramPerimeter;whiteSpace=wrap;html=1;fixedSize=1;fontStyle=0;fillColor=default;fontColor=#ffffff;strokeColor=#99004D;" parent="1" vertex="1">
          <mxGeometry x="3780" y="519.51" width="150" height="59.25" as="geometry" />
        </mxCell>
        <mxCell id="jepS8LiPJiyBPYWLw1s4-438" style="edgeStyle=orthogonalEdgeStyle;rounded=0;orthogonalLoop=1;jettySize=auto;html=1;exitX=1;exitY=0.5;exitDx=0;exitDy=0;entryX=0;entryY=0.5;entryDx=0;entryDy=0;fillColor=#6a00ff;strokeColor=#99004D;" parent="1" source="jepS8LiPJiyBPYWLw1s4-439" target="jepS8LiPJiyBPYWLw1s4-426" edge="1">
          <mxGeometry relative="1" as="geometry">
            <Array as="points">
              <mxPoint x="3960" y="307" />
              <mxPoint x="3960" y="548" />
            </Array>
          </mxGeometry>
        </mxCell>
        <mxCell id="jepS8LiPJiyBPYWLw1s4-439" value="&lt;font color=&quot;#000000&quot;&gt;OUTPUT&lt;/font&gt;&lt;div&gt;&lt;font color=&quot;#000000&quot;&gt;&lt;br&gt;&lt;/font&gt;&lt;/div&gt;&lt;div&gt;&lt;font color=&quot;#000000&quot;&gt;MOVIE_POSTER_1&lt;/font&gt;&lt;br&gt;&lt;/div&gt;" style="shape=parallelogram;perimeter=parallelogramPerimeter;whiteSpace=wrap;html=1;fixedSize=1;fontStyle=0;fillColor=default;fontColor=#ffffff;strokeColor=#99004D;" parent="1" vertex="1">
          <mxGeometry x="3780" y="277" width="150" height="59.25" as="geometry" />
        </mxCell>
        <mxCell id="jepS8LiPJiyBPYWLw1s4-442" style="edgeStyle=orthogonalEdgeStyle;rounded=0;orthogonalLoop=1;jettySize=auto;html=1;exitX=0.5;exitY=1;exitDx=0;exitDy=0;" parent="1" source="jepS8LiPJiyBPYWLw1s4-441" edge="1">
          <mxGeometry relative="1" as="geometry">
            <mxPoint x="2105" y="-770" as="targetPoint" />
          </mxGeometry>
        </mxCell>
        <mxCell id="jepS8LiPJiyBPYWLw1s4-441" value="OUTPUT&lt;div&gt;&lt;br&gt;&lt;/div&gt;&lt;div&gt;MOVIE_HUB&lt;/div&gt;" style="shape=parallelogram;perimeter=parallelogramPerimeter;whiteSpace=wrap;html=1;fixedSize=1;fontStyle=0" parent="1" vertex="1">
          <mxGeometry x="2030" y="-854.25" width="150" height="59.25" as="geometry" />
        </mxCell>
        <mxCell id="jepS8LiPJiyBPYWLw1s4-444" value="&lt;span style=&quot;color: rgb(240, 240, 240); font-family: Helvetica; font-size: 12px; font-style: normal; font-variant-ligatures: normal; font-variant-caps: normal; font-weight: 400; letter-spacing: normal; orphans: 2; text-align: center; text-indent: 0px; text-transform: none; widows: 2; word-spacing: 0px; -webkit-text-stroke-width: 0px; white-space: normal; background-color: rgb(27, 29, 30); text-decoration-thickness: initial; text-decoration-style: initial; text-decoration-color: initial; display: inline !important; float: none;&quot;&gt;GENRE_INPUT&lt;/span&gt;" style="text;whiteSpace=wrap;html=1;" parent="1" vertex="1">
          <mxGeometry x="2335" y="-856.9" width="95" height="25" as="geometry" />
        </mxCell>
        <mxCell id="jepS8LiPJiyBPYWLw1s4-445" value="&lt;span style=&quot;color: rgb(240, 240, 240); font-family: Helvetica; font-size: 12px; font-style: normal; font-variant-ligatures: normal; font-variant-caps: normal; font-weight: 400; letter-spacing: normal; orphans: 2; text-align: center; text-indent: 0px; text-transform: none; widows: 2; word-spacing: 0px; -webkit-text-stroke-width: 0px; white-space: normal; background-color: rgb(27, 29, 30); text-decoration-thickness: initial; text-decoration-style: initial; text-decoration-color: initial; display: inline !important; float: none;&quot;&gt;AGE_INPUT&lt;/span&gt;" style="text;whiteSpace=wrap;html=1;" parent="1" vertex="1">
          <mxGeometry x="2335" y="-824.2499999999999" width="95" height="25" as="geometry" />
        </mxCell>
        <mxCell id="jepS8LiPJiyBPYWLw1s4-462" style="edgeStyle=orthogonalEdgeStyle;rounded=0;orthogonalLoop=1;jettySize=auto;html=1;exitX=0.5;exitY=1;exitDx=0;exitDy=0;entryX=0.5;entryY=0;entryDx=0;entryDy=0;" parent="1" source="jepS8LiPJiyBPYWLw1s4-460" target="_7ieRwts1pLUNNnIRrpb-128" edge="1">
          <mxGeometry relative="1" as="geometry" />
        </mxCell>
        <mxCell id="jepS8LiPJiyBPYWLw1s4-460" value="OUTPUT&lt;div&gt;&lt;br&gt;&lt;/div&gt;&lt;div&gt;AMOUNT_CASH&lt;/div&gt;" style="shape=parallelogram;perimeter=parallelogramPerimeter;whiteSpace=wrap;html=1;fixedSize=1;fontStyle=0" parent="1" vertex="1">
          <mxGeometry x="5482" y="318" width="150" height="59.25" as="geometry" />
        </mxCell>
        <mxCell id="jepS8LiPJiyBPYWLw1s4-488" style="edgeStyle=orthogonalEdgeStyle;rounded=0;orthogonalLoop=1;jettySize=auto;html=1;exitX=0.25;exitY=0;exitDx=0;exitDy=0;entryX=0.5;entryY=0;entryDx=0;entryDy=0;" parent="1" source="jepS8LiPJiyBPYWLw1s4-475" target="_7ieRwts1pLUNNnIRrpb-125" edge="1">
          <mxGeometry relative="1" as="geometry" />
        </mxCell>
        <mxCell id="jepS8LiPJiyBPYWLw1s4-489" style="edgeStyle=orthogonalEdgeStyle;rounded=0;orthogonalLoop=1;jettySize=auto;html=1;exitX=0.75;exitY=0;exitDx=0;exitDy=0;entryX=0.5;entryY=0;entryDx=0;entryDy=0;" parent="1" source="jepS8LiPJiyBPYWLw1s4-475" target="jepS8LiPJiyBPYWLw1s4-460" edge="1">
          <mxGeometry relative="1" as="geometry" />
        </mxCell>
        <mxCell id="jepS8LiPJiyBPYWLw1s4-475" value="&lt;span style=&quot;font-weight: normal;&quot;&gt;CLEAR_SCREEN&lt;/span&gt;" style="rounded=0;whiteSpace=wrap;html=1;fontStyle=1" parent="1" vertex="1">
          <mxGeometry x="5140" y="438" width="150" height="60" as="geometry" />
        </mxCell>
        <mxCell id="jepS8LiPJiyBPYWLw1s4-483" style="edgeStyle=orthogonalEdgeStyle;rounded=0;orthogonalLoop=1;jettySize=auto;html=1;exitX=0.5;exitY=0;exitDx=0;exitDy=0;entryX=0.5;entryY=1;entryDx=0;entryDy=0;" parent="1" source="jepS8LiPJiyBPYWLw1s4-480" target="jepS8LiPJiyBPYWLw1s4-475" edge="1">
          <mxGeometry relative="1" as="geometry" />
        </mxCell>
        <mxCell id="jepS8LiPJiyBPYWLw1s4-480" value="&lt;span style=&quot;font-weight: 400;&quot;&gt;SYSTEM_PAUSE&lt;/span&gt;" style="rounded=0;whiteSpace=wrap;html=1;fontStyle=1;fillColor=default;strokeColor=default;" parent="1" vertex="1">
          <mxGeometry x="5140" y="518" width="150" height="60" as="geometry" />
        </mxCell>
        <mxCell id="jepS8LiPJiyBPYWLw1s4-484" style="edgeStyle=orthogonalEdgeStyle;rounded=0;orthogonalLoop=1;jettySize=auto;html=1;exitX=0.5;exitY=0;exitDx=0;exitDy=0;entryX=0.5;entryY=1;entryDx=0;entryDy=0;" parent="1" source="jepS8LiPJiyBPYWLw1s4-481" target="jepS8LiPJiyBPYWLw1s4-480" edge="1">
          <mxGeometry relative="1" as="geometry" />
        </mxCell>
        <mxCell id="jepS8LiPJiyBPYWLw1s4-481" value="OUTPUT&lt;div&gt;&lt;br&gt;&lt;/div&gt;&lt;div&gt;MONEY_MESSAGE&lt;/div&gt;" style="shape=parallelogram;perimeter=parallelogramPerimeter;whiteSpace=wrap;html=1;fixedSize=1;strokeColor=default;fontStyle=0" parent="1" vertex="1">
          <mxGeometry x="5140" y="610" width="150" height="59.25" as="geometry" />
        </mxCell>
        <mxCell id="sRZMo3yO5PueX6pyic4d-10" value="&lt;span style=&quot;color: rgb(240, 240, 240); font-family: Helvetica; font-size: 12px; font-style: normal; font-variant-ligatures: normal; font-variant-caps: normal; font-weight: 400; letter-spacing: normal; orphans: 2; text-align: center; text-indent: 0px; text-transform: none; widows: 2; word-spacing: 0px; -webkit-text-stroke-width: 0px; white-space: normal; background-color: rgb(27, 29, 30); float: none; display: inline !important;&quot;&gt;BG_CONFIRM (Y)&lt;/span&gt;" style="text;whiteSpace=wrap;html=1;fontStyle=0" parent="1" vertex="1">
          <mxGeometry x="1740" y="-960" width="105" height="25" as="geometry" />
        </mxCell>
      </root>
    </mxGraphModel>
  </diagram>
</mxfile>
